<svg width="147" height="32" viewBox="0 0 147 32" fill="none" xmlns="http://www.w3.org/2000/svg">
<mask id="mask0" mask-type="alpha" maskUnits="userSpaceOnUse" x="0" y="0" width="147" height="32">
<rect x="0.25" y="0.9375" width="146.5" height="30.75" fill="#C4C4C4"/>
</mask>
<g mask="url(#mask0)">
<path d="M19.2977 18.0726C19.2977 17.9456 19.3791 17.8609 19.4605 17.7762C21.6178 16.6752 23.1645 14.7274 23.1645 14.685C23.2866 14.558 23.4494 14.5156 23.6122 14.6427C23.7343 14.7697 23.7751 14.9391 23.6529 15.1085C23.6122 15.1932 22.2283 16.887 20.2746 18.0726C22.269 19.2583 23.5715 21.1215 23.6529 21.2062C23.7344 21.3332 23.7343 21.5449 23.5715 21.6296C23.4494 21.7143 23.2459 21.7143 23.1645 21.5449C23.1645 21.5449 21.6178 19.4277 19.5012 18.3267C19.3791 18.2844 19.2977 18.1573 19.2977 18.0726Z" fill="#B5B2A5"/>
<path d="M10.75 18.0726C10.75 17.9032 10.9128 17.7339 11.0756 17.7339C11.1163 17.7339 16.4078 17.7762 21.0886 12.1443C21.1701 12.0596 21.2514 12.0173 21.3329 12.0173C21.4143 12.0173 21.4957 12.0596 21.5771 12.1443C21.6178 12.1866 25.2404 17.6915 29.7584 17.6915C29.9213 17.6915 30.0841 17.8186 30.0841 18.0303C30.0841 18.1997 29.962 18.369 29.7584 18.369C25.2404 18.369 21.6178 24.0857 21.5771 24.1704C21.5364 24.255 21.455 24.2974 21.3329 24.2974C21.2514 24.2974 21.1293 24.255 21.0886 24.1704C16.3671 18.5384 11.1163 18.369 11.0349 18.369C10.8721 18.369 10.75 18.242 10.75 18.0726ZM21.2922 12.8642C18.2801 16.3365 15.146 17.6068 13.1515 18.115C15.146 18.6655 18.2801 20.0205 21.2922 23.4928C22.0248 22.3919 24.467 19.1313 27.764 18.0726C24.467 17.0563 22.0248 13.9228 21.2922 12.8642Z" fill="#B5B2A5"/>
<path d="M29.4328 18.0726C29.4328 17.9032 29.5549 17.7338 29.7584 17.7338L130.784 17.7338C130.947 17.7338 131.11 17.8609 131.11 18.0726C131.11 18.242 130.987 18.4114 130.784 18.4114L29.7177 18.4114C29.5549 18.369 29.4328 18.242 29.4328 18.0726Z" fill="#B5B2A5"/>
<path d="M32.4855 14.3886C32.4855 13.7111 32.6891 13.0335 33.0961 12.4407C33.6659 11.6785 34.6428 11.3397 35.4569 11.5938C36.3524 11.8902 36.9629 12.8641 36.8001 13.7957C36.678 14.3462 36.3117 14.812 35.8639 14.9391C35.579 15.0238 35.2534 14.9391 35.0092 14.7697C34.7649 14.6003 34.6428 14.3462 34.6021 14.0922C34.5614 13.9228 34.6835 13.7534 34.887 13.7534C35.0499 13.7534 35.2127 13.8381 35.2127 14.0498C35.2127 14.1769 35.2941 14.2615 35.3755 14.2615C35.4976 14.3462 35.6197 14.3886 35.7418 14.3462C35.986 14.2615 36.1896 14.0075 36.271 13.6687C36.3931 13.0759 35.9453 12.3984 35.3348 12.1866C34.7242 12.0172 34.0323 12.2713 33.6252 12.8218C32.8519 13.8381 33.0961 15.4472 33.788 16.3365C34.48 17.1834 35.6197 17.6915 36.9222 17.6915C36.9629 17.6915 36.9629 17.6915 37.0036 17.6915C37.1664 17.6915 37.2885 17.8185 37.2885 18.0303C37.2885 18.1997 37.1664 18.3267 37.0036 18.369C36.9629 18.369 36.9629 18.369 36.9222 18.369C35.6604 18.369 34.48 18.8772 33.788 19.7241C33.0961 20.6133 32.8519 22.2225 33.6252 23.2387C34.0323 23.7892 34.7649 24.0433 35.3348 23.8739C35.9453 23.7045 36.3524 23.027 36.271 22.3918C36.2303 22.0531 35.986 21.799 35.7418 21.7143C35.6197 21.672 35.4976 21.7143 35.3755 21.799C35.3348 21.8414 35.2534 21.926 35.2127 22.0107C35.2127 22.1801 35.0499 22.3072 34.887 22.3072C34.7242 22.3072 34.6021 22.1378 34.6021 21.9684C34.6428 21.7143 34.7649 21.4602 35.0092 21.2909C35.2534 21.1215 35.579 21.0368 35.9046 21.1215C36.3931 21.2485 36.7594 21.7143 36.8408 22.2648C37.0036 23.1964 36.3931 24.1703 35.4976 24.4668C34.6835 24.7208 33.7066 24.3821 33.1368 23.6199C32.1599 22.3495 32.4448 20.3593 33.3403 19.3006C33.788 18.7501 34.4393 18.2843 35.172 18.0303C34.4393 17.7762 33.788 17.3104 33.3403 16.7599C32.8112 16.1671 32.4855 15.2778 32.4855 14.3886Z" fill="#B5B2A5"/>
<path d="M166.766 14.8968C166.766 14.8121 166.806 14.7274 166.888 14.6427C167.01 14.5156 167.213 14.558 167.336 14.685C167.336 14.685 168.882 16.6753 171.04 17.7762C171.243 17.9033 171.243 18.242 171.04 18.3267C168.882 19.4277 167.376 21.5026 167.376 21.545C167.295 21.672 167.091 21.7143 166.969 21.6297C166.847 21.545 166.806 21.3332 166.888 21.2062C166.928 21.1215 168.272 19.2583 170.266 18.0726C168.272 16.887 166.928 15.1932 166.888 15.1085C166.766 15.0238 166.766 14.9814 166.766 14.8968Z" fill="#B5B2A5"/>
<path d="M160.457 18.0727C160.457 17.9033 160.579 17.7339 160.782 17.7339C165.3 17.7339 168.923 12.229 168.964 12.1867C169.004 12.102 169.086 12.0596 169.208 12.0596C169.289 12.0596 169.411 12.102 169.452 12.1867C174.133 17.7763 179.384 17.7339 179.424 17.7339C179.587 17.7339 179.75 17.8609 179.75 18.0303C179.75 18.1997 179.628 18.3267 179.465 18.3691C179.424 18.3691 174.133 18.5385 169.411 24.1704C169.33 24.2551 169.249 24.2974 169.167 24.2974C169.086 24.2974 169.004 24.2551 168.923 24.1704C168.882 24.128 165.26 18.3691 160.742 18.3691C160.579 18.3691 160.457 18.2421 160.457 18.0727ZM169.208 12.8642C168.475 13.9228 165.992 17.0564 162.777 18.0727C166.033 19.1313 168.475 22.3919 169.249 23.4929C172.261 20.0206 175.395 18.6655 177.389 18.115C175.354 17.6069 172.22 16.3365 169.208 12.8642Z" fill="#B5B2A5"/>
<path d="M130.499 18.0727C130.499 17.9033 130.621 17.7339 130.825 17.7339L160.742 17.7339C160.904 17.7339 161.067 17.8609 161.067 18.0727C161.067 18.242 160.945 18.4114 160.742 18.4114L130.784 18.4114C130.621 18.369 130.499 18.242 130.499 18.0727Z" fill="#B5B2A5"/>
<path d="M153.211 18.0727C153.211 17.9033 153.334 17.7762 153.496 17.7339C153.537 17.7339 153.537 17.7339 153.578 17.7339C154.84 17.7339 156.02 17.2258 156.712 16.3788C157.404 15.4896 157.648 13.8805 156.875 12.8642C156.468 12.3137 155.735 12.0596 155.165 12.229C154.555 12.3984 154.148 13.0759 154.229 13.7111C154.27 14.0499 154.514 14.3039 154.758 14.3886C154.88 14.431 155.002 14.3886 155.125 14.3039C155.165 14.2616 155.247 14.1769 155.287 14.0922C155.287 13.9228 155.45 13.7958 155.613 13.7958C155.776 13.7958 155.898 13.9652 155.898 14.1345C155.857 14.3886 155.735 14.6427 155.491 14.8121C155.247 14.9815 154.921 15.0661 154.636 14.9815C154.148 14.8544 153.781 14.3886 153.7 13.8381C153.537 12.9065 154.148 11.9326 155.043 11.6362C155.857 11.3821 156.834 11.7209 157.404 12.4831C158.381 13.7534 158.096 15.7437 157.2 16.8023C156.753 17.3528 156.101 17.8186 155.369 18.0727C156.101 18.3267 156.753 18.7925 157.2 19.343C158.055 20.4016 158.381 22.3495 157.404 23.6622C156.834 24.4245 155.857 24.7632 155.043 24.5091C154.148 24.2127 153.537 23.2388 153.7 22.3072C153.822 21.7567 154.188 21.2909 154.636 21.1639C154.921 21.0792 155.247 21.1639 155.532 21.3332C155.776 21.5026 155.898 21.7567 155.939 22.0108C155.939 22.1802 155.857 22.3495 155.654 22.3495C155.491 22.3495 155.328 22.2648 155.328 22.0531C155.328 21.9261 155.247 21.8414 155.165 21.8414C155.002 21.7144 154.88 21.7144 154.758 21.7144C154.514 21.799 154.31 22.0531 154.229 22.3919C154.107 22.9847 154.555 23.6622 155.165 23.874C155.776 24.0433 156.468 23.7893 156.875 23.2388C157.648 22.2225 157.404 20.6134 156.712 19.7241C156.02 18.8772 154.88 18.3691 153.578 18.3691C153.537 18.3691 153.537 18.3691 153.496 18.3691C153.334 18.3691 153.211 18.242 153.211 18.0727Z" fill="#B5B2A5"/>
<path d="M19.2977 18.0726H19.1727H19.2977ZM19.4605 17.7762L19.4037 17.6649L19.385 17.6744L19.3704 17.6896L19.4605 17.7762ZM23.1645 14.685L23.0744 14.5984L23.0395 14.6347V14.685H23.1645ZM23.6122 14.6427L23.7024 14.556L23.6962 14.5496L23.6891 14.5441L23.6122 14.6427ZM23.6529 15.1085L23.5515 15.0354L23.5451 15.0443L23.5403 15.0543L23.6529 15.1085ZM20.2746 18.0726L20.2097 17.9658L20.0318 18.0737L20.2107 18.1801L20.2746 18.0726ZM23.6529 21.2062L23.7582 21.1387L23.7516 21.1284L23.7431 21.1196L23.6529 21.2062ZM23.5715 21.6296L23.5138 21.5187L23.5068 21.5224L23.5003 21.5269L23.5715 21.6296ZM23.1645 21.5449L23.2772 21.4908L23.2722 21.4805L23.2654 21.4712L23.1645 21.5449ZM19.5012 18.3267L19.5589 18.2158L19.5508 18.2116L19.5422 18.2086L19.5012 18.3267ZM21.0886 12.1443L20.9983 12.0574L20.9925 12.0644L21.0886 12.1443ZM30.0841 18.0303H29.9591H30.0841ZM29.7584 18.369V18.244V18.369ZM21.3329 24.2974V24.4224V24.2974ZM21.0886 24.1704L21.2013 24.1162L21.1945 24.1021L21.1844 24.09L21.0886 24.1704ZM21.2922 12.8642L21.3949 12.793L21.3033 12.6606L21.1977 12.7823L21.2922 12.8642ZM13.1515 18.115L13.1206 17.9938L12.6642 18.1101L13.1182 18.2355L13.1515 18.115ZM21.2922 23.4928L21.1977 23.5747L21.3053 23.6987L21.3962 23.5621L21.2922 23.4928ZM27.764 18.0726L27.8022 18.1916L28.1804 18.0702L27.8008 17.9532L27.764 18.0726ZM29.7584 17.7338V17.8588V17.7338ZM130.784 17.7338V17.6088V17.7338ZM131.11 18.0726H130.985H131.11ZM29.7177 18.4114L29.6863 18.5323L29.7017 18.5364H29.7177V18.4114ZM32.4855 14.3886H32.3605H32.4855ZM33.0961 12.4407L32.9959 12.3658L32.9931 12.3699L33.0961 12.4407ZM35.4569 11.5938L35.4962 11.4751L35.4941 11.4745L35.4569 11.5938ZM36.8001 13.7957L36.9223 13.8228L36.9232 13.8173L36.8001 13.7957ZM35.8639 14.9391L35.8298 14.8188L35.8283 14.8193L35.8639 14.9391ZM34.6021 14.0922L34.7259 14.0723L34.7237 14.063L34.6021 14.0922ZM35.2127 14.0498H35.0877H35.2127ZM35.3755 14.2615L35.4467 14.1588L35.4146 14.1365H35.3755V14.2615ZM36.271 13.6687L36.3926 13.6979L36.3934 13.6939L36.271 13.6687ZM35.3348 12.1866L35.3758 12.0683L35.3682 12.0662L35.3348 12.1866ZM33.6252 12.8218L33.7247 12.8975L33.7257 12.8961L33.6252 12.8218ZM33.788 16.3365L33.6894 16.4133L33.6913 16.4156L33.788 16.3365ZM36.9222 17.6915V17.5665V17.6915ZM37.0036 17.6915V17.8165V17.6915ZM37.2885 18.0303H37.1635H37.2885ZM37.0036 18.369V18.494H37.0196L37.0351 18.49L37.0036 18.369ZM36.9222 18.369V18.244V18.369ZM33.788 19.7241L33.6912 19.645L33.6894 19.6473L33.788 19.7241ZM33.6252 23.2387L33.7258 23.1644L33.7247 23.1631L33.6252 23.2387ZM35.3348 23.8739L35.3014 23.7535L35.2992 23.7541L35.3348 23.8739ZM36.271 22.3918L36.1468 22.4068L36.147 22.4077L36.271 22.3918ZM35.3755 21.799L35.3042 21.6963L35.294 21.7034L35.2854 21.7124L35.3755 21.799ZM35.2127 22.0107L35.1 21.9566L35.0877 21.9823V22.0107H35.2127ZM34.6021 21.9684L34.4787 21.9486L34.4771 21.9584V21.9684H34.6021ZM35.9046 21.1215L35.8732 21.2425L35.9046 21.1215ZM36.8408 22.2648L36.7171 22.2831L36.7177 22.2863L36.8408 22.2648ZM35.4976 24.4668L35.5348 24.5861L35.5369 24.5854L35.4976 24.4668ZM33.1368 23.6199L33.2369 23.545L33.2359 23.5437L33.1368 23.6199ZM33.3403 19.3006L33.4358 19.3814L33.4373 19.3795L33.3403 19.3006ZM35.172 18.0303L35.2129 18.1484L35.5535 18.0303L35.2129 17.9122L35.172 18.0303ZM33.3403 16.7599L33.4374 16.681L33.4336 16.6767L33.3403 16.7599ZM166.888 14.6427L166.798 14.5561L166.888 14.6427ZM167.336 14.685L167.435 14.6079L167.426 14.5984L167.336 14.685ZM171.04 17.7762L171.106 17.6698L171.096 17.6649L171.04 17.7762ZM171.04 18.3267L170.991 18.211L170.983 18.2154L171.04 18.3267ZM167.376 21.545L167.481 21.6124L167.501 21.5816V21.545H167.376ZM166.888 21.2062L166.993 21.2736L166.997 21.2672L167 21.2603L166.888 21.2062ZM170.266 18.0726L170.33 18.1801L170.511 18.0726L170.33 17.9652L170.266 18.0726ZM166.888 15.1085L167 15.0543L166.986 15.0246L166.959 15.0058L166.888 15.1085ZM160.782 17.7339V17.8589V17.7339ZM168.964 12.1867L169.054 12.2733L169.068 12.2589L169.076 12.2408L168.964 12.1867ZM169.208 12.0596V12.1846V12.0596ZM169.452 12.1867L169.339 12.2408L169.346 12.2549L169.356 12.2669L169.452 12.1867ZM179.424 17.7339V17.6089V17.7339ZM179.465 18.3691V18.4941H179.481L179.497 18.4901L179.465 18.3691ZM169.411 24.1704L169.502 24.2572L169.507 24.2507L169.411 24.1704ZM160.742 18.3691V18.2441V18.3691ZM169.208 12.8642L169.302 12.7823L169.197 12.6606L169.105 12.7931L169.208 12.8642ZM162.777 18.0727L162.739 17.9535L162.367 18.071L162.738 18.1915L162.777 18.0727ZM169.249 23.4929L169.146 23.5647L169.238 23.6956L169.343 23.5748L169.249 23.4929ZM177.389 18.115L177.422 18.2355L177.881 18.109L177.419 17.9937L177.389 18.115ZM130.825 17.7339V17.8589V17.7339ZM160.742 17.7339V17.6089V17.7339ZM161.067 18.0727H161.192H161.067ZM160.742 18.4114V18.5364V18.4114ZM153.496 17.7339V17.6089H153.48L153.465 17.6129L153.496 17.7339ZM153.578 17.7339V17.6089V17.7339ZM156.712 16.3788L156.809 16.458L156.811 16.4556L156.712 16.3788ZM156.875 12.8642L156.774 12.9385L156.775 12.9399L156.875 12.8642ZM155.165 12.229L155.199 12.3495L155.201 12.3488L155.165 12.229ZM154.229 13.7111L154.353 13.6962L154.353 13.6952L154.229 13.7111ZM155.125 14.3039L155.196 14.4066L155.206 14.3995L155.215 14.3906L155.125 14.3039ZM155.287 14.0922L155.4 14.1463L155.412 14.1207V14.0922H155.287ZM155.898 14.1345L156.021 14.1543L156.023 14.1445V14.1345H155.898ZM154.636 14.9815L154.672 14.8616L154.668 14.8605L154.636 14.9815ZM153.7 13.8381L153.824 13.8198L153.823 13.8166L153.7 13.8381ZM155.043 11.6362L155.006 11.5168L155.004 11.5175L155.043 11.6362ZM157.404 12.4831L157.304 12.5579L157.305 12.5593L157.404 12.4831ZM157.2 16.8023L157.105 16.7216L157.103 16.7234L157.2 16.8023ZM155.369 18.0727L155.328 17.9546L154.987 18.0727L155.328 18.1908L155.369 18.0727ZM157.2 19.343L157.298 19.2645L157.297 19.2641L157.2 19.343ZM157.404 23.6622L157.504 23.7371L157.504 23.7369L157.404 23.6622ZM155.043 24.5091L155.004 24.6278L155.006 24.6285L155.043 24.5091ZM153.7 22.3072L153.578 22.2801L153.577 22.2857L153.7 22.3072ZM154.636 21.1639L154.67 21.2841L154.672 21.2837L154.636 21.1639ZM155.532 21.3332L155.603 21.2303L155.595 21.2258L155.532 21.3332ZM155.939 22.0108H156.064V22.0008L156.062 21.991L155.939 22.0108ZM155.654 22.3495V22.4745V22.3495ZM155.328 22.0531H155.203H155.328ZM155.165 21.8414L155.088 21.9399L155.122 21.9664H155.165V21.8414ZM154.758 21.7144V21.5894H154.737L154.717 21.5963L154.758 21.7144ZM154.229 22.3919L154.107 22.3627L154.107 22.3667L154.229 22.3919ZM155.165 23.874L155.124 23.9923L155.132 23.9944L155.165 23.874ZM156.875 23.2388L156.775 23.1631L156.774 23.1645L156.875 23.2388ZM156.712 19.7241L156.811 19.6473L156.809 19.645L156.712 19.7241ZM153.578 18.3691V18.2441V18.3691ZM153.496 18.3691V18.4941V18.3691ZM19.4227 18.0726C19.4227 18.0035 19.463 17.954 19.5506 17.8628L19.3704 17.6896C19.2952 17.7679 19.1727 17.8877 19.1727 18.0726H19.4227ZM19.5173 17.8876C20.6106 17.3296 21.5466 16.5586 22.208 15.9238C22.5391 15.6061 22.8025 15.3214 22.9835 15.113C23.074 15.0089 23.1442 14.9233 23.1923 14.8618C23.2162 14.8313 23.2353 14.8058 23.2489 14.7865C23.2555 14.7771 23.2619 14.7676 23.267 14.759C23.2695 14.7549 23.273 14.7489 23.2763 14.742C23.2779 14.7386 23.2804 14.733 23.2827 14.7261C23.2844 14.7212 23.2895 14.7055 23.2895 14.685H23.0395C23.0395 14.6651 23.0444 14.6504 23.0457 14.6466C23.0477 14.6408 23.0496 14.6365 23.0505 14.6347C23.0522 14.631 23.0535 14.629 23.053 14.6299C23.0522 14.6312 23.0496 14.6353 23.0443 14.6427C23.0342 14.6572 23.0179 14.679 22.9954 14.7078C22.9504 14.7653 22.883 14.8475 22.7947 14.9491C22.6183 15.1522 22.3602 15.4313 22.0349 15.7434C21.3837 16.3684 20.4677 17.1219 19.4037 17.6649L19.5173 17.8876ZM23.2546 14.7716C23.302 14.7223 23.3491 14.6981 23.3903 14.6924C23.4285 14.6871 23.4767 14.6954 23.5353 14.7412L23.6891 14.5441C23.585 14.4628 23.4703 14.4289 23.3559 14.4447C23.2445 14.4602 23.1491 14.5207 23.0744 14.5984L23.2546 14.7716ZM23.5221 14.7293C23.5693 14.7783 23.5942 14.8288 23.6002 14.8756C23.6059 14.9201 23.5961 14.9735 23.5515 15.0354L23.7543 15.1816C23.8319 15.074 23.8628 14.958 23.8482 14.8438C23.8338 14.7318 23.7773 14.634 23.7024 14.556L23.5221 14.7293ZM23.5403 15.0543C23.5439 15.0468 23.544 15.0484 23.5293 15.0683C23.5177 15.0839 23.5009 15.1057 23.4788 15.1333C23.4345 15.1883 23.3707 15.2647 23.2887 15.3582C23.1247 15.5451 22.889 15.7995 22.5938 16.0883C22.0028 16.6663 21.1759 17.3794 20.2097 17.9658L20.3394 18.1795C21.327 17.5802 22.1689 16.8536 22.7686 16.267C23.0686 15.9736 23.3086 15.7145 23.4766 15.523C23.5606 15.4273 23.6268 15.3482 23.6737 15.2898C23.6971 15.2606 23.7161 15.2362 23.7302 15.2171C23.7412 15.2023 23.7569 15.1807 23.7656 15.1626L23.5403 15.0543ZM20.2107 18.1801C22.1859 19.3543 23.4628 21.1887 23.5628 21.2928L23.7431 21.1196C23.7435 21.12 23.7382 21.1138 23.7221 21.0932C23.7079 21.075 23.6891 21.0506 23.6652 21.0195C23.6177 20.9579 23.5518 20.8728 23.4687 20.7693C23.3025 20.5623 23.0676 20.2819 22.7724 19.9668C22.1826 19.3372 21.3493 18.5661 20.3385 17.9652L20.2107 18.1801ZM23.5477 21.2736C23.5729 21.3129 23.5862 21.3681 23.5798 21.4179C23.5739 21.4643 23.5526 21.4986 23.5138 21.5187L23.6292 21.7405C23.7533 21.676 23.8134 21.5621 23.8278 21.4497C23.8418 21.3406 23.8144 21.2265 23.7582 21.1387L23.5477 21.2736ZM23.5003 21.5269C23.4639 21.5522 23.4138 21.5648 23.3699 21.5588C23.3305 21.5533 23.2978 21.5337 23.2772 21.4908L23.0518 21.5991C23.1126 21.7255 23.2223 21.7907 23.3356 21.8064C23.4443 21.8215 23.5571 21.7918 23.6428 21.7324L23.5003 21.5269ZM23.1645 21.5449C23.2654 21.4712 23.2654 21.4712 23.2654 21.4711C23.2654 21.4711 23.2653 21.4711 23.2653 21.471C23.2652 21.4709 23.2651 21.4708 23.265 21.4707C23.2648 21.4704 23.2645 21.4699 23.2641 21.4693C23.2632 21.4682 23.262 21.4666 23.2605 21.4645C23.2573 21.4602 23.2527 21.454 23.2466 21.4458C23.2344 21.4296 23.2164 21.4059 23.1928 21.3754C23.1456 21.3143 23.0761 21.2263 22.9861 21.1173C22.8063 20.8995 22.5445 20.5977 22.216 20.2614C21.5601 19.5896 20.6336 18.7749 19.5589 18.2158L19.4435 18.4376C20.4854 18.9795 21.3905 19.7739 22.0371 20.436C22.3599 20.7666 22.6171 21.063 22.7934 21.2765C22.8815 21.3832 22.9493 21.4692 22.995 21.5283C23.0179 21.5578 23.0351 21.5806 23.0467 21.596C23.0524 21.6036 23.0567 21.6094 23.0595 21.6132C23.061 21.6151 23.062 21.6166 23.0627 21.6175C23.063 21.6179 23.0632 21.6183 23.0634 21.6185C23.0635 21.6186 23.0635 21.6186 23.0636 21.6187C23.0636 21.6187 23.0636 21.6187 23.0636 21.6187C23.0636 21.6187 23.0636 21.6187 23.1645 21.5449ZM19.5422 18.2086C19.509 18.1971 19.4774 18.1723 19.4538 18.1407C19.4286 18.107 19.4227 18.0798 19.4227 18.0726H19.1727C19.1727 18.1502 19.2075 18.2288 19.2535 18.2904C19.3012 18.3541 19.3713 18.414 19.4602 18.4448L19.5422 18.2086ZM10.875 18.0726C10.875 18.0269 10.8981 17.9719 10.9419 17.9264C10.9859 17.8805 11.0367 17.8589 11.0756 17.8589V17.6089C10.9518 17.6089 10.8397 17.6719 10.7616 17.7531C10.6833 17.8346 10.625 17.949 10.625 18.0726H10.875ZM11.0756 17.8589C11.0723 17.8589 11.0813 17.8589 11.0814 17.8589C11.0849 17.8589 11.0896 17.8589 11.0957 17.8588C11.1077 17.8587 11.1247 17.8585 11.1465 17.8579C11.1901 17.8568 11.2529 17.8545 11.3334 17.8494C11.4943 17.8394 11.726 17.8187 12.0172 17.7762C12.5994 17.6911 13.4192 17.5185 14.3847 17.1686C16.3163 16.4684 18.8287 15.059 21.1848 12.2242L20.9925 12.0644C16.345 17.6561 11.0975 17.6089 11.0756 17.6089V17.8589ZM21.1788 12.2309C21.2471 12.1598 21.2981 12.1423 21.3329 12.1423V11.8923C21.2048 11.8923 21.093 11.9594 20.9985 12.0577L21.1788 12.2309ZM21.3329 12.1423C21.3676 12.1423 21.4186 12.1598 21.487 12.2309L21.6672 12.0577C21.5728 11.9594 21.461 11.8923 21.3329 11.8923V12.1423ZM21.487 12.2309C21.48 12.2236 21.4754 12.2166 21.4803 12.2234C21.4821 12.226 21.4849 12.23 21.489 12.2358C21.4972 12.2475 21.5083 12.2634 21.5236 12.2853C21.5538 12.3283 21.5973 12.3901 21.6537 12.468C21.7664 12.6239 21.9301 12.844 22.1395 13.1068C22.5581 13.6322 23.16 14.3291 23.9033 15.025C25.3855 16.4128 27.4506 17.8165 29.7584 17.8165V17.5665C27.5482 17.5665 25.543 16.2178 24.0742 14.8425C23.342 14.157 22.7483 13.4697 22.335 12.951C22.1284 12.6918 21.9671 12.4748 21.8563 12.3216C21.8009 12.2449 21.758 12.1842 21.7284 12.1419C21.7139 12.1211 21.7017 12.1037 21.6936 12.0921C21.6895 12.0862 21.6858 12.0811 21.6829 12.077C21.6815 12.0751 21.6799 12.0728 21.6782 12.0707C21.678 12.0703 21.6733 12.064 21.6672 12.0577L21.487 12.2309ZM29.7584 17.8165C29.8579 17.8165 29.9591 17.8931 29.9591 18.0303H30.2091C30.2091 17.744 29.9846 17.5665 29.7584 17.5665V17.8165ZM29.9591 18.0303C29.9591 18.146 29.8785 18.244 29.7584 18.244V18.494C30.0454 18.494 30.2091 18.2534 30.2091 18.0303H29.9591ZM29.7584 18.244C27.4488 18.244 25.3831 19.7027 23.9014 21.1485C23.1582 21.8737 22.5563 22.6012 22.1377 23.1526C21.9283 23.4284 21.7645 23.6604 21.6516 23.8265C21.5952 23.9095 21.5514 23.9762 21.5208 24.0237C21.4933 24.0665 21.4712 24.1021 21.4644 24.1162L21.6897 24.2245C21.6881 24.228 21.699 24.209 21.7312 24.1588C21.7604 24.1133 21.803 24.0484 21.8584 23.967C21.969 23.8043 22.1302 23.5758 22.3368 23.3038C22.75 22.7595 23.3438 22.0419 24.076 21.3274C25.5454 19.8937 27.55 18.494 29.7584 18.494V18.244ZM21.4644 24.1162C21.451 24.144 21.424 24.1724 21.3329 24.1724V24.4224C21.4859 24.4224 21.6217 24.366 21.6897 24.2245L21.4644 24.1162ZM21.3329 24.1724C21.3111 24.1724 21.278 24.1661 21.2479 24.1522C21.2167 24.1377 21.2044 24.1227 21.2013 24.1162L20.976 24.2245C21.0136 24.3027 21.0827 24.3512 21.143 24.3791C21.2045 24.4075 21.2732 24.4224 21.3329 24.4224V24.1724ZM21.1844 24.09C16.432 18.4213 11.1406 18.244 11.0349 18.244V18.494C11.0348 18.494 11.0403 18.4941 11.0526 18.4946C11.0642 18.4951 11.0807 18.4958 11.102 18.4971C11.1445 18.4996 11.2058 18.5041 11.2845 18.5117C11.442 18.5271 11.6688 18.5552 11.9541 18.6065C12.5245 18.7092 13.3282 18.9043 14.2763 19.2742C16.172 20.0137 18.647 21.4525 20.9929 24.2507L21.1844 24.09ZM11.0349 18.244C10.9458 18.244 10.875 18.1777 10.875 18.0726H10.625C10.625 18.3063 10.7985 18.494 11.0349 18.494V18.244ZM21.1977 12.7823C18.2055 16.2317 15.0955 17.4907 13.1206 17.9938L13.1824 18.2361C15.1965 17.723 18.3547 16.4412 21.3866 12.9461L21.1977 12.7823ZM13.1182 18.2355C15.0932 18.7806 18.2045 20.1241 21.1977 23.5747L21.3866 23.4109C18.3557 19.9169 15.1987 18.5503 13.1848 17.9945L13.1182 18.2355ZM21.3962 23.5621C21.7592 23.0166 22.5475 21.9336 23.6537 20.8564C24.7607 19.7783 26.1792 18.7128 27.8022 18.1916L27.7258 17.9536C26.0518 18.4911 24.6007 19.5852 23.4792 20.6773C22.3569 21.7703 21.5577 22.8681 21.1881 23.4236L21.3962 23.5621ZM27.8008 17.9532C26.1773 17.4527 24.7586 16.4288 23.6519 15.393C22.5459 14.358 21.7578 13.3173 21.3949 12.793L21.1894 12.9353C21.5592 13.4696 22.3586 14.5251 23.481 15.5755C24.6028 16.6253 26.0537 17.6763 27.7272 18.1921L27.8008 17.9532ZM29.5578 18.0726C29.5578 17.9569 29.6384 17.8588 29.7584 17.8588V17.6088C29.4715 17.6088 29.3078 17.8495 29.3078 18.0726H29.5578ZM29.7584 17.8588L130.784 17.8588V17.6088L29.7584 17.6088V17.8588ZM130.784 17.8588C130.883 17.8588 130.985 17.9354 130.985 18.0726H131.235C131.235 17.7863 131.01 17.6088 130.784 17.6088V17.8588ZM130.985 18.0726C130.985 18.1883 130.904 18.2864 130.784 18.2864V18.5364C131.071 18.5364 131.235 18.2957 131.235 18.0726H130.985ZM130.784 18.2864L29.7177 18.2864V18.5364L130.784 18.5364V18.2864ZM29.7492 18.2904C29.6288 18.2591 29.5578 18.1729 29.5578 18.0726H29.3078C29.3078 18.311 29.4811 18.479 29.6863 18.5323L29.7492 18.2904ZM32.6105 14.3886C32.6105 13.7363 32.8064 13.0834 33.1991 12.5114L32.9931 12.3699C32.5717 12.9836 32.3605 13.6858 32.3605 14.3886H32.6105ZM33.1962 12.5155C33.7378 11.7911 34.6616 11.4765 35.4197 11.7131L35.4941 11.4745C34.6241 11.2029 33.594 11.5659 32.996 12.3658L33.1962 12.5155ZM35.4176 11.7125C36.2569 11.9903 36.8286 12.9064 36.677 13.7742L36.9232 13.8173C37.0972 12.8219 36.4479 11.7901 35.4962 11.4751L35.4176 11.7125ZM36.6781 13.7687C36.5625 14.2896 36.2201 14.7081 35.8298 14.8188L35.898 15.0593C36.4032 14.916 36.7935 14.4029 36.9221 13.8228L36.6781 13.7687ZM35.8283 14.8193C35.5887 14.8905 35.302 14.8207 35.0804 14.667L34.9379 14.8724C35.2048 15.0575 35.5693 15.157 35.8995 15.0589L35.8283 14.8193ZM35.0804 14.667C34.8705 14.5214 34.7622 14.3014 34.7255 14.0724L34.4787 14.1119C34.5234 14.3911 34.6594 14.6792 34.9379 14.8724L35.0804 14.667ZM34.7237 14.063C34.7023 13.9742 34.7622 13.8784 34.887 13.8784V13.6284C34.6048 13.6284 34.4205 13.8713 34.4806 14.1214L34.7237 14.063ZM34.887 13.8784C34.949 13.8784 35.0007 13.8948 35.034 13.9208C35.0628 13.9433 35.0877 13.98 35.0877 14.0498H35.3377C35.3377 13.9079 35.2811 13.7964 35.1878 13.7237C35.099 13.6544 34.9879 13.6284 34.887 13.6284V13.8784ZM35.0877 14.0498C35.0877 14.2221 35.2035 14.3865 35.3755 14.3865V14.1365C35.379 14.1365 35.3715 14.1378 35.36 14.1238C35.3493 14.1108 35.3377 14.0866 35.3377 14.0498H35.0877ZM35.3042 14.3643C35.4389 14.4577 35.6046 14.5261 35.7828 14.4643L35.7009 14.2281C35.6349 14.251 35.5562 14.2348 35.4467 14.1588L35.3042 14.3643ZM35.7828 14.4643C36.079 14.3616 36.3044 14.0644 36.3925 13.6979L36.1494 13.6395C36.0747 13.9506 35.8931 14.1615 35.7009 14.2281L35.7828 14.4643ZM36.3934 13.6939C36.4625 13.3586 36.3692 13.0081 36.1829 12.7173C35.9963 12.4262 35.7101 12.1845 35.3757 12.0685L35.2938 12.3047C35.57 12.4005 35.813 12.6034 35.9724 12.8522C36.132 13.1013 36.2016 13.3859 36.1485 13.6435L36.3934 13.6939ZM35.3682 12.0662C34.7034 11.8817 33.9597 12.1592 33.5247 12.7475L33.7257 12.8961C34.1048 12.3835 34.7451 12.1528 35.3014 12.3071L35.3682 12.0662ZM33.5258 12.7461C33.1158 13.2849 32.9799 13.9743 33.0325 14.6367C33.0851 15.2987 33.3268 15.9473 33.6894 16.4132L33.8867 16.2597C33.5573 15.8364 33.3309 15.2357 33.2818 14.6169C33.2326 13.9983 33.3614 13.375 33.7247 12.8975L33.5258 12.7461ZM33.6913 16.4156C34.4105 17.2959 35.5882 17.8165 36.9222 17.8165V17.5665C35.6512 17.5665 34.5495 17.0708 33.8848 16.2574L33.6913 16.4156ZM36.9222 17.8165C36.9426 17.8165 36.9527 17.8165 36.9629 17.8165C36.9731 17.8165 36.9833 17.8165 37.0036 17.8165V17.5665C36.9833 17.5665 36.9731 17.5665 36.9629 17.5665C36.9527 17.5665 36.9426 17.5665 36.9222 17.5665V17.8165ZM37.0036 17.8165C37.0506 17.8165 37.087 17.8339 37.113 17.8638C37.1401 17.8947 37.1635 17.9481 37.1635 18.0303H37.4135C37.4135 17.9007 37.376 17.7847 37.3013 17.6992C37.2255 17.6126 37.1194 17.5665 37.0036 17.5665V17.8165ZM37.1635 18.0303C37.1635 18.1306 37.0926 18.2167 36.9722 18.2481L37.0351 18.49C37.2403 18.4366 37.4135 18.2687 37.4135 18.0303H37.1635ZM37.0036 18.244C36.9833 18.244 36.9731 18.244 36.9629 18.244C36.9527 18.244 36.9426 18.244 36.9222 18.244V18.494C36.9426 18.494 36.9527 18.494 36.9629 18.494C36.9731 18.494 36.9833 18.494 37.0036 18.494V18.244ZM36.9222 18.244C35.6296 18.244 34.4109 18.7642 33.6913 19.645L33.8848 19.8032C34.5491 18.9902 35.6912 18.494 36.9222 18.494V18.244ZM33.6894 19.6473C33.3268 20.1133 33.0851 20.7618 33.0325 21.4239C32.9799 22.0863 33.1158 22.7757 33.5258 23.3144L33.7247 23.1631C33.3614 22.6856 33.2326 22.0622 33.2818 21.4437C33.3309 20.8248 33.5573 20.2241 33.8867 19.8009L33.6894 19.6473ZM33.5247 23.3131C33.9598 23.9014 34.745 24.1796 35.3704 23.9937L35.2992 23.7541C34.7848 23.907 34.1048 23.6771 33.7257 23.1644L33.5247 23.3131ZM35.3682 23.9944C36.0449 23.8067 36.4834 23.0661 36.3949 22.376L36.147 22.4077C36.2213 22.9879 35.8458 23.6024 35.3014 23.7535L35.3682 23.9944ZM36.3951 22.3769C36.3483 21.9879 36.0694 21.6956 35.7828 21.5962L35.7009 21.8324C35.9027 21.9024 36.1122 22.1183 36.1469 22.4068L36.3951 22.3769ZM35.7828 21.5962C35.6046 21.5344 35.4389 21.6029 35.3042 21.6963L35.4467 21.9017C35.5562 21.8258 35.6349 21.8095 35.7009 21.8324L35.7828 21.5962ZM35.2854 21.7124C35.2476 21.7517 35.1509 21.8507 35.1 21.9566L35.3253 22.0649C35.3558 22.0014 35.422 21.931 35.4656 21.8856L35.2854 21.7124ZM35.0877 22.0107C35.0877 22.0949 34.9982 22.1822 34.887 22.1822V22.4322C35.1015 22.4322 35.3377 22.2653 35.3377 22.0107H35.0877ZM34.887 22.1822C34.8518 22.1822 34.8139 22.1642 34.7811 22.1231C34.7478 22.0816 34.7271 22.0245 34.7271 21.9684H34.4771C34.4771 22.0817 34.5175 22.1939 34.586 22.2794C34.6549 22.3655 34.7594 22.4322 34.887 22.4322V22.1822ZM34.7255 21.9882C34.7622 21.7592 34.8705 21.5392 35.0804 21.3936L34.9379 21.1882C34.6594 21.3813 34.5234 21.6694 34.4787 21.9486L34.7255 21.9882ZM35.0804 21.3936C35.2992 21.2418 35.5878 21.1682 35.8732 21.2425L35.9361 21.0005C35.5702 20.9053 35.2075 21.0012 34.9379 21.1882L35.0804 21.3936ZM35.8732 21.2425C36.3036 21.3544 36.6415 21.7717 36.7171 22.2831L36.9645 22.2465C36.8773 21.6569 36.4826 21.1426 35.9361 21.0005L35.8732 21.2425ZM36.7177 22.2863C36.8693 23.1542 36.2976 24.0703 35.4583 24.3481L35.5369 24.5854C36.4886 24.2704 37.1379 23.2386 36.9639 22.2433L36.7177 22.2863ZM35.4604 24.3474C34.7023 24.584 33.7785 24.2695 33.2369 23.545L33.0367 23.6947C33.6347 24.4947 34.6648 24.8576 35.5348 24.5861L35.4604 24.3474ZM33.2359 23.5437C32.7705 22.9385 32.6018 22.1561 32.661 21.3905C32.7204 20.6242 33.0072 19.888 33.4357 19.3814L33.2449 19.2199C32.7779 19.7719 32.4746 20.5601 32.4118 21.3712C32.3489 22.183 32.5262 23.0309 33.0377 23.6961L33.2359 23.5437ZM33.4373 19.3795C33.8703 18.8471 34.5021 18.3949 35.2129 18.1484L35.131 17.9122C34.3765 18.1738 33.7058 18.6532 33.2433 19.2218L33.4373 19.3795ZM35.2129 17.9122C34.5021 17.6657 33.8703 17.2134 33.4373 16.681L33.2433 16.8388C33.7058 17.4074 34.3765 17.8867 35.131 18.1484L35.2129 17.9122ZM33.4336 16.6767C32.9268 16.109 32.6105 15.2502 32.6105 14.3886H32.3605C32.3605 15.3054 32.6955 16.2252 33.2471 16.8432L33.4336 16.6767ZM166.891 14.8968C166.891 14.8551 166.91 14.7998 166.978 14.7293L166.798 14.5561C166.703 14.6549 166.641 14.769 166.641 14.8968H166.891ZM166.978 14.7293C167.007 14.699 167.047 14.6862 167.096 14.6925C167.147 14.6992 167.202 14.727 167.245 14.7716L167.426 14.5984C167.346 14.516 167.24 14.4591 167.128 14.4446C167.014 14.4298 166.891 14.4593 166.798 14.5561L166.978 14.7293ZM167.336 14.685C167.237 14.7617 167.237 14.7618 167.237 14.7618C167.237 14.7618 167.237 14.7619 167.237 14.7619C167.237 14.762 167.237 14.7621 167.237 14.7622C167.237 14.7625 167.238 14.763 167.238 14.7635C167.239 14.7646 167.24 14.7661 167.242 14.7681C167.245 14.7721 167.25 14.778 167.256 14.7856C167.268 14.8009 167.286 14.8233 167.31 14.8521C167.357 14.9096 167.427 14.9926 167.517 15.0956C167.697 15.3015 167.961 15.5872 168.292 15.9076C168.953 16.5475 169.889 17.3294 170.983 17.8876L171.096 17.6649C170.033 17.1221 169.117 16.3584 168.465 15.7279C168.14 15.4131 167.882 15.1325 167.705 14.9308C167.616 14.83 167.548 14.7489 167.503 14.6933C167.48 14.6655 167.463 14.644 167.451 14.6296C167.445 14.6224 167.441 14.617 167.438 14.6134C167.437 14.6116 167.436 14.6103 167.435 14.6094C167.435 14.609 167.435 14.6087 167.434 14.6085C167.434 14.6084 167.434 14.6084 167.434 14.6083C167.434 14.6083 167.434 14.6083 167.434 14.6083C167.434 14.6083 167.434 14.6083 167.336 14.685ZM170.973 17.8823C171.032 17.9188 171.067 17.9908 171.067 18.0674C171.067 18.145 171.033 18.1941 170.991 18.2113L171.088 18.4421C171.25 18.3746 171.317 18.2121 171.317 18.0674C171.317 17.9216 171.251 17.7607 171.106 17.6702L170.973 17.8823ZM170.983 18.2154C169.888 18.7743 168.961 19.5784 168.309 20.2455C167.983 20.5795 167.725 20.8803 167.548 21.1008C167.459 21.211 167.391 21.3016 167.344 21.3666C167.32 21.3989 167.302 21.4257 167.289 21.4458C167.282 21.4557 167.276 21.4654 167.272 21.474C167.269 21.4781 167.266 21.484 167.263 21.4906C167.262 21.4939 167.259 21.4992 167.257 21.5058C167.256 21.5102 167.251 21.5252 167.251 21.545H167.501C167.501 21.564 167.497 21.5782 167.496 21.5814C167.494 21.5869 167.492 21.5908 167.491 21.5924C167.49 21.5957 167.489 21.5973 167.49 21.5962C167.491 21.5945 167.493 21.59 167.498 21.582C167.509 21.5666 167.524 21.5434 167.547 21.5128C167.59 21.4519 167.656 21.3648 167.743 21.2574C167.915 21.0425 168.168 20.7478 168.488 20.4202C169.129 19.7639 170.034 18.9801 171.096 18.4381L170.983 18.2154ZM167.271 21.4775C167.252 21.5071 167.213 21.5338 167.162 21.5443C167.112 21.5549 167.067 21.5455 167.04 21.5269L166.898 21.7324C166.993 21.7985 167.112 21.8103 167.213 21.7891C167.315 21.7679 167.419 21.7099 167.481 21.6124L167.271 21.4775ZM167.04 21.5269C167.013 21.5079 166.986 21.4666 166.975 21.4102C166.964 21.354 166.974 21.3038 166.993 21.2736L166.783 21.1388C166.72 21.2356 166.71 21.3548 166.729 21.4574C166.749 21.5598 166.803 21.6667 166.898 21.7324L167.04 21.5269ZM167 21.2603C166.998 21.2649 167 21.2606 167.014 21.2401C167.026 21.2229 167.042 21.1992 167.064 21.1693C167.107 21.1095 167.17 21.0266 167.25 20.9253C167.411 20.7227 167.643 20.4476 167.935 20.1381C168.521 19.5187 169.346 18.7651 170.33 18.1801L170.202 17.9652C169.192 18.5659 168.348 19.3367 167.753 19.9664C167.456 20.2816 167.219 20.5622 167.054 20.7699C166.972 20.8737 166.907 20.9595 166.862 21.0225C166.839 21.0539 166.82 21.08 166.807 21.1001C166.796 21.1168 166.782 21.1369 166.775 21.1521L167 21.2603ZM170.33 17.9652C169.344 17.379 168.518 16.6663 167.932 16.0887C167.64 15.8001 167.408 15.5459 167.247 15.3591C167.167 15.2657 167.104 15.1894 167.061 15.1344C167.04 15.1068 167.023 15.085 167.012 15.0694C166.998 15.0498 166.997 15.0476 167 15.0543L166.775 15.1626C166.783 15.1799 166.798 15.2009 166.809 15.216C166.823 15.2351 166.842 15.2595 166.864 15.2887C166.91 15.3471 166.975 15.4264 167.058 15.5221C167.222 15.7138 167.459 15.973 167.757 16.2667C168.351 16.8536 169.194 17.5806 170.202 18.1801L170.33 17.9652ZM166.959 15.0058C166.903 14.9669 166.895 14.9504 166.894 14.9485C166.893 14.9467 166.891 14.9446 166.891 14.8968H166.641C166.641 14.9336 166.639 14.995 166.668 15.0568C166.698 15.1184 166.75 15.1653 166.817 15.2112L166.959 15.0058ZM160.582 18.0727C160.582 17.957 160.662 17.8589 160.782 17.8589V17.6089C160.495 17.6089 160.332 17.8496 160.332 18.0727H160.582ZM160.782 17.8589C163.09 17.8589 165.155 16.4552 166.637 15.0674C167.381 14.3714 167.983 13.6746 168.401 13.1492C168.611 12.8864 168.774 12.6663 168.887 12.5104C168.943 12.4325 168.987 12.3706 169.017 12.3277C169.032 12.3058 169.043 12.2899 169.052 12.2781C169.056 12.2724 169.059 12.2684 169.06 12.2658C169.065 12.259 169.061 12.266 169.054 12.2733L168.874 12.1001C168.867 12.1064 168.863 12.1127 168.863 12.113C168.861 12.1152 168.859 12.1174 168.858 12.1194C168.855 12.1234 168.851 12.1286 168.847 12.1345C168.839 12.1461 168.827 12.1635 168.812 12.1842C168.783 12.2266 168.74 12.2873 168.684 12.3639C168.574 12.5172 168.412 12.7341 168.206 12.9934C167.792 13.5121 167.199 14.1994 166.467 14.8849C164.998 16.2602 162.993 17.6089 160.782 17.6089V17.8589ZM169.076 12.2408C169.09 12.213 169.117 12.1846 169.208 12.1846V11.9346C169.055 11.9346 168.919 11.991 168.851 12.1325L169.076 12.2408ZM169.208 12.1846C169.23 12.1846 169.263 12.1909 169.293 12.2049C169.324 12.2193 169.336 12.2343 169.339 12.2408L169.565 12.1325C169.527 12.0543 169.458 12.0058 169.398 11.9779C169.336 11.9495 169.267 11.9346 169.208 11.9346V12.1846ZM169.356 12.2669C171.712 15.0804 174.214 16.4791 176.136 17.1739C177.096 17.5212 177.911 17.6925 178.489 17.7769C178.778 17.8191 179.009 17.8396 179.168 17.8496C179.248 17.8546 179.311 17.8569 179.354 17.858C179.376 17.8585 179.393 17.8588 179.404 17.8589C179.41 17.8589 179.415 17.8589 179.419 17.8589C179.42 17.8589 179.422 17.8589 179.423 17.8589C179.423 17.8589 179.424 17.8589 179.424 17.8589C179.424 17.8589 179.424 17.8589 179.424 17.8589V17.6089C179.403 17.6089 174.195 17.6562 169.548 12.1064L169.356 12.2669ZM179.424 17.8589C179.536 17.8589 179.625 17.9461 179.625 18.0303H179.875C179.875 17.7758 179.639 17.6089 179.424 17.6089V17.8589ZM179.625 18.0303C179.625 18.1307 179.554 18.2168 179.434 18.2481L179.497 18.4901C179.702 18.4367 179.875 18.2688 179.875 18.0303H179.625ZM179.465 18.2441C179.4 18.2441 174.068 18.4213 169.316 24.0901L169.507 24.2507C171.853 21.4527 174.338 20.0139 176.239 19.2743C177.19 18.9043 177.995 18.7092 178.563 18.6066C178.848 18.5553 179.073 18.5271 179.227 18.5118C179.383 18.4963 179.466 18.4941 179.465 18.4941V18.2441ZM169.321 24.0838C169.253 24.1549 169.202 24.1724 169.167 24.1724V24.4224C169.295 24.4224 169.407 24.3553 169.501 24.257L169.321 24.0838ZM169.167 24.1724C169.132 24.1724 169.081 24.1549 169.013 24.0838L168.833 24.257C168.927 24.3553 169.039 24.4224 169.167 24.4224V24.1724ZM169.013 24.0838C169.021 24.092 169.026 24.1003 169.021 24.0928C169.019 24.0902 169.016 24.0861 169.012 24.0801C169.004 24.0681 168.993 24.0513 168.978 24.0286C168.948 23.9838 168.904 23.9192 168.848 23.8378C168.735 23.675 168.572 23.445 168.362 23.1703C167.944 22.6211 167.342 21.8924 166.599 21.1646C165.117 19.7137 163.051 18.2441 160.742 18.2441V18.4941C162.95 18.4941 164.954 19.904 166.424 21.3432C167.156 22.0603 167.75 22.7793 168.163 23.3218C168.37 23.593 168.531 23.8198 168.642 23.9801C168.698 24.0602 168.741 24.1237 168.77 24.1679C168.785 24.1898 168.797 24.2077 168.805 24.2199C168.809 24.2261 168.813 24.2315 168.816 24.2357C168.817 24.2378 168.819 24.2402 168.821 24.2425C168.821 24.2427 168.826 24.2499 168.833 24.257L169.013 24.0838ZM160.742 18.2441C160.652 18.2441 160.582 18.1777 160.582 18.0727H160.332C160.332 18.3064 160.505 18.4941 160.742 18.4941V18.2441ZM169.105 12.7931C168.743 13.3168 167.944 14.3577 166.838 15.393C165.731 16.4292 164.322 17.4532 162.739 17.9535L162.814 18.1919C164.447 17.6759 165.887 16.6249 167.009 15.5756C168.131 14.5254 168.94 13.4702 169.311 12.9353L169.105 12.7931ZM162.738 18.1915C164.341 18.7126 165.749 19.778 166.857 20.8564C167.963 21.9339 168.762 23.0172 169.146 23.5647L169.351 23.421C168.962 22.8675 168.153 21.7701 167.031 20.6773C165.91 19.5856 164.469 18.4914 162.815 17.9538L162.738 18.1915ZM169.343 23.5748C172.336 20.1242 175.447 18.7806 177.422 18.2355L177.356 17.9945C175.342 18.5504 172.185 19.917 169.154 23.411L169.343 23.5748ZM177.419 17.9937C175.404 17.4906 172.294 16.2317 169.302 12.7823L169.113 12.9461C172.145 16.4413 175.304 17.7232 177.359 18.2363L177.419 17.9937ZM130.624 18.0727C130.624 17.957 130.705 17.8589 130.825 17.8589V17.6089C130.538 17.6089 130.374 17.8496 130.374 18.0727H130.624ZM130.825 17.8589L160.742 17.8589V17.6089L130.825 17.6089V17.8589ZM160.742 17.8589C160.841 17.8589 160.942 17.9355 160.942 18.0727H161.192C161.192 17.7864 160.968 17.6089 160.742 17.6089V17.8589ZM160.942 18.0727C160.942 18.1883 160.862 18.2864 160.742 18.2864V18.5364C161.029 18.5364 161.192 18.2957 161.192 18.0727H160.942ZM160.742 18.2864L130.784 18.2864V18.5364L160.742 18.5364V18.2864ZM130.815 18.2904C130.695 18.2591 130.624 18.173 130.624 18.0727H130.374C130.374 18.3111 130.547 18.479 130.752 18.5323L130.815 18.2904ZM153.336 18.0727C153.336 17.9723 153.407 17.8862 153.528 17.8549L153.465 17.6129C153.26 17.6663 153.086 17.8342 153.086 18.0727H153.336ZM153.496 17.8589C153.517 17.8589 153.527 17.8589 153.537 17.8589C153.547 17.8589 153.557 17.8589 153.578 17.8589V17.6089C153.557 17.6089 153.547 17.6089 153.537 17.6089C153.527 17.6089 153.517 17.6089 153.496 17.6089V17.8589ZM153.578 17.8589C154.87 17.8589 156.089 17.3387 156.809 16.4579L156.615 16.2998C155.951 17.1128 154.809 17.6089 153.578 17.6089V17.8589ZM156.811 16.4556C157.173 15.9896 157.415 15.3411 157.467 14.6791C157.52 14.0167 157.384 13.3273 156.974 12.7885L156.775 12.9399C157.139 13.4174 157.267 14.0407 157.218 14.6593C157.169 15.2781 156.943 15.8788 156.613 16.3021L156.811 16.4556ZM156.975 12.7899C156.54 12.2015 155.755 11.9233 155.13 12.1092L155.201 12.3488C155.715 12.1959 156.395 12.4259 156.774 12.9385L156.975 12.7899ZM155.132 12.1086C154.455 12.2963 154.017 13.0368 154.105 13.727L154.353 13.6952C154.279 13.115 154.654 12.5005 155.199 12.3495L155.132 12.1086ZM154.105 13.726C154.152 14.115 154.431 14.4073 154.717 14.5067L154.799 14.2705C154.597 14.2005 154.388 13.9847 154.353 13.6962L154.105 13.726ZM154.717 14.5067C154.895 14.5685 155.061 14.5001 155.196 14.4066L155.053 14.2012C154.944 14.2772 154.865 14.2934 154.799 14.2705L154.717 14.5067ZM155.215 14.3906C155.252 14.3512 155.349 14.2523 155.4 14.1463L155.175 14.0381C155.144 14.1015 155.078 14.1719 155.034 14.2173L155.215 14.3906ZM155.412 14.0922C155.412 14.008 155.502 13.9208 155.613 13.9208V13.6708C155.398 13.6708 155.162 13.8376 155.162 14.0922H155.412ZM155.613 13.9208C155.648 13.9208 155.686 13.9388 155.719 13.9798C155.752 14.0213 155.773 14.0785 155.773 14.1345H156.023C156.023 14.0212 155.983 13.909 155.914 13.8235C155.845 13.7375 155.741 13.6708 155.613 13.6708V13.9208ZM155.774 14.1148C155.738 14.3437 155.63 14.5638 155.42 14.7094L155.562 14.9148C155.841 14.7216 155.977 14.4335 156.021 14.1543L155.774 14.1148ZM155.42 14.7094C155.198 14.863 154.911 14.9329 154.672 14.8616L154.6 15.1013C154.931 15.1994 155.295 15.0999 155.562 14.9148L155.42 14.7094ZM154.668 14.8605C154.237 14.7485 153.899 14.3312 153.824 13.8198L153.576 13.8564C153.663 14.446 154.058 14.9603 154.605 15.1024L154.668 14.8605ZM153.823 13.8166C153.671 12.9487 154.243 12.0326 155.082 11.7548L155.004 11.5175C154.052 11.8325 153.403 12.8643 153.577 13.8596L153.823 13.8166ZM155.08 11.7555C155.838 11.5189 156.762 11.8335 157.304 12.5579L157.504 12.4082C156.906 11.6083 155.876 11.2453 155.006 11.5168L155.08 11.7555ZM157.305 12.5593C157.77 13.1645 157.939 13.9468 157.88 14.7124C157.82 15.4787 157.533 16.215 157.105 16.7216L157.296 16.883C157.763 16.331 158.066 15.5428 158.129 14.7317C158.192 13.92 158.014 13.072 157.503 12.4069L157.305 12.5593ZM157.103 16.7234C156.67 17.2558 156.039 17.7081 155.328 17.9546L155.41 18.1908C156.164 17.9291 156.835 17.4498 157.297 16.8812L157.103 16.7234ZM155.328 18.1908C156.039 18.4373 156.67 18.8895 157.103 19.4219L157.297 19.2641C156.835 18.6955 156.164 18.2162 155.41 17.9546L155.328 18.1908ZM157.103 19.4215C157.513 19.9295 157.8 20.6568 157.864 21.4179C157.929 22.1781 157.77 22.961 157.304 23.5876L157.504 23.7369C158.015 23.0508 158.182 22.2034 158.114 21.3968C158.046 20.5911 157.742 19.8151 157.298 19.2645L157.103 19.4215ZM157.304 23.5874C156.762 24.3119 155.838 24.6264 155.08 24.3898L155.006 24.6285C155.876 24.9 156.906 24.537 157.504 23.7371L157.304 23.5874ZM155.082 24.3905C154.243 24.1127 153.671 23.1966 153.823 22.3287L153.577 22.2857C153.403 23.281 154.052 24.3128 155.004 24.6278L155.082 24.3905ZM153.822 22.3343C153.938 21.8134 154.28 21.3949 154.67 21.2841L154.602 21.0436C154.097 21.1869 153.707 21.7 153.578 22.2801L153.822 22.3343ZM154.672 21.2837C154.91 21.2128 155.199 21.2809 155.468 21.4407L155.595 21.2258C155.294 21.0469 154.932 20.9456 154.6 21.044L154.672 21.2837ZM155.46 21.436C155.67 21.5815 155.778 21.8016 155.815 22.0305L156.062 21.991C156.017 21.7118 155.881 21.4237 155.603 21.2305L155.46 21.436ZM155.814 22.0108C155.814 22.0779 155.797 22.1345 155.771 22.1706C155.749 22.2014 155.715 22.2245 155.654 22.2245V22.4745C155.795 22.4745 155.904 22.413 155.974 22.3168C156.039 22.2258 156.064 22.113 156.064 22.0108H155.814ZM155.654 22.2245C155.592 22.2245 155.54 22.2081 155.507 22.1822C155.478 22.1597 155.453 22.1229 155.453 22.0531H155.203C155.203 22.195 155.26 22.3065 155.353 22.3793C155.442 22.4486 155.553 22.4745 155.654 22.4745V22.2245ZM155.453 22.0531C155.453 21.8808 155.337 21.7164 155.165 21.7164V21.9664C155.162 21.9664 155.169 21.9651 155.181 21.9791C155.191 21.9921 155.203 22.0164 155.203 22.0531H155.453ZM155.242 21.7428C155.148 21.6693 155.061 21.6291 154.976 21.6087C154.893 21.5889 154.818 21.5894 154.758 21.5894V21.8394C154.821 21.8394 154.867 21.8398 154.917 21.8518C154.965 21.8631 155.02 21.8865 155.088 21.9399L155.242 21.7428ZM154.717 21.5963C154.421 21.699 154.196 21.9962 154.108 22.3627L154.351 22.4211C154.425 22.11 154.607 21.8991 154.799 21.8325L154.717 21.5963ZM154.107 22.3667C154.038 22.702 154.131 23.0525 154.317 23.3433C154.504 23.6344 154.79 23.8761 155.124 23.9921L155.206 23.7559C154.93 23.6601 154.687 23.4572 154.528 23.2084C154.368 22.9593 154.298 22.6746 154.351 22.4171L154.107 22.3667ZM155.132 23.9944C155.797 24.1789 156.54 23.9014 156.975 23.3131L156.774 23.1645C156.395 23.6771 155.755 23.9078 155.199 23.7535L155.132 23.9944ZM156.974 23.3145C157.384 22.7757 157.52 22.0863 157.467 21.4239C157.415 20.7618 157.173 20.1133 156.811 19.6474L156.613 19.8009C156.943 20.2242 157.169 20.8248 157.218 21.4437C157.267 22.0623 157.139 22.6856 156.775 23.1631L156.974 23.3145ZM156.809 19.645C156.089 18.7647 154.912 18.2441 153.578 18.2441V18.4941C154.849 18.4941 155.951 18.9897 156.615 19.8032L156.809 19.645ZM153.578 18.2441C153.557 18.2441 153.547 18.2441 153.537 18.2441C153.527 18.2441 153.517 18.2441 153.496 18.2441V18.4941C153.517 18.4941 153.527 18.4941 153.537 18.4941C153.547 18.4941 153.557 18.4941 153.578 18.4941V18.2441ZM153.496 18.2441C153.407 18.2441 153.336 18.1777 153.336 18.0727H153.086C153.086 18.3064 153.26 18.4941 153.496 18.4941V18.2441Z" fill="#B5B2A5"/>
</g>
</svg>
