<svg width="79" height="32" viewBox="0 0 79 32" fill="none" xmlns="http://www.w3.org/2000/svg">
<mask id="mask0" mask-type="alpha" maskUnits="userSpaceOnUse" x="0" y="0" width="79" height="32">
<path d="M0.75 0.5H78.5V31.25H0.75V0.5Z" fill="#C4C4C4"/>
</mask>
<g mask="url(#mask0)">
<path d="M19.7977 17.6351C19.7977 17.5081 19.8791 17.4234 19.9605 17.3387C22.1178 16.2377 23.6645 14.2898 23.6645 14.2475C23.7866 14.1204 23.9494 14.0781 24.1122 14.2051C24.2343 14.3322 24.2751 14.5016 24.1529 14.6709C24.1122 14.7556 22.7283 16.4494 20.7746 17.6351C22.769 18.8208 24.0715 20.684 24.1529 20.7687C24.2344 20.8957 24.2343 21.1074 24.0715 21.1921C23.9494 21.2768 23.7459 21.2768 23.6645 21.1074C23.6645 21.1074 22.1178 18.9902 20.0012 17.8892C19.8791 17.8468 19.7977 17.7198 19.7977 17.6351Z" fill="#B5B2A5"/>
<path d="M11.25 17.6351C11.25 17.4657 11.4128 17.2963 11.5756 17.2963C11.6163 17.2963 16.9078 17.3387 21.5886 11.7068C21.6701 11.6221 21.7514 11.5797 21.8329 11.5797C21.9143 11.5797 21.9957 11.6221 22.0771 11.7068C22.1178 11.7491 25.7404 17.254 30.2584 17.254C30.4213 17.254 30.5841 17.381 30.5841 17.5928C30.5841 17.7621 30.462 17.9315 30.2584 17.9315C25.7404 17.9315 22.1178 23.6481 22.0771 23.7328C22.0364 23.8175 21.955 23.8599 21.8329 23.8599C21.7514 23.8599 21.6293 23.8175 21.5886 23.7328C16.8671 18.1009 11.6163 17.9315 11.5349 17.9315C11.3721 17.9315 11.25 17.8045 11.25 17.6351ZM21.7922 12.4266C18.7801 15.8989 15.646 17.1693 13.6515 17.6775C15.646 18.2279 18.7801 19.583 21.7922 23.0553C22.5248 21.9543 24.967 18.6937 28.264 17.6351C24.967 16.6188 22.5248 13.4853 21.7922 12.4266Z" fill="#B5B2A5"/>
<path d="M29.9328 17.6351C29.9328 17.4657 30.0549 17.254 30.2584 17.254L131.284 17.2963C131.447 17.2963 131.61 17.4234 131.61 17.6351C131.61 17.8045 131.487 17.9738 131.284 17.9738L30.2584 17.9315C29.7707 17.7612 29.9328 17.8045 29.9328 17.6351Z" fill="#B5B2A5"/>
<path d="M167.266 14.4592C167.266 14.3745 167.306 14.2898 167.388 14.2052C167.51 14.0781 167.713 14.1205 167.836 14.2475C167.836 14.2475 169.382 16.2377 171.54 17.3387C171.743 17.4657 171.743 17.8045 171.54 17.8892C169.382 18.9902 167.876 21.0651 167.876 21.1074C167.795 21.2345 167.591 21.2768 167.469 21.1921C167.347 21.1074 167.306 20.8957 167.388 20.7687C167.428 20.684 168.772 18.8208 170.766 17.6351C168.772 16.4495 167.428 14.7556 167.388 14.671C167.266 14.5863 167.266 14.5439 167.266 14.4592Z" fill="#B5B2A5"/>
<path d="M160.957 17.6351C160.957 17.4658 161.079 17.2964 161.282 17.2964C165.8 17.2964 169.423 11.7915 169.464 11.7492C169.504 11.6645 169.586 11.6221 169.708 11.6221C169.789 11.6221 169.911 11.6645 169.952 11.7492C174.633 17.3387 179.884 17.2964 179.924 17.2964C180.087 17.2964 180.25 17.4234 180.25 17.5928C180.25 17.7622 180.128 17.8892 179.965 17.9316C179.924 17.9316 174.633 18.1009 169.911 23.7329C169.83 23.8176 169.749 23.8599 169.667 23.8599C169.586 23.8599 169.504 23.8176 169.423 23.7329C169.382 23.6905 165.76 17.9316 161.242 17.9316C161.079 17.9316 160.957 17.8045 160.957 17.6351ZM169.708 12.4267C168.975 13.4853 166.492 16.6189 163.277 17.6351C166.533 18.6938 168.975 21.9544 169.749 23.0553C172.761 19.583 175.895 18.228 177.889 17.6775C175.854 17.1693 172.72 15.899 169.708 12.4267Z" fill="#B5B2A5"/>
<path d="M130.999 17.6351C130.999 17.4657 131.121 17.2964 131.325 17.2964L161.242 17.2964C161.404 17.2964 161.567 17.4234 161.567 17.6351C161.567 17.8045 161.445 17.9739 161.242 17.9739L131.284 17.9738C131.121 17.9315 130.999 17.8045 130.999 17.6351Z" fill="#B5B2A5"/>
<path d="M153.711 17.6351C153.711 17.4658 153.834 17.3387 153.996 17.2964C154.037 17.2964 154.037 17.2964 154.078 17.2964C155.34 17.2964 156.52 16.7882 157.212 15.9413C157.904 15.0521 158.148 13.4429 157.375 12.4267C156.968 11.8762 156.235 11.6221 155.665 11.7915C155.055 11.9609 154.648 12.6384 154.729 13.2736C154.77 13.6123 155.014 13.8664 155.258 13.9511C155.38 13.9934 155.502 13.9511 155.625 13.8664C155.665 13.8241 155.747 13.7394 155.787 13.6547C155.787 13.4853 155.95 13.3583 156.113 13.3583C156.276 13.3583 156.398 13.5276 156.398 13.697C156.357 13.9511 156.235 14.2052 155.991 14.3745C155.747 14.5439 155.421 14.6286 155.136 14.5439C154.648 14.4169 154.281 13.9511 154.2 13.4006C154.037 12.469 154.648 11.4951 155.543 11.1986C156.357 10.9446 157.334 11.2833 157.904 12.0456C158.881 13.3159 158.596 15.3061 157.7 16.3648C157.253 16.9153 156.601 17.3811 155.869 17.6351C156.601 17.8892 157.253 18.355 157.7 18.9055C158.555 19.9641 158.881 21.912 157.904 23.2247C157.334 23.9869 156.357 24.3257 155.543 24.0716C154.648 23.7752 154.037 22.8013 154.2 21.8697C154.322 21.3192 154.688 20.8534 155.136 20.7263C155.421 20.6416 155.747 20.7263 156.032 20.8957C156.276 21.0651 156.398 21.3192 156.439 21.5732C156.439 21.7426 156.357 21.912 156.154 21.912C155.991 21.912 155.828 21.8273 155.828 21.6156C155.828 21.4886 155.747 21.4039 155.665 21.4039C155.502 21.2768 155.38 21.2768 155.258 21.2768C155.014 21.3615 154.81 21.6156 154.729 21.9544C154.607 22.5472 155.055 23.2247 155.665 23.4364C156.276 23.6058 156.968 23.3517 157.375 22.8013C158.148 21.785 157.904 20.1758 157.212 19.2866C156.52 18.4397 155.38 17.9316 154.078 17.9316C154.037 17.9316 154.037 17.9316 153.996 17.9316C153.834 17.9316 153.711 17.8045 153.711 17.6351Z" fill="#B5B2A5"/>
<path d="M19.7977 17.6351H19.6727H19.7977ZM19.9605 17.3387L19.9037 17.2274L19.885 17.2369L19.8704 17.2521L19.9605 17.3387ZM23.6645 14.2475L23.5744 14.1609L23.5395 14.1971V14.2475H23.6645ZM24.1122 14.2051L24.2024 14.1185L24.1962 14.1121L24.1891 14.1066L24.1122 14.2051ZM24.1529 14.6709L24.0515 14.5978L24.0451 14.6068L24.0403 14.6168L24.1529 14.6709ZM20.7746 17.6351L20.7097 17.5282L20.5318 17.6362L20.7107 17.7426L20.7746 17.6351ZM24.1529 20.7687L24.2582 20.7012L24.2516 20.6909L24.2431 20.682L24.1529 20.7687ZM24.0715 21.1921L24.0138 21.0812L24.0068 21.0849L24.0003 21.0894L24.0715 21.1921ZM23.6645 21.1074L23.7772 21.0533L23.7722 21.0429L23.7654 21.0337L23.6645 21.1074ZM20.0012 17.8892L20.0589 17.7783L20.0508 17.7741L20.0422 17.7711L20.0012 17.8892ZM21.5886 11.7068L21.4983 11.6199L21.4925 11.6269L21.5886 11.7068ZM30.5841 17.5928H30.4591H30.5841ZM21.8329 23.8599V23.9849V23.8599ZM21.5886 23.7328L21.7013 23.6787L21.6945 23.6645L21.6844 23.6525L21.5886 23.7328ZM21.7922 12.4266L21.8949 12.3555L21.8033 12.2231L21.6977 12.3447L21.7922 12.4266ZM13.6515 17.6775L13.6206 17.5563L13.1642 17.6726L13.6182 17.7979L13.6515 17.6775ZM21.7922 23.0553L21.6977 23.1372L21.8053 23.2612L21.8962 23.1246L21.7922 23.0553ZM28.264 17.6351L28.3022 17.7541L28.6804 17.6327L28.3008 17.5157L28.264 17.6351ZM131.284 17.2963L131.284 17.4213H131.284V17.2963ZM131.61 17.6351H131.485H131.61ZM131.284 17.9738L131.284 18.0988H131.284V17.9738ZM37.5036 17.254V17.379V17.254ZM37.7885 17.5928H37.6635H37.7885ZM37.5036 17.9315V18.0565H37.5196L37.5351 18.0525L37.5036 17.9315ZM167.388 14.2052L167.298 14.1185L167.388 14.2052ZM167.836 14.2475L167.935 14.1704L167.926 14.1609L167.836 14.2475ZM171.54 17.3387L171.606 17.2323L171.596 17.2274L171.54 17.3387ZM171.54 17.8892L171.491 17.7734L171.483 17.7779L171.54 17.8892ZM167.876 21.1074L167.981 21.1749L168.001 21.1441V21.1074H167.876ZM167.388 20.7687L167.493 20.8361L167.497 20.8297L167.5 20.8228L167.388 20.7687ZM170.766 17.6351L170.83 17.7426L171.011 17.6351L170.83 17.5277L170.766 17.6351ZM167.388 14.671L167.5 14.6168L167.486 14.5871L167.459 14.5682L167.388 14.671ZM161.282 17.2964V17.4214V17.2964ZM169.464 11.7492L169.554 11.8358L169.568 11.8213L169.576 11.8033L169.464 11.7492ZM169.708 11.6221V11.7471V11.6221ZM169.952 11.7492L169.839 11.8033L169.846 11.8174L169.856 11.8294L169.952 11.7492ZM179.924 17.2964V17.1714V17.2964ZM179.965 17.9316V18.0566H179.981L179.997 18.0525L179.965 17.9316ZM169.911 23.7329L170.002 23.8197L170.007 23.8132L169.911 23.7329ZM161.242 17.9316V17.8066V17.9316ZM169.708 12.4267L169.802 12.3448L169.697 12.2231L169.605 12.3555L169.708 12.4267ZM163.277 17.6351L163.239 17.516L162.867 17.6335L163.238 17.754L163.277 17.6351ZM169.749 23.0553L169.646 23.1272L169.738 23.2581L169.843 23.1373L169.749 23.0553ZM177.889 17.6775L177.922 17.798L178.381 17.6714L177.919 17.5562L177.889 17.6775ZM131.325 17.2964V17.4214V17.2964ZM161.242 17.2964V17.1714V17.2964ZM161.567 17.6351H161.692H161.567ZM161.242 17.9739V18.0989V17.9739ZM153.996 17.2964V17.1714H153.98L153.965 17.1754L153.996 17.2964ZM154.078 17.2964V17.1714V17.2964ZM157.212 15.9413L157.309 16.0204L157.311 16.0181L157.212 15.9413ZM157.375 12.4267L157.274 12.501L157.275 12.5024L157.375 12.4267ZM155.665 11.7915L155.699 11.912L155.701 11.9113L155.665 11.7915ZM154.729 13.2736L154.853 13.2587L154.853 13.2577L154.729 13.2736ZM155.625 13.8664L155.696 13.9691L155.706 13.962L155.715 13.953L155.625 13.8664ZM155.787 13.6547L155.9 13.7088L155.912 13.6832V13.6547H155.787ZM156.398 13.697L156.521 13.7168L156.523 13.707V13.697H156.398ZM155.136 14.5439L155.172 14.424L155.168 14.423L155.136 14.5439ZM154.2 13.4006L154.324 13.3823L154.323 13.3791L154.2 13.4006ZM155.543 11.1986L155.506 11.0793L155.504 11.08L155.543 11.1986ZM157.904 12.0456L157.804 12.1204L157.805 12.1218L157.904 12.0456ZM157.7 16.3648L157.605 16.284L157.603 16.2859L157.7 16.3648ZM155.869 17.6351L155.828 17.517L155.487 17.6351L155.828 17.7532L155.869 17.6351ZM157.7 18.9055L157.798 18.827L157.797 18.8266L157.7 18.9055ZM157.904 23.2247L158.004 23.2996L158.004 23.2993L157.904 23.2247ZM155.543 24.0716L155.504 24.1903L155.506 24.1909L155.543 24.0716ZM154.2 21.8697L154.078 21.8426L154.077 21.8481L154.2 21.8697ZM155.136 20.7263L155.17 20.8466L155.172 20.8462L155.136 20.7263ZM156.032 20.8957L156.103 20.7928L156.095 20.7883L156.032 20.8957ZM156.439 21.5732H156.564V21.5633L156.562 21.5535L156.439 21.5732ZM156.154 21.912V22.037V21.912ZM155.828 21.6156H155.703H155.828ZM155.665 21.4039L155.588 21.5024L155.622 21.5289H155.665V21.4039ZM155.258 21.2768V21.1518H155.237L155.217 21.1587L155.258 21.2768ZM154.729 21.9544L154.607 21.9251L154.607 21.9291L154.729 21.9544ZM155.665 23.4364L155.624 23.5548L155.632 23.5569L155.665 23.4364ZM157.375 22.8013L157.275 22.7256L157.274 22.7269L157.375 22.8013ZM157.212 19.2866L157.311 19.2098L157.309 19.2075L157.212 19.2866ZM154.078 17.9316V17.8066V17.9316ZM153.996 17.9316V18.0566V17.9316ZM19.9227 17.6351C19.9227 17.566 19.963 17.5164 20.0506 17.4253L19.8704 17.2521C19.7952 17.3303 19.6727 17.4501 19.6727 17.6351H19.9227ZM20.0173 17.45C21.1106 16.8921 22.0466 16.1211 22.708 15.4863C23.0391 15.1685 23.3025 14.8839 23.4835 14.6755C23.574 14.5713 23.6442 14.4858 23.6923 14.4243C23.7162 14.3937 23.7353 14.3683 23.7489 14.349C23.7555 14.3396 23.7619 14.3301 23.767 14.3215C23.7695 14.3174 23.773 14.3114 23.7763 14.3045C23.7779 14.3011 23.7804 14.2955 23.7827 14.2885C23.7844 14.2836 23.7895 14.268 23.7895 14.2475H23.5395C23.5395 14.2276 23.5444 14.2129 23.5457 14.2091C23.5477 14.2033 23.5496 14.199 23.5505 14.1972C23.5522 14.1935 23.5535 14.1915 23.553 14.1924C23.5522 14.1937 23.5496 14.1977 23.5443 14.2052C23.5342 14.2196 23.5179 14.2414 23.4954 14.2703C23.4504 14.3278 23.383 14.4099 23.2947 14.5116C23.1183 14.7147 22.8602 14.9938 22.5349 15.3059C21.8837 15.9309 20.9677 16.6843 19.9037 17.2274L20.0173 17.45ZM23.7546 14.3341C23.802 14.2848 23.8491 14.2606 23.8903 14.2548C23.9285 14.2495 23.9767 14.2579 24.0353 14.3037L24.1891 14.1066C24.085 14.0253 23.9703 13.9914 23.8559 14.0072C23.7445 14.0227 23.6491 14.0831 23.5744 14.1609L23.7546 14.3341ZM24.0221 14.2918C24.0693 14.3408 24.0942 14.3912 24.1002 14.438C24.1059 14.4826 24.0961 14.536 24.0515 14.5978L24.2543 14.744C24.3319 14.6365 24.3628 14.5205 24.3482 14.4063C24.3338 14.2943 24.2773 14.1965 24.2024 14.1185L24.0221 14.2918ZM24.0403 14.6168C24.0439 14.6093 24.044 14.6109 24.0293 14.6308C24.0177 14.6464 24.0009 14.6681 23.9788 14.6957C23.9345 14.7508 23.8707 14.8271 23.7887 14.9207C23.6247 15.1076 23.389 15.362 23.0938 15.6508C22.5028 16.2288 21.6759 16.9419 20.7097 17.5282L20.8394 17.742C21.827 17.1427 22.6689 16.416 23.2686 15.8295C23.5686 15.536 23.8086 15.277 23.9766 15.0855C24.0606 14.9898 24.1268 14.9106 24.1737 14.8522C24.1971 14.8231 24.2161 14.7986 24.2302 14.7796C24.2412 14.7647 24.2569 14.7432 24.2656 14.7251L24.0403 14.6168ZM20.7107 17.7426C22.6859 18.9168 23.9628 20.7512 24.0628 20.8553L24.2431 20.682C24.2435 20.6825 24.2382 20.6763 24.2221 20.6557C24.2079 20.6374 24.1891 20.6131 24.1652 20.582C24.1177 20.5204 24.0518 20.4353 23.9687 20.3318C23.8025 20.1248 23.5676 19.8444 23.2724 19.5293C22.6826 18.8997 21.8493 18.1286 20.8385 17.5277L20.7107 17.7426ZM24.0477 20.8361C24.0729 20.8754 24.0862 20.9306 24.0798 20.9804C24.0739 21.0268 24.0526 21.0611 24.0138 21.0812L24.1292 21.303C24.2533 21.2385 24.3134 21.1245 24.3278 21.0122C24.3418 20.9031 24.3144 20.789 24.2582 20.7012L24.0477 20.8361ZM24.0003 21.0894C23.9639 21.1147 23.9138 21.1273 23.8699 21.1212C23.8305 21.1158 23.7978 21.0962 23.7772 21.0533L23.5518 21.1616C23.6126 21.288 23.7223 21.3532 23.8356 21.3689C23.9443 21.3839 24.0571 21.3543 24.1428 21.2948L24.0003 21.0894ZM23.6645 21.1074C23.7654 21.0337 23.7654 21.0337 23.7654 21.0336C23.7654 21.0336 23.7653 21.0336 23.7653 21.0335C23.7652 21.0334 23.7651 21.0333 23.765 21.0331C23.7648 21.0328 23.7645 21.0324 23.7641 21.0318C23.7632 21.0307 23.762 21.0291 23.7605 21.0269C23.7573 21.0227 23.7527 21.0164 23.7466 21.0083C23.7344 20.9921 23.7164 20.9683 23.6928 20.9378C23.6456 20.8768 23.5761 20.7888 23.4861 20.6798C23.3063 20.462 23.0445 20.1602 22.716 19.8238C22.0601 19.1521 21.1336 18.3373 20.0589 17.7783L19.9435 18.0001C20.9854 18.542 21.8905 19.3363 22.5371 19.9985C22.8599 20.3291 23.1171 20.6255 23.2934 20.839C23.3815 20.9457 23.4493 21.0317 23.495 21.0908C23.5179 21.1203 23.5351 21.1431 23.5467 21.1584C23.5524 21.1661 23.5567 21.1719 23.5595 21.1757C23.561 21.1776 23.562 21.179 23.5627 21.1799C23.563 21.1804 23.5632 21.1807 23.5634 21.1809C23.5635 21.181 23.5635 21.1811 23.5636 21.1811C23.5636 21.1812 23.5636 21.1812 23.5636 21.1812C23.5636 21.1812 23.5636 21.1812 23.6645 21.1074ZM20.0422 17.7711C20.009 17.7596 19.9774 17.7348 19.9538 17.7032C19.9286 17.6695 19.9227 17.6423 19.9227 17.6351H19.6727C19.6727 17.7126 19.7075 17.7913 19.7535 17.8529C19.8012 17.9166 19.8713 17.9764 19.9602 18.0073L20.0422 17.7711ZM11.375 17.6351C11.375 17.5894 11.3981 17.5343 11.4419 17.4888C11.4859 17.443 11.5367 17.4213 11.5756 17.4213V17.1713C11.4518 17.1713 11.3397 17.2344 11.2616 17.3156C11.1833 17.3971 11.125 17.5115 11.125 17.6351H11.375ZM11.5756 17.4213C11.5723 17.4213 11.5813 17.4214 11.5814 17.4214C11.5849 17.4214 11.5896 17.4213 11.5957 17.4213C11.6077 17.4212 11.6247 17.421 11.6465 17.4204C11.6901 17.4193 11.7529 17.4169 11.8334 17.4119C11.9943 17.4019 12.226 17.3812 12.5172 17.3386C13.0994 17.2536 13.9192 17.081 14.8847 16.731C16.8163 16.0309 19.3287 14.6215 21.6848 11.7867L21.4925 11.6269C16.845 17.2186 11.5975 17.1713 11.5756 17.1713V17.4213ZM21.6788 11.7934C21.7471 11.7222 21.7981 11.7047 21.8329 11.7047V11.4547C21.7048 11.4547 21.593 11.5219 21.4985 11.6201L21.6788 11.7934ZM21.8329 11.7047C21.8676 11.7047 21.9186 11.7223 21.987 11.7934L22.1672 11.6201C22.0728 11.5219 21.961 11.4547 21.8329 11.4547V11.7047ZM21.987 11.7934C21.98 11.7861 21.9754 11.7791 21.9803 11.7859C21.9821 11.7885 21.9849 11.7925 21.989 11.7982C21.9972 11.81 22.0083 11.8259 22.0236 11.8478C22.0538 11.8907 22.0973 11.9526 22.1537 12.0305C22.2664 12.1864 22.4301 12.4065 22.6395 12.6693C23.0581 13.1946 23.66 13.8915 24.4033 14.5875C25.8855 15.9753 27.9506 17.379 30.2584 17.379V17.129C28.0482 17.129 26.043 15.7803 24.5742 14.405C23.842 13.7195 23.2483 13.0322 22.835 12.5135C22.6284 12.2542 22.4671 12.0373 22.3563 11.884C22.3009 11.8074 22.258 11.7466 22.2284 11.7043C22.2139 11.6835 22.2017 11.6662 22.1936 11.6546C22.1895 11.6487 22.1858 11.6435 22.1829 11.6395C22.1815 11.6375 22.1799 11.6353 22.1782 11.6331C22.178 11.6328 22.1733 11.6265 22.1672 11.6201L21.987 11.7934ZM30.2584 17.379C30.3579 17.379 30.4591 17.4556 30.4591 17.5928H30.7091C30.7091 17.3065 30.4846 17.129 30.2584 17.129V17.379ZM30.4591 17.5928C30.4591 17.7084 30.3785 17.8065 30.2584 17.8065V18.0565C30.5454 18.0565 30.7091 17.8158 30.7091 17.5928H30.4591ZM30.2584 17.8065C27.9488 17.8065 25.8831 19.2652 24.4014 20.711C23.6582 21.4362 23.0563 22.1637 22.6377 22.7151C22.4283 22.9908 22.2645 23.2229 22.1516 23.389C22.0952 23.472 22.0514 23.5387 22.0208 23.5862C21.9933 23.629 21.9712 23.6646 21.9644 23.6787L22.1897 23.787C22.1881 23.7905 22.199 23.7715 22.2312 23.7213C22.2604 23.6757 22.303 23.6109 22.3584 23.5295C22.469 23.3668 22.6302 23.1383 22.8368 22.8662C23.25 22.3219 23.8438 21.6044 24.576 20.8899C26.0454 19.4562 28.05 18.0565 30.2584 18.0565V17.8065ZM21.9644 23.6787C21.951 23.7065 21.924 23.7349 21.8329 23.7349V23.9849C21.9859 23.9849 22.1217 23.9285 22.1897 23.787L21.9644 23.6787ZM21.8329 23.7349C21.8111 23.7349 21.778 23.7286 21.7479 23.7146C21.7167 23.7002 21.7044 23.6852 21.7013 23.6787L21.476 23.787C21.5136 23.8652 21.5827 23.9137 21.643 23.9416C21.7045 23.97 21.7732 23.9849 21.8329 23.9849V23.7349ZM21.6844 23.6525C16.932 17.9838 11.6406 17.8065 11.5349 17.8065V18.0565C11.5348 18.0565 11.5403 18.0566 11.5526 18.0571C11.5642 18.0575 11.5807 18.0583 11.602 18.0596C11.6445 18.0621 11.7058 18.0666 11.7845 18.0742C11.942 18.0895 12.1688 18.1177 12.4541 18.169C13.0245 18.2716 13.8282 18.4668 14.7763 18.8367C16.672 19.5762 19.147 21.015 21.4929 23.8131L21.6844 23.6525ZM11.5349 17.8065C11.4458 17.8065 11.375 17.7402 11.375 17.6351H11.125C11.125 17.8688 11.2985 18.0565 11.5349 18.0565V17.8065ZM21.6977 12.3447C18.7055 15.7942 15.5955 17.0532 13.6206 17.5563L13.6824 17.7986C15.6965 17.2854 18.8547 16.0037 21.8866 12.5085L21.6977 12.3447ZM13.6182 17.7979C15.5932 18.3431 18.7045 19.6866 21.6977 23.1372L21.8866 22.9734C18.8557 19.4794 15.6987 18.1128 13.6848 17.557L13.6182 17.7979ZM21.8962 23.1246C22.2592 22.579 23.0475 21.4961 24.1537 20.4189C25.2607 19.3408 26.6792 18.2752 28.3022 17.7541L28.2258 17.5161C26.5518 18.0536 25.1007 19.1477 23.9792 20.2398C22.8569 21.3327 22.0577 22.4306 21.6881 22.9861L21.8962 23.1246ZM28.3008 17.5157C26.6773 17.0152 25.2586 15.9912 24.1519 14.9555C23.0459 13.9204 22.2578 12.8798 21.8949 12.3555L21.6894 12.4978C22.0592 13.0321 22.8586 14.0876 23.981 15.138C25.1028 16.1878 26.5537 17.2387 28.2272 17.7546L28.3008 17.5157ZM30.0578 17.6351C30.0578 17.5775 30.0795 17.5087 30.1191 17.4564C30.1572 17.4058 30.2046 17.379 30.2584 17.379V17.129C30.1087 17.129 29.9933 17.208 29.9196 17.3057C29.8472 17.4015 29.8078 17.5232 29.8078 17.6351H30.0578ZM30.2584 17.379L131.284 17.4213L131.284 17.1713L30.2585 17.129L30.2584 17.379ZM131.284 17.4213C131.383 17.4213 131.485 17.4979 131.485 17.6351H131.735C131.735 17.3488 131.51 17.1713 131.284 17.1713V17.4213ZM131.485 17.6351C131.485 17.7508 131.404 17.8488 131.284 17.8488V18.0988C131.571 18.0988 131.735 17.8582 131.735 17.6351H131.485ZM131.284 17.8488L30.2585 17.8065L30.2584 18.0565L131.284 18.0988L131.284 17.8488ZM30.2996 17.8135C30.1768 17.7706 30.0994 17.7427 30.0504 17.722C30.0259 17.7116 30.0128 17.7049 30.0063 17.7009C29.9988 17.6963 30.0081 17.7003 30.0177 17.7151C30.0456 17.7583 30.0215 17.8046 30.0335 17.7689C30.0416 17.7449 30.0578 17.6993 30.0578 17.6351H29.8078C29.8078 17.6555 29.8037 17.668 29.7967 17.6889C29.7936 17.698 29.7594 17.776 29.8077 17.8508C29.8275 17.8815 29.8547 17.9012 29.8758 17.9142C29.898 17.9277 29.9243 17.9401 29.9532 17.9523C30.0109 17.9767 30.0962 18.0073 30.2172 18.0495L30.2996 17.8135ZM37.4222 17.379C37.4426 17.379 37.4527 17.379 37.4629 17.379C37.4731 17.379 37.4833 17.379 37.5036 17.379V17.129C37.4833 17.129 37.4731 17.129 37.4629 17.129C37.4527 17.129 37.4426 17.129 37.4222 17.129V17.379ZM37.5036 17.379C37.5506 17.379 37.587 17.3964 37.613 17.4262C37.6401 17.4572 37.6635 17.5106 37.6635 17.5928H37.9135C37.9135 17.4632 37.876 17.3472 37.8013 17.2617C37.7255 17.1751 37.6194 17.129 37.5036 17.129V17.379ZM37.6635 17.5928C37.6635 17.6931 37.5926 17.7792 37.4722 17.8105L37.5351 18.0525C37.7403 17.9991 37.9135 17.8312 37.9135 17.5928H37.6635ZM37.5036 17.8065C37.4833 17.8065 37.4731 17.8065 37.4629 17.8065C37.4527 17.8065 37.4426 17.8065 37.4222 17.8065V18.0565C37.4426 18.0565 37.4527 18.0565 37.4629 18.0565C37.4731 18.0565 37.4833 18.0565 37.5036 18.0565V17.8065ZM167.391 14.4592C167.391 14.4176 167.41 14.3623 167.478 14.2918L167.298 14.1185C167.203 14.2174 167.141 14.3315 167.141 14.4592H167.391ZM167.478 14.2918C167.507 14.2615 167.547 14.2487 167.596 14.255C167.647 14.2616 167.702 14.2895 167.745 14.3341L167.926 14.1609C167.846 14.0785 167.74 14.0216 167.628 14.0071C167.514 13.9923 167.391 14.0218 167.298 14.1185L167.478 14.2918ZM167.836 14.2475C167.737 14.3242 167.737 14.3242 167.737 14.3243C167.737 14.3243 167.737 14.3243 167.737 14.3244C167.737 14.3245 167.737 14.3246 167.737 14.3247C167.737 14.325 167.738 14.3254 167.738 14.326C167.739 14.327 167.74 14.3286 167.742 14.3306C167.745 14.3346 167.75 14.3405 167.756 14.3481C167.768 14.3634 167.786 14.3858 167.81 14.4145C167.857 14.4721 167.927 14.5551 168.017 14.6581C168.197 14.864 168.461 15.1497 168.792 15.4701C169.453 16.11 170.389 16.8918 171.483 17.45L171.596 17.2274C170.533 16.6846 169.617 15.9209 168.965 15.2904C168.64 14.9756 168.382 14.6949 168.205 14.4933C168.116 14.3924 168.048 14.3114 168.003 14.2558C167.98 14.228 167.963 14.2065 167.951 14.1921C167.945 14.1849 167.941 14.1795 167.938 14.1759C167.937 14.1741 167.936 14.1728 167.935 14.1719C167.935 14.1715 167.935 14.1712 167.934 14.171C167.934 14.1709 167.934 14.1708 167.934 14.1708C167.934 14.1708 167.934 14.1708 167.934 14.1708C167.934 14.1708 167.934 14.1708 167.836 14.2475ZM171.473 17.4447C171.532 17.4812 171.567 17.5532 171.567 17.6298C171.567 17.7074 171.533 17.7566 171.491 17.7738L171.588 18.0046C171.75 17.9371 171.817 17.7745 171.817 17.6298C171.817 17.4841 171.751 17.3232 171.606 17.2327L171.473 17.4447ZM171.483 17.7779C170.388 18.3368 169.461 19.1409 168.809 19.808C168.483 20.1419 168.225 20.4427 168.048 20.6633C167.959 20.7735 167.891 20.864 167.844 20.929C167.82 20.9614 167.802 20.9882 167.789 21.0083C167.782 21.0182 167.776 21.0279 167.772 21.0365C167.769 21.0406 167.766 21.0465 167.763 21.0531C167.762 21.0563 167.759 21.0617 167.757 21.0682C167.756 21.0727 167.751 21.0877 167.751 21.1074H168.001C168.001 21.1265 167.997 21.1407 167.996 21.1439C167.994 21.1493 167.992 21.1532 167.991 21.1549C167.99 21.1582 167.989 21.1598 167.99 21.1587C167.991 21.157 167.993 21.1524 167.998 21.1445C168.009 21.1291 168.024 21.1059 168.047 21.0753C168.09 21.0144 168.156 20.9273 168.243 20.8198C168.415 20.605 168.668 20.3103 168.988 19.9826C169.629 19.3264 170.534 18.5426 171.596 18.0005L171.483 17.7779ZM167.771 21.04C167.752 21.0695 167.713 21.0963 167.662 21.1068C167.612 21.1174 167.567 21.108 167.54 21.0894L167.398 21.2948C167.493 21.361 167.612 21.3727 167.713 21.3516C167.815 21.3303 167.919 21.2724 167.981 21.1749L167.771 21.04ZM167.54 21.0894C167.513 21.0704 167.486 21.029 167.475 20.9727C167.464 20.9165 167.474 20.8663 167.493 20.8361L167.283 20.7012C167.22 20.7981 167.21 20.9173 167.229 21.0199C167.249 21.1223 167.303 21.2292 167.398 21.2948L167.54 21.0894ZM167.5 20.8228C167.498 20.8274 167.5 20.823 167.514 20.8025C167.526 20.7854 167.542 20.7617 167.564 20.7317C167.607 20.672 167.67 20.5891 167.75 20.4878C167.911 20.2852 168.143 20.0101 168.435 19.7006C169.021 19.0811 169.846 18.3275 170.83 17.7426L170.702 17.5277C169.692 18.1284 168.848 18.8992 168.253 19.5289C167.956 19.8441 167.719 20.1247 167.554 20.3323C167.472 20.4362 167.407 20.522 167.362 20.5849C167.339 20.6164 167.32 20.6425 167.307 20.6626C167.296 20.6792 167.282 20.6994 167.275 20.7145L167.5 20.8228ZM170.83 17.5277C169.844 16.9415 169.018 16.2288 168.432 15.6512C168.14 15.3626 167.908 15.1084 167.747 14.9216C167.667 14.8281 167.604 14.7519 167.561 14.6968C167.54 14.6693 167.523 14.6475 167.512 14.6319C167.498 14.6123 167.497 14.6101 167.5 14.6168L167.275 14.7251C167.283 14.7424 167.298 14.7634 167.309 14.7785C167.323 14.7975 167.342 14.822 167.364 14.8512C167.41 14.9096 167.475 14.9888 167.558 15.0846C167.722 15.2763 167.959 15.5355 168.257 15.8292C168.851 16.4161 169.694 17.1431 170.702 17.7426L170.83 17.5277ZM167.459 14.5682C167.403 14.5294 167.395 14.5129 167.394 14.5109C167.393 14.5092 167.391 14.507 167.391 14.4592H167.141C167.141 14.4961 167.139 14.5575 167.168 14.6192C167.198 14.6808 167.25 14.7278 167.317 14.7737L167.459 14.5682ZM161.082 17.6351C161.082 17.5195 161.162 17.4214 161.282 17.4214V17.1714C160.995 17.1714 160.832 17.4121 160.832 17.6351H161.082ZM161.282 17.4214C163.59 17.4214 165.655 16.0176 167.137 14.6299C167.881 13.9339 168.483 13.237 168.901 12.7117C169.111 12.4489 169.274 12.2288 169.387 12.0729C169.443 11.995 169.487 11.9331 169.517 11.8901C169.532 11.8683 169.543 11.8524 169.552 11.8406C169.556 11.8348 169.559 11.8309 169.56 11.8283C169.565 11.8215 169.561 11.8285 169.554 11.8358L169.374 11.6625C169.367 11.6689 169.363 11.6752 169.363 11.6755C169.361 11.6777 169.359 11.6799 169.358 11.6819C169.355 11.6859 169.351 11.6911 169.347 11.697C169.339 11.7085 169.327 11.7259 169.312 11.7467C169.283 11.789 169.24 11.8498 169.184 11.9264C169.074 12.0797 168.912 12.2966 168.706 12.5559C168.292 13.0746 167.699 13.7619 166.967 14.4474C165.498 15.8227 163.493 17.1714 161.282 17.1714V17.4214ZM169.576 11.8033C169.59 11.7755 169.617 11.7471 169.708 11.7471V11.4971C169.555 11.4971 169.419 11.5535 169.351 11.695L169.576 11.8033ZM169.708 11.7471C169.73 11.7471 169.763 11.7534 169.793 11.7673C169.824 11.7818 169.836 11.7968 169.839 11.8033L170.065 11.695C170.027 11.6168 169.958 11.5683 169.898 11.5404C169.836 11.512 169.767 11.4971 169.708 11.4971V11.7471ZM169.856 11.8294C172.212 14.6429 174.714 16.0416 176.636 16.7364C177.596 17.0837 178.411 17.2549 178.989 17.3394C179.278 17.3816 179.509 17.4021 179.668 17.412C179.748 17.417 179.811 17.4194 179.854 17.4205C179.876 17.421 179.893 17.4212 179.904 17.4213C179.91 17.4214 179.915 17.4214 179.919 17.4214C179.92 17.4214 179.922 17.4214 179.923 17.4214C179.923 17.4214 179.924 17.4214 179.924 17.4214C179.924 17.4214 179.924 17.4214 179.924 17.4214V17.1714C179.903 17.1714 174.695 17.2187 170.048 11.6689L169.856 11.8294ZM179.924 17.4214C180.036 17.4214 180.125 17.5086 180.125 17.5928H180.375C180.375 17.3382 180.139 17.1714 179.924 17.1714V17.4214ZM180.125 17.5928C180.125 17.6931 180.054 17.7793 179.934 17.8106L179.997 18.0525C180.202 17.9992 180.375 17.8312 180.375 17.5928H180.125ZM179.965 17.8066C179.9 17.8066 174.568 17.9837 169.816 23.6526L170.007 23.8132C172.353 21.0151 174.838 19.5763 176.739 18.8367C177.69 18.4668 178.495 18.2717 179.063 18.169C179.348 18.1177 179.573 18.0896 179.727 18.0742C179.883 18.0588 179.966 18.0566 179.965 18.0566V17.8066ZM169.821 23.6462C169.753 23.7174 169.702 23.7349 169.667 23.7349V23.9849C169.795 23.9849 169.907 23.9177 170.001 23.8195L169.821 23.6462ZM169.667 23.7349C169.632 23.7349 169.581 23.7174 169.513 23.6462L169.333 23.8195C169.427 23.9177 169.539 23.9849 169.667 23.9849V23.7349ZM169.513 23.6462C169.521 23.6545 169.526 23.6628 169.521 23.6553C169.519 23.6527 169.516 23.6486 169.512 23.6426C169.504 23.6306 169.493 23.6137 169.478 23.5911C169.448 23.5463 169.404 23.4817 169.348 23.4003C169.235 23.2375 169.072 23.0075 168.862 22.7328C168.444 22.1836 167.842 21.4549 167.099 20.727C165.617 19.2762 163.551 17.8066 161.242 17.8066V18.0566C163.45 18.0566 165.454 19.4664 166.924 20.9056C167.656 21.6228 168.25 22.3418 168.663 22.8843C168.87 23.1555 169.031 23.3823 169.142 23.5426C169.198 23.6227 169.241 23.6862 169.27 23.7304C169.285 23.7523 169.297 23.7701 169.305 23.7824C169.309 23.7885 169.313 23.794 169.316 23.7982C169.317 23.8003 169.319 23.8027 169.321 23.805C169.321 23.8052 169.326 23.8124 169.333 23.8195L169.513 23.6462ZM161.242 17.8066C161.152 17.8066 161.082 17.7402 161.082 17.6351H160.832C160.832 17.8689 161.005 18.0566 161.242 18.0566V17.8066ZM169.605 12.3555C169.243 12.8793 168.444 13.9202 167.338 14.9555C166.231 15.9917 164.822 17.0156 163.239 17.516L163.314 17.7543C164.947 17.2384 166.387 16.1874 167.509 15.1381C168.631 14.0879 169.44 13.0327 169.811 12.4978L169.605 12.3555ZM163.238 17.754C164.841 18.275 166.249 19.3405 167.357 20.4189C168.463 21.4963 169.262 22.5797 169.646 23.1272L169.851 22.9835C169.462 22.43 168.653 21.3326 167.531 20.2398C166.41 19.148 164.969 18.0539 163.315 17.5163L163.238 17.754ZM169.843 23.1373C172.836 19.6866 175.947 18.3431 177.922 17.798L177.856 17.557C175.842 18.1129 172.685 19.4794 169.654 22.9734L169.843 23.1373ZM177.919 17.5562C175.904 17.0531 172.794 15.7942 169.802 12.3448L169.613 12.5086C172.645 16.0038 175.804 17.2856 177.859 17.7988L177.919 17.5562ZM131.124 17.6351C131.124 17.5194 131.205 17.4214 131.325 17.4214V17.1714C131.038 17.1714 130.874 17.412 130.874 17.6351H131.124ZM131.325 17.4214L161.242 17.4214V17.1714L131.325 17.1714V17.4214ZM161.242 17.4214C161.341 17.4214 161.442 17.498 161.442 17.6351H161.692C161.692 17.3488 161.468 17.1714 161.242 17.1714V17.4214ZM161.442 17.6351C161.442 17.7508 161.362 17.8489 161.242 17.8489V18.0989C161.529 18.0989 161.692 17.8582 161.692 17.6351H161.442ZM161.242 17.8489L131.284 17.8488V18.0988L161.242 18.0989V17.8489ZM131.315 17.8529C131.195 17.8215 131.124 17.7354 131.124 17.6351H130.874C130.874 17.8736 131.047 18.0415 131.252 18.0948L131.315 17.8529ZM153.836 17.6351C153.836 17.5348 153.907 17.4487 154.028 17.4173L153.965 17.1754C153.76 17.2288 153.586 17.3967 153.586 17.6351H153.836ZM153.996 17.4214C154.017 17.4214 154.027 17.4214 154.037 17.4214C154.047 17.4214 154.057 17.4214 154.078 17.4214V17.1714C154.057 17.1714 154.047 17.1714 154.037 17.1714C154.027 17.1714 154.017 17.1714 153.996 17.1714V17.4214ZM154.078 17.4214C155.37 17.4214 156.589 16.9012 157.309 16.0204L157.115 15.8622C156.451 16.6752 155.309 17.1714 154.078 17.1714V17.4214ZM157.311 16.0181C157.673 15.5521 157.915 14.9036 157.967 14.2415C158.02 13.5791 157.884 12.8898 157.474 12.351L157.275 12.5024C157.639 12.9799 157.767 13.6032 157.718 14.2217C157.669 14.8406 157.443 15.4413 157.113 15.8646L157.311 16.0181ZM157.475 12.3523C157.04 11.764 156.255 11.4858 155.63 11.6717L155.701 11.9113C156.215 11.7584 156.895 11.9884 157.274 12.501L157.475 12.3523ZM155.632 11.671C154.955 11.8588 154.517 12.5993 154.605 13.2895L154.853 13.2577C154.779 12.6775 155.154 12.063 155.699 11.9119L155.632 11.671ZM154.605 13.2885C154.652 13.6775 154.931 13.9698 155.217 14.0692L155.299 13.833C155.097 13.763 154.888 13.5471 154.853 13.2587L154.605 13.2885ZM155.217 14.0692C155.395 14.131 155.561 14.0625 155.696 13.9691L155.553 13.7637C155.444 13.8397 155.365 13.8559 155.299 13.833L155.217 14.0692ZM155.715 13.953C155.752 13.9137 155.849 13.8148 155.9 13.7088L155.675 13.6005C155.644 13.664 155.578 13.7344 155.534 13.7798L155.715 13.953ZM155.912 13.6547C155.912 13.5705 156.002 13.4833 156.113 13.4833V13.2333C155.898 13.2333 155.662 13.4001 155.662 13.6547H155.912ZM156.113 13.4833C156.148 13.4833 156.186 13.5013 156.219 13.5423C156.252 13.5838 156.273 13.6409 156.273 13.697H156.523C156.523 13.5837 156.483 13.4715 156.414 13.386C156.345 13.2999 156.241 13.2333 156.113 13.2333V13.4833ZM156.274 13.6772C156.238 13.9062 156.13 14.1262 155.92 14.2718L156.062 14.4773C156.341 14.2841 156.477 13.996 156.521 13.7168L156.274 13.6772ZM155.92 14.2718C155.698 14.4255 155.411 14.4953 155.172 14.4241L155.1 14.6637C155.431 14.7619 155.795 14.6623 156.062 14.4773L155.92 14.2718ZM155.168 14.423C154.737 14.311 154.399 13.8937 154.324 13.3823L154.076 13.4189C154.163 14.0085 154.558 14.5228 155.105 14.6649L155.168 14.423ZM154.323 13.3791C154.171 12.5112 154.743 11.5951 155.582 11.3173L155.504 11.08C154.552 11.395 153.903 12.4268 154.077 13.4221L154.323 13.3791ZM155.58 11.318C156.338 11.0814 157.262 11.3959 157.804 12.1204L158.004 11.9707C157.406 11.1708 156.376 10.8078 155.506 11.0793L155.58 11.318ZM157.805 12.1218C158.27 12.7269 158.439 13.5093 158.38 14.2749C158.32 15.0412 158.033 15.7775 157.605 16.284L157.796 16.4455C158.263 15.8935 158.566 15.1053 158.629 14.2942C158.692 13.4825 158.514 12.6345 158.003 11.9694L157.805 12.1218ZM157.603 16.2859C157.17 16.8183 156.539 17.2705 155.828 17.517L155.91 17.7532C156.664 17.4916 157.335 17.0123 157.797 16.4436L157.603 16.2859ZM155.828 17.7532C156.539 17.9997 157.17 18.452 157.603 18.9844L157.797 18.8266C157.335 18.258 156.664 17.7787 155.91 17.517L155.828 17.7532ZM157.603 18.984C158.013 19.492 158.3 20.2193 158.364 20.9803C158.429 21.7406 158.27 22.5235 157.804 23.1501L158.004 23.2993C158.515 22.6133 158.682 21.7658 158.614 20.9593C158.546 20.1536 158.242 19.3776 157.798 18.827L157.603 18.984ZM157.804 23.1499C157.262 23.8743 156.338 24.1889 155.58 23.9523L155.506 24.1909C156.376 24.4625 157.406 24.0995 158.004 23.2996L157.804 23.1499ZM155.582 23.953C154.743 23.6751 154.171 22.759 154.323 21.8912L154.077 21.8481C153.903 22.8435 154.552 23.8753 155.504 24.1903L155.582 23.953ZM154.322 21.8967C154.438 21.3758 154.78 20.9573 155.17 20.8466L155.102 20.6061C154.597 20.7494 154.207 21.2625 154.078 21.8426L154.322 21.8967ZM155.172 20.8462C155.41 20.7752 155.699 20.8433 155.968 21.0032L156.095 20.7883C155.794 20.6093 155.432 20.5081 155.1 20.6065L155.172 20.8462ZM155.96 20.9984C156.17 21.144 156.278 21.3641 156.315 21.593L156.562 21.5535C156.517 21.2743 156.381 20.9862 156.103 20.793L155.96 20.9984ZM156.314 21.5732C156.314 21.6404 156.297 21.6969 156.271 21.733C156.249 21.7639 156.215 21.787 156.154 21.787V22.037C156.295 22.037 156.404 21.9754 156.474 21.8792C156.539 21.7883 156.564 21.6755 156.564 21.5732H156.314ZM156.154 21.787C156.092 21.787 156.04 21.7706 156.007 21.7446C155.978 21.7222 155.953 21.6854 155.953 21.6156H155.703C155.703 21.7575 155.76 21.869 155.853 21.9417C155.942 22.0111 156.053 22.037 156.154 22.037V21.787ZM155.953 21.6156C155.953 21.4433 155.837 21.2789 155.665 21.2789V21.5289C155.662 21.5289 155.669 21.5276 155.681 21.5416C155.691 21.5546 155.703 21.5789 155.703 21.6156H155.953ZM155.742 21.3053C155.648 21.2317 155.561 21.1916 155.476 21.1712C155.393 21.1514 155.318 21.1518 155.258 21.1518V21.4018C155.321 21.4018 155.367 21.4023 155.417 21.4143C155.465 21.4256 155.52 21.4489 155.588 21.5024L155.742 21.3053ZM155.217 21.1587C154.921 21.2615 154.696 21.5587 154.608 21.9251L154.851 21.9836C154.925 21.6725 155.107 21.4616 155.299 21.3949L155.217 21.1587ZM154.607 21.9291C154.538 22.2644 154.631 22.6149 154.817 22.9058C155.004 23.1969 155.29 23.4386 155.624 23.5545L155.706 23.3183C155.43 23.2226 155.187 23.0196 155.028 22.7709C154.868 22.5218 154.798 22.2371 154.851 21.9796L154.607 21.9291ZM155.632 23.5569C156.297 23.7413 157.04 23.4639 157.475 22.8756L157.274 22.7269C156.895 23.2396 156.255 23.4703 155.699 23.316L155.632 23.5569ZM157.474 22.877C157.884 22.3382 158.02 21.6488 157.967 20.9864C157.915 20.3243 157.673 19.6758 157.311 19.2098L157.113 19.3634C157.443 19.7867 157.669 20.3873 157.718 21.0062C157.767 21.6248 157.639 22.2481 157.275 22.7256L157.474 22.877ZM157.309 19.2075C156.589 18.3272 155.412 17.8066 154.078 17.8066V18.0566C155.349 18.0566 156.451 18.5522 157.115 19.3657L157.309 19.2075ZM154.078 17.8066C154.057 17.8066 154.047 17.8066 154.037 17.8066C154.027 17.8066 154.017 17.8066 153.996 17.8066V18.0566C154.017 18.0566 154.027 18.0566 154.037 18.0566C154.047 18.0566 154.057 18.0566 154.078 18.0566V17.8066ZM153.996 17.8066C153.907 17.8066 153.836 17.7402 153.836 17.6351H153.586C153.586 17.8688 153.76 18.0566 153.996 18.0566V17.8066Z" fill="#B5B2A5"/>
</g>
</svg>
