<svg width="208" height="83" viewBox="0 0 208 83" fill="none" xmlns="http://www.w3.org/2000/svg">
<g opacity="0.15">
<mask id="mask0" mask-type="alpha" maskUnits="userSpaceOnUse" x="0" y="0" width="208" height="83">
<rect x="208" y="82.3023" width="208" height="81.9221" transform="rotate(-180 208 82.3023)" fill="#C4C4C4"/>
</mask>
<g mask="url(#mask0)">
<path d="M90.3611 -18.7424C90.5467 -18.7424 90.7322 -18.6456 90.825 -18.5487C90.825 -18.5487 94.536 -14.6754 99.9169 -12.8355C107.061 -10.3178 113.74 -12.2545 119.771 -18.5487C120.049 -18.8392 120.513 -18.8392 120.791 -18.5487C120.884 -18.4519 120.977 -18.2582 120.977 -18.0645C120.977 -17.8709 120.884 -17.6772 120.791 -17.5804C106.504 -2.66791 120.235 12.0509 120.791 12.6319C121.07 12.9224 121.07 13.4066 120.791 13.6002C120.513 13.8907 120.049 13.8907 119.771 13.6002C119.771 13.6002 116.06 9.72687 110.679 7.88702C103.535 5.36933 96.8553 7.30601 90.825 13.6002C90.5466 13.8907 90.0828 13.8907 89.8044 13.6002C89.7117 13.5034 89.6189 13.3097 89.6189 13.1161C89.6189 12.9224 89.7117 12.7287 89.8044 12.6319C104.092 -2.28057 90.3611 -16.9994 89.8045 -17.5804C89.5261 -17.8709 89.5261 -18.3551 89.8045 -18.5487C89.99 -18.6456 90.1756 -18.7424 90.3611 -18.7424ZM105.947 -10.3178C101.03 -10.3178 96.8553 -12.3513 93.9793 -14.1912C96.9481 -9.25264 100.195 -0.53756 94.8143 8.75852C103.628 3.14214 111.978 6.53134 116.802 9.63004C113.833 4.69149 110.586 -4.02359 115.967 -13.3197C112.442 -11.1893 109.009 -10.3178 105.947 -10.3178Z" fill="#B5B2A5"/>
<path d="M157.557 -37.092C157.743 -37.092 157.928 -36.9952 158.021 -36.8984L191.791 -1.65071C192.07 -1.3602 192.07 -0.876034 191.791 -0.585533L158.114 34.5653C157.836 34.8558 157.372 34.8558 157.094 34.5653C156.815 34.2748 156.815 33.7906 157.094 33.5001L190.307 -1.16653L157.094 -35.8332C156.815 -36.1237 156.815 -36.6079 157.094 -36.8984C157.186 -36.9952 157.372 -37.092 157.557 -37.092Z" fill="#B5B2A5"/>
<path d="M147.957 27.596C151.483 27.596 155.101 29.0485 157.791 31.8567C158.07 32.1472 158.07 32.6314 157.791 32.9219C157.513 33.2124 157.049 33.2124 156.771 32.9219C151.946 27.8865 143.968 27.7897 139.144 32.9219C134.319 37.9573 134.319 46.285 139.144 51.3204C139.422 51.6109 139.422 52.0951 139.144 52.3856C138.865 52.6761 138.401 52.6761 138.123 52.3856C132.742 46.7692 132.742 37.5699 138.123 31.8567C140.813 29.0485 144.339 27.596 147.957 27.596Z" fill="#B5B2A5"/>
<path d="M106.557 -92.8602C106.743 -92.8602 106.928 -92.7633 107.021 -92.6665L140.698 -57.5157C140.977 -57.2252 140.977 -56.741 140.698 -56.4505C140.42 -56.16 139.956 -56.16 139.678 -56.4505L106.465 -91.1171L73.7151 -56.9347C78.6322 -51.2214 78.4467 -42.4095 73.2513 -36.9868C70.6536 -34.2755 67.1281 -32.7261 63.4171 -32.7261C59.9845 -32.7261 56.6446 -34.0818 54.1397 -36.5026L21.3902 -2.32016L54.1397 31.8623C56.7374 29.4415 59.9845 28.0858 63.4171 28.0858C67.1281 28.0858 70.6536 29.6351 73.2513 32.3465C78.5394 37.8661 78.6322 46.5811 73.7151 52.2944L106.557 86.4769L139.771 51.8102C140.049 51.5197 140.513 51.5197 140.791 51.8102C141.07 52.1007 141.07 52.5849 140.791 52.8754L107.021 88.0262C106.743 88.3167 106.279 88.3167 106.001 88.0262L72.3235 52.8754C72.0452 52.5849 72.0452 52.1007 72.3235 51.8102C74.6429 49.3893 75.9417 46.097 75.9417 42.6109C75.9417 39.1249 74.6429 35.8325 72.3235 33.4117C70.0042 30.9908 66.8498 29.6351 63.5099 29.6351C60.17 29.6351 57.0157 30.9908 54.6963 33.4117C54.418 33.7022 53.9541 33.7022 53.6758 33.4117L19.9986 -1.83599C19.7202 -2.12649 19.7202 -2.61066 19.9986 -2.90116L53.6758 -38.052C53.9541 -38.3425 54.418 -38.3425 54.6963 -38.052C57.0157 -35.6311 60.17 -34.2755 63.5099 -34.2755C66.8498 -34.2755 70.0042 -35.6311 72.3235 -38.052C77.1478 -43.0874 77.1478 -51.4151 72.3235 -56.4505C72.0452 -56.741 72.0452 -57.2252 72.3235 -57.5157L106.094 -92.6665C106.186 -92.7633 106.372 -92.8602 106.557 -92.8602Z" fill="#B5B2A5"/>
<path d="M52.7542 -39.0917C52.9397 -39.0917 53.1253 -38.9949 53.218 -38.8981C53.4036 -38.7044 68.6186 -23.8887 68.9897 -3.35989C69.2681 9.22856 63.8871 21.3328 53.218 32.4688C52.9397 32.7593 52.4758 32.7593 52.1975 32.4688C51.9192 32.1783 51.9192 31.6941 52.1975 31.4036C62.681 20.5582 67.8764 8.93805 67.5981 -3.26306C67.227 -23.1141 52.3831 -37.6392 52.1975 -37.736C51.9192 -38.0266 51.9192 -38.5107 52.1975 -38.8012C52.3831 -38.9949 52.5686 -39.0917 52.7542 -39.0917Z" fill="#B5B2A5"/>
<path d="M105.908 34.8586C106.186 34.8586 106.465 34.8586 106.743 34.8586C126.411 35.246 140.606 51.2236 140.791 51.3204C141.07 51.6109 141.07 52.0951 140.791 52.3856C140.513 52.6761 140.049 52.6761 139.771 52.3856C139.678 52.1919 125.762 36.7953 106.743 36.3111C95.0533 36.0206 83.8276 41.4433 73.4368 52.3856C73.1585 52.6761 72.6946 52.6761 72.4163 52.3856C72.1379 52.0951 72.1379 51.6109 72.4163 51.3204C82.8998 40.3782 94.1256 34.8586 105.908 34.8586Z" fill="#B5B2A5"/>
<path d="M157.327 -36.9952C157.513 -36.9952 157.698 -36.8984 157.791 -36.8016C158.07 -36.5111 158.07 -36.0269 157.791 -35.7364C147.308 -24.7941 142.205 -13.174 142.391 -0.97289C142.762 18.8781 157.606 33.4033 157.791 33.5001C158.07 33.7906 158.07 34.2748 157.791 34.5653C157.513 34.8558 157.049 34.8558 156.771 34.5653C156.585 34.3716 141.37 19.556 140.999 -0.972891C140.721 -13.5613 146.102 -25.6656 156.771 -36.8016C156.956 -36.9952 157.142 -36.9952 157.327 -36.9952Z" fill="#B5B2A5"/>
<path d="M63.1418 -24.5402C63.3274 -24.5402 63.5129 -24.4434 63.6057 -24.3466C63.884 -24.0561 63.884 -23.5719 63.6057 -23.2814L44.0302 -2.84937L63.7913 17.7763C64.0696 18.0668 64.0696 18.551 63.7913 18.8415C63.5129 19.132 63.0491 19.132 62.7707 18.8415L42.6386 -2.46203C42.3602 -2.75254 42.3602 -3.23671 42.6386 -3.52721L62.678 -24.4434C62.7707 -24.5402 62.9563 -24.5402 63.1418 -24.5402Z" fill="#B5B2A5"/>
<path d="M146.102 -24.5402C146.288 -24.5402 146.474 -24.4434 146.566 -24.3466L166.791 -3.13986C167.07 -2.84936 167.07 -2.36518 166.791 -2.07468L146.752 18.8415C146.474 19.132 146.01 19.132 145.731 18.8415C145.453 18.551 145.453 18.0668 145.731 17.7763L165.307 -2.65569L145.546 -23.2814C145.267 -23.5719 145.267 -24.0561 145.546 -24.3466C145.731 -24.4434 145.917 -24.5402 146.102 -24.5402Z" fill="#B5B2A5"/>
<path d="M84.9704 39.4511C85.1559 39.4511 85.3414 39.548 85.4342 39.6448L105.195 60.2705L124.771 39.9353C125.049 39.6448 125.513 39.6448 125.791 39.9353C126.07 40.2258 126.07 40.71 125.791 41.0005L105.659 61.8199C105.381 62.1104 104.917 62.1104 104.639 61.8199L84.4137 40.71C84.1354 40.4195 84.1354 39.9353 84.4137 39.6448C84.5993 39.548 84.7848 39.4511 84.9704 39.4511Z" fill="#B5B2A5"/>
<path d="M105.258 35.2757C105.629 35.2757 106 35.5662 106 36.0504L106 87.4694C106 87.8567 105.722 88.2441 105.258 88.2441C104.794 88.2441 104.516 87.9536 104.516 87.4694L104.516 36.0504C104.608 35.5662 104.887 35.2757 105.258 35.2757Z" fill="#B5B2A5"/>
<path d="M117.637 18.6748C118.472 18.6748 119.307 18.7716 120.142 18.9653C124.78 20.0305 129.512 23.6134 128.955 29.0361C128.584 32.7158 125.708 35.524 122.183 35.6208C120.42 35.7177 118.008 34.8461 116.709 33.2968C115.967 32.3285 115.688 31.1664 115.874 30.0044C116.152 28.6487 117.08 27.4867 118.286 26.8089C119.585 26.1311 121.069 26.2279 122.368 26.9057C122.739 27.0994 122.832 27.4867 122.647 27.8741C122.461 28.2614 122.09 28.3582 121.719 28.1646C120.884 27.6804 119.771 27.6804 118.936 28.0677C118.101 28.4551 117.451 29.2298 117.266 30.1981C117.08 30.9728 117.266 31.6506 117.822 32.2316C118.843 33.4905 120.791 34.1683 122.183 34.0715C124.966 33.9746 127.285 31.7474 127.564 28.7456C128.027 24.1944 123.853 21.1925 119.863 20.2242C115.688 19.2558 110.957 21.2893 108.452 25.1627C106.411 28.2614 105.298 32.2316 105.298 36.105C105.298 36.4923 105.019 36.8797 104.555 36.8797C104.184 36.8797 103.813 36.5892 103.813 36.105C103.813 31.9411 105.019 27.6804 107.246 24.2912C109.658 20.8052 113.647 18.6748 117.637 18.6748Z" fill="#B5B2A5"/>
<path d="M142.258 -4.08465C142.629 -4.08465 143 -3.79416 143 -3.30999C143 -2.82582 142.722 -2.53531 142.258 -2.53531C138.547 -2.53531 134.743 -1.27646 131.774 0.757054C128.063 3.37158 126.115 8.31012 127.043 12.6677C127.97 16.9284 130.846 21.1891 135.207 20.7049C137.99 20.4144 140.217 17.9935 140.31 15.0885C140.31 13.636 139.753 11.5056 138.547 10.5373C137.99 10.0531 137.341 9.85947 136.599 9.9563C135.671 10.15 134.929 10.8278 134.557 11.6993C134.094 12.6677 134.186 13.7328 134.65 14.6043C134.836 14.9917 134.743 15.379 134.372 15.5727C134.001 15.7663 133.63 15.6695 133.444 15.2822C132.795 14.0233 132.702 12.3772 133.351 11.0215C133.908 9.6658 135.021 8.79429 136.413 8.50379C137.526 8.21329 138.64 8.60062 139.567 9.37529C141.145 10.731 141.887 13.3455 141.794 15.0885C141.701 18.6714 139.011 21.7701 135.485 22.1574C130.29 22.7384 126.857 17.7999 125.837 12.9582C124.816 7.92278 126.857 2.50007 131.125 -0.501794C134.186 -2.82581 138.268 -4.08465 142.258 -4.08465Z" fill="#B5B2A5"/>
<path d="M67.1342 -4.08466C71.1235 -4.08466 75.2056 -2.82581 78.4527 -0.501793C82.7203 2.50007 84.7614 7.92278 83.7409 12.9582C82.7203 17.7999 79.2877 22.7384 74.0923 22.1574C70.5668 21.7701 67.8764 18.7682 67.7836 15.0885C67.6908 13.2487 68.5258 10.731 70.0102 9.37529C70.9379 8.60062 72.0512 8.31012 73.1645 8.50379C74.4634 8.79429 75.5767 9.76263 76.2261 11.0215C76.8755 12.3772 76.7827 13.9265 76.1333 15.2822C75.9478 15.6695 75.5767 15.7663 75.2056 15.5727C74.8345 15.379 74.7417 14.9917 74.9273 14.6043C75.3911 13.7328 75.3911 12.5708 75.02 11.6993C74.6489 10.8278 73.9067 10.15 72.979 9.9563C72.2368 9.76263 71.5874 9.9563 71.0307 10.5373C69.8246 11.6025 69.1752 13.7328 69.268 15.0885C69.3608 17.9935 71.4946 20.4144 74.3706 20.7049C78.731 21.1891 81.607 16.8315 82.5348 12.6677C83.4625 8.31012 81.5143 3.37158 77.8033 0.757055C74.8345 -1.3733 71.0307 -2.53531 67.3197 -2.53531C66.9486 -2.53531 66.5775 -2.82582 66.5775 -3.30999C66.5775 -3.79416 66.7631 -4.08466 67.1342 -4.08466Z" fill="#B5B2A5"/>
<path d="M92.1765 18.4812C96.1659 18.4812 100.155 20.6116 102.567 24.2912C104.794 27.5836 106 31.9411 106 36.105C106 36.4923 105.722 36.8797 105.258 36.8797C104.887 36.8797 104.516 36.5892 104.516 36.105C104.516 32.2316 103.31 28.2614 101.361 25.1628C98.8563 21.2894 94.1248 19.2559 89.9499 20.2242C85.8678 21.1926 81.7857 24.1944 82.2496 28.7456C82.5279 31.6506 84.8473 33.9746 87.6306 34.0715C89.0222 34.1683 90.9705 33.4905 91.991 32.2316C92.4549 31.6506 92.6404 30.9728 92.5476 30.1981C92.3621 29.2298 91.7127 28.4551 90.8777 28.0678C89.9499 27.5836 88.9294 27.6804 88.0944 28.1646C87.7233 28.3583 87.3522 28.2614 87.1667 27.8741C86.9811 27.4868 87.0739 27.0994 87.445 26.9058C88.6511 26.2279 90.2283 26.1311 91.5271 26.8089C92.826 27.3899 93.6609 28.5519 93.9393 30.0045C94.2176 31.1665 93.8465 32.3285 93.1043 33.2968C91.8054 34.943 89.3005 35.7177 87.6306 35.6208C84.1979 35.524 81.2291 32.7158 80.858 29.0361C80.3014 23.6134 85.0329 20.0305 89.6716 18.9654C90.5066 18.578 91.3416 18.4812 92.1765 18.4812Z" fill="#B5B2A5"/>
</g>
</g>
</svg>
