<svg width="133" height="133" viewBox="0 0 133 133" fill="none" xmlns="http://www.w3.org/2000/svg">
<g opacity="0.15" clip-path="url(#clip0)">
<path d="M66.3 121.8C35.7 121.8 10.8 96.9001 10.8 66.3001C10.8 35.7001 35.7 10.8 66.3 10.8C96.9 10.8 121.8 35.7001 121.8 66.3001C121.8 96.9001 96.9 121.8 66.3 121.8ZM66.3 12.3C36.5 12.3 12.3 36.5001 12.3 66.3001C12.3 96.1001 36.5 120.3 66.3 120.3C96.1 120.3 120.3 96.1001 120.3 66.3001C120.3 36.5001 96.1 12.3 66.3 12.3Z" fill="#B5B2A5"/>
<path d="M66.3 108.3C43.2 108.3 24.4 89.5 24.4 66.4C24.4 43.3 43.2 24.5 66.3 24.5C89.4 24.5 108.2 43.3 108.2 66.4C108.3 89.5 89.5 108.3 66.3 108.3ZM66.3 25.9C44 25.9 25.9 44 25.9 66.3C25.9 88.6 44 106.7 66.3 106.7C88.6 106.7 106.7 88.6 106.7 66.3C106.8 44 88.6 25.9 66.3 25.9Z" fill="#B5B2A5"/>
<path d="M66.3 99.9C66.1 99.9 65.9 99.8 65.8 99.7L56.4 90.3H43.1C42.7 90.3 42.3 90 42.3 89.5V76.3L32.9 66.9C32.8 66.8 32.7 66.6 32.7 66.4C32.7 66.2 32.8 66 32.9 65.9L42.3 56.5V43.1C42.3 42.7 42.6 42.3 43.1 42.3H56.4L65.8 32.9C66.1 32.6 66.6 32.6 66.9 32.9L76.3 42.3H89.6C90 42.3 90.4 42.6 90.4 43.1V56.4L99.8 65.8C100.1 66.1 100.1 66.6 99.8 66.9L90.4 76.3V89.6C90.4 90 90.1 90.4 89.6 90.4H76.3L66.9 99.8C66.7 99.9 66.5 99.9 66.3 99.9ZM43.8 88.8H56.7C56.9 88.8 57.1 88.9 57.2 89L66.3 98.1L75.4 89C75.5 88.9 75.7 88.8 75.9 88.8H88.8V76C88.8 75.8 88.9 75.6 89 75.5L98.1 66.4L89 57.2C88.9 57.1 88.8 56.9 88.8 56.7V43.8H76C75.8 43.8 75.6 43.7 75.5 43.6L66.4 34.5L57.3 43.6C57.2 43.7 57 43.8 56.8 43.8H43.8V56.7C43.8 56.9 43.7 57.1 43.6 57.2L34.5 66.3L43.6 75.4C43.7 75.5 43.8 75.7 43.8 75.9V88.8Z" fill="#B5B2A5"/>
<path d="M131.9 132.6C131.7 132.6 131.5 132.5 131.4 132.4L0.199976 1.29998C-0.100024 0.999975 -0.100024 0.499976 0.199976 0.199976C0.499976 -0.100024 0.999975 -0.100024 1.29998 0.199976L132.4 131.3C132.7 131.6 132.7 132.1 132.4 132.4C132.3 132.6 132.1 132.6 131.9 132.6Z" fill="#B5B2A5"/>
<path d="M0.799951 132.6C0.599951 132.6 0.399951 132.5 0.299951 132.4C-4.88311e-05 132.1 -4.88311e-05 131.6 0.299951 131.3L131.4 0.199976C131.7 -0.100024 132.2 -0.100024 132.5 0.199976C132.8 0.499976 132.8 0.999975 132.5 1.29998L1.29995 132.4C1.09995 132.6 0.899951 132.6 0.799951 132.6Z" fill="#B5B2A5"/>
<path d="M66.3 108.3C65.9 108.3 65.5 108 65.5 107.5V25.1C65.5 24.7 65.8 24.3 66.3 24.3C66.7 24.3 67.1 24.6 67.1 25.1V107.5C67.1 107.9 66.7 108.3 66.3 108.3Z" fill="#B5B2A5"/>
<path d="M107.5 67.1H25.1C24.7 67.1 24.3 66.8 24.3 66.3C24.3 65.9 24.6 65.5 25.1 65.5H107.5C107.9 65.5 108.3 65.8 108.3 66.3C108.3 66.7 107.9 67.1 107.5 67.1Z" fill="#B5B2A5"/>
<path d="M113.8 19.6C113.6 19.6 113.4 19.5 113.3 19.4C113 19.1 113 18.6 113.3 18.3C116.2 15.4 117.1 11.8 115.7 8.40002C114 4.30002 109.5 1.50002 104.5 1.50002C100.6 1.50002 97.5 4.20002 97.5 7.60002C97.5 10.1 99.3 12.6 102.3 12.7C104.2 12.7 105.1 11.8 105.6 11C106.2 9.90002 106.2 8.60002 105.8 7.90002C105.6 7.50002 105.2 7.30002 104.8 7.30002C104.4 7.30002 104 7.00002 104 6.50002C104 6.10002 104.3 5.70002 104.8 5.70002C105.8 5.70002 106.6 6.20002 107.1 7.10002C107.8 8.40002 107.8 10.2 106.9 11.7C106.4 12.6 105.1 14.1 102.3 14.1C98.3 14.1 96 10.8 96 7.50002C96 3.20002 99.8 -0.0999756 104.5 -0.0999756C110.1 -0.0999756 115.1 3.00002 117.1 7.70002C118.8 11.7 117.8 15.9 114.4 19.3C114.2 19.5 114 19.6 113.8 19.6Z" fill="#B5B2A5"/>
<path d="M131.9 1.5H104.5C104.1 1.5 103.7 1.2 103.7 0.8C103.7 0.4 104 0 104.5 0H131.9C132.3 0 132.7 0.3 132.7 0.8C132.6 1.2 132.3 1.5 131.9 1.5Z" fill="#B5B2A5"/>
<path d="M125 36.7C121.8 36.7 118.5 34.3 118.5 30.4C118.5 27.6 120 26.3 120.9 25.8C122.4 25 124.2 24.9 125.5 25.6C126.4 26.1 126.9 27 126.9 27.9C126.9 28.3 126.6 28.7 126.1 28.7C125.7 28.7 125.3 28.4 125.3 27.9C125.3 27.5 125.1 27.1 124.7 26.9C124 26.5 122.7 26.4 121.6 27.1C120.8 27.6 119.9 28.5 119.9 30.4C119.9 33.4 122.5 35.2 124.9 35.2C128.3 35.2 131 32.1 131 28.2C131 23.2 128.2 18.7 124.1 17C120.7 15.6 117.1 16.5 114.2 19.4C113.9 19.7 113.4 19.7 113.1 19.4C112.8 19.1 112.8 18.6 113.1 18.3C116.5 14.9 120.7 14 124.7 15.6C129.4 17.5 132.5 22.6 132.5 28.2C132.6 32.9 129.3 36.7 125 36.7C125.1 36.7 125.1 36.7 125 36.7Z" fill="#B5B2A5"/>
<path d="M131.9 28.9C131.5 28.9 131.1 28.6 131.1 28.1V0.8C131.1 0.4 131.4 0 131.9 0C132.3 0 132.7 0.3 132.7 0.8V28.2C132.6 28.6 132.3 28.9 131.9 28.9Z" fill="#B5B2A5"/>
<path d="M18.8 19.6C18.6 19.6 18.4 19.5 18.3 19.4C14.9 16 14 11.8 15.6 7.8C17.5 3.1 22.6 0 28.2 0C33 0 36.7 3.3 36.7 7.6C36.7 10.8 34.3 14.1 30.4 14.2C27.7 14.2 26.4 12.7 25.8 11.8C25 10.3 24.9 8.5 25.6 7.2C26.1 6.3 27 5.8 27.9 5.8C28.3 5.8 28.7 6.1 28.7 6.6C28.7 7 28.4 7.4 27.9 7.4C27.5 7.4 27.1 7.6 26.9 8C26.5 8.7 26.4 10 27.1 11.1C27.6 11.9 28.5 12.8 30.4 12.8C33.4 12.8 35.2 10.2 35.2 7.7C35.2 4.3 32.1 1.6 28.2 1.6C23.2 1.6 18.7 4.4 17 8.5C15.6 11.9 16.5 15.5 19.4 18.4C19.7 18.7 19.7 19.2 19.4 19.5C19.2 19.5 19 19.6 18.8 19.6Z" fill="#B5B2A5"/>
<path d="M28.2 1.5H0.8C0.3 1.5 0 1.2 0 0.8C0 0.3 0.3 0 0.8 0H28.2C28.6 0 29 0.3 29 0.8C28.9 1.2 28.6 1.5 28.2 1.5Z" fill="#B5B2A5"/>
<path d="M7.6 36.7C3.3 36.7 0 32.9 0 28.2C0 22.6 3.1 17.6 7.8 15.6C11.8 13.9 16 14.9 19.4 18.3C19.7 18.6 19.7 19.1 19.4 19.4C19.1 19.7 18.6 19.7 18.3 19.4C15.4 16.5 11.8 15.6 8.4 17C4.3 18.7 1.5 23.2 1.5 28.2C1.5 32.1 4.2 35.2 7.6 35.2C10.1 35.2 12.6 33.4 12.6 30.4C12.6 28.5 11.7 27.5 10.9 27.1C9.8 26.5 8.5 26.5 7.8 26.9C7.4 27.1 7.2 27.5 7.2 27.9C7.2 28.3 6.9 28.7 6.4 28.7C5.9 28.7 5.6 28.4 5.6 27.9C5.6 26.9 6.1 26.1 7 25.6C8.3 24.9 10.1 24.9 11.6 25.8C12.5 26.3 14.1 27.6 14 30.4C14.1 34.3 10.8 36.7 7.6 36.7Z" fill="#B5B2A5"/>
<path d="M0.8 28.9C0.4 28.9 0 28.6 0 28.1V0.8C0 0.3 0.3 0 0.8 0C1.2 0 1.5 0.3 1.5 0.8V28.2C1.5 28.6 1.2 28.9 0.8 28.9Z" fill="#B5B2A5"/>
<path d="M104.5 132.6C99.7 132.6 96 129.3 96 125C96 121.8 98.4 118.5 102.3 118.4C105 118.4 106.3 119.9 106.9 120.8C107.7 122.3 107.8 124.1 107.1 125.4C106.6 126.3 105.7 126.8 104.8 126.8C104.4 126.8 104 126.5 104 126C104 125.6 104.3 125.2 104.8 125.2C105.2 125.2 105.6 125 105.8 124.6C106.2 123.9 106.3 122.6 105.6 121.5C105.1 120.7 104.2 119.8 102.3 119.8C99.3 119.8 97.5 122.4 97.5 124.9C97.5 128.3 100.6 131 104.5 131C109.5 131 114 128.2 115.7 124.1C117.1 120.7 116.2 117.1 113.3 114.2C113 113.9 113 113.4 113.3 113.1C113.6 112.8 114.1 112.8 114.4 113.1C117.8 116.5 118.7 120.7 117.1 124.7C115.1 129.5 110.1 132.6 104.5 132.6Z" fill="#B5B2A5"/>
<path d="M131.9 132.6H104.5C104.1 132.6 103.7 132.3 103.7 131.8C103.7 131.4 104 131 104.5 131H131.9C132.3 131 132.7 131.3 132.7 131.8C132.6 132.3 132.3 132.6 131.9 132.6Z" fill="#B5B2A5"/>
<path d="M121 117.8C118.3 117.8 115.6 116.6 113.3 114.3C113 114 113 113.5 113.3 113.2C113.6 112.9 114.1 112.9 114.4 113.2C117.3 116.1 120.9 117 124.3 115.6C128.4 113.9 131.2 109.4 131.2 104.4C131.2 100.5 128.5 97.4 125.1 97.4C122.6 97.4 120.1 99.2 120.1 102.2C120.1 104.1 121 105.1 121.8 105.5C122.9 106.1 124.2 106.1 124.9 105.7C125.3 105.5 125.5 105.1 125.5 104.7C125.5 104.3 125.8 103.9 126.3 103.9C126.7 103.9 127.1 104.2 127.1 104.7C127.1 105.7 126.6 106.5 125.7 107C124.4 107.7 122.6 107.7 121.1 106.8C120.2 106.3 118.6 105 118.7 102.2C118.7 98.2 122 95.9 125.2 95.9C129.5 95.9 132.8 99.7 132.8 104.4C132.8 110 129.7 115 125 117C123.6 117.6 122.3 117.8 121 117.8Z" fill="#B5B2A5"/>
<path d="M131.9 132.6C131.5 132.6 131.1 132.3 131.1 131.8V104.4C131.1 104 131.4 103.6 131.9 103.6C132.3 103.6 132.7 103.9 132.7 104.4V131.8C132.6 132.3 132.3 132.6 131.9 132.6Z" fill="#B5B2A5"/>
<path d="M28.2 132.6C22.6 132.6 17.6 129.5 15.6 124.8C13.9 120.8 14.9 116.6 18.3 113.2C18.6 112.9 19.1 112.9 19.4 113.2C19.7 113.5 19.7 114 19.4 114.3C16.5 117.2 15.6 120.8 17 124.2C18.7 128.3 23.2 131.1 28.2 131.1C32.1 131.1 35.2 128.4 35.2 125C35.2 122.5 33.4 120 30.4 119.9C28.5 119.9 27.6 120.8 27.1 121.6C26.5 122.7 26.5 124 26.9 124.7C27.1 125.1 27.5 125.3 27.9 125.3C28.3 125.3 28.7 125.6 28.7 126.1C28.7 126.5 28.4 126.9 27.9 126.9C26.9 126.9 26.1 126.4 25.6 125.5C24.9 124.2 24.9 122.4 25.8 120.9C26.3 120 27.6 118.5 30.4 118.5C34.4 118.5 36.7 121.8 36.7 125.1C36.7 129.3 32.9 132.6 28.2 132.6Z" fill="#B5B2A5"/>
<path d="M28.2 132.6H0.8C0.4 132.6 0 132.3 0 131.8C0 131.4 0.3 131 0.8 131H28.2C28.6 131 29 131.3 29 131.8C28.9 132.3 28.6 132.6 28.2 132.6Z" fill="#B5B2A5"/>
<path d="M11.6 117.8C10.3 117.8 9 117.5 7.8 117C3.1 115.1 0 110 0 104.4C0 99.6 3.3 95.9 7.6 95.9C10.8 95.9 14.1 98.3 14.1 102.2C14.1 105 12.6 106.3 11.7 106.8C10.2 107.6 8.4 107.7 7.1 107C6.2 106.5 5.7 105.6 5.7 104.7C5.7 104.3 6 103.9 6.5 103.9C7 103.9 7.3 104.2 7.3 104.7C7.3 105.1 7.5 105.5 7.9 105.7C8.6 106.1 9.9 106.2 11 105.5C11.8 105 12.7 104.1 12.7 102.2C12.7 99.2 10.1 97.4 7.7 97.4C4.3 97.4 1.6 100.5 1.6 104.4C1.6 109.4 4.4 113.9 8.5 115.6C11.9 117 15.5 116.1 18.4 113.2C18.7 112.9 19.2 112.9 19.5 113.2C19.8 113.5 19.8 114 19.5 114.3C17.1 116.6 14.4 117.8 11.6 117.8Z" fill="#B5B2A5"/>
<path d="M0.8 132.6C0.4 132.6 0 132.3 0 131.8V104.4C0 104 0.3 103.6 0.8 103.6C1.2 103.6 1.5 103.9 1.5 104.4V131.8C1.5 132.3 1.2 132.6 0.8 132.6Z" fill="#B5B2A5"/>
</g>
<defs>
<clipPath id="clip0">
<rect width="132.6" height="132.6" fill="white"/>
</clipPath>
</defs>
</svg>
