<svg width="79" height="79" viewBox="0 0 79 79" fill="none" xmlns="http://www.w3.org/2000/svg">
<g opacity="0.15" clip-path="url(#clip0)">
<path d="M38.9788 27.4258C38.744 27.4258 38.5093 27.2496 38.5093 26.9559C38.5093 22.2571 41.7373 18.968 47.3129 17.9695C48.5454 17.7345 49.8953 17.6758 51.1865 17.6758C53.6515 17.6171 56.1752 17.4996 58.1707 16.2074C61.6334 13.9168 62.103 9.80531 61.0465 6.9273C60.1075 4.34296 57.6425 1.81736 53.5928 2.28724C51.7147 2.58091 49.8953 3.75561 48.8975 5.51766C48.1346 6.86856 47.8998 8.68935 48.3693 10.2752C48.7215 11.5674 49.4845 12.5659 50.5409 13.1532C51.7734 13.7993 53.358 13.858 54.7079 13.3881C55.7644 12.977 56.586 12.2722 56.9382 11.3912C57.4077 10.2752 57.1729 8.80682 56.41 7.92579C56.1165 7.57338 55.5296 7.04477 54.7079 7.22097C54.4732 7.27971 54.2384 7.1035 54.1797 6.86856C54.121 6.63362 54.2971 6.39868 54.5319 6.33995C55.4709 6.16374 56.41 6.51615 57.1143 7.33844C58.0533 8.51314 58.3468 10.3339 57.7599 11.7436C57.2903 12.8595 56.3513 13.7406 55.0014 14.2692C53.4167 14.8565 51.5973 14.739 50.1301 13.9755C48.8975 13.3294 47.9585 12.096 47.5477 10.5689C47.0194 8.74808 47.2542 6.63362 48.1933 5.10651C49.3671 3.10953 51.3626 1.75862 53.5928 1.46495C57.349 0.995069 60.6357 2.99206 61.9856 6.63362C63.1594 9.86404 62.6899 14.4454 58.7576 16.971C56.5273 18.4393 53.8863 18.4981 51.3039 18.6156C50.0127 18.6743 48.7802 18.6743 47.6063 18.9092C44.5544 19.4378 39.507 21.1999 39.507 27.0146C39.4483 27.2496 39.2136 27.4258 38.9788 27.4258Z" fill="#B5B2A5"/>
<path d="M51.8321 18.5568C47.489 18.5568 42.9111 14.6803 42.2655 10.5101C41.6786 6.69231 42.8524 1.99352 46.1978 0.290205C46.4325 0.172735 46.6673 0.290205 46.7847 0.46641C46.9021 0.70135 46.7847 0.93629 46.6086 1.05376C43.6154 2.52213 42.6176 6.86852 43.1458 10.3339C43.7328 14.0929 47.9585 17.6757 51.8908 17.6757C52.1255 17.6757 52.3603 17.852 52.3603 18.1456C52.2429 18.3806 52.0668 18.5568 51.8321 18.5568Z" fill="#B5B2A5"/>
<path d="M51.3626 39.76C51.1278 39.76 50.8931 39.5838 50.8931 39.2901C50.8931 39.0552 51.0691 38.8203 51.3626 38.8203C57.173 38.8203 58.9337 33.7103 59.4619 30.7148C59.6967 29.5401 59.6967 28.3067 59.7554 27.0145C59.8141 24.4302 59.9314 21.7871 61.3987 19.5552C63.9224 15.6787 68.5003 15.1501 71.7283 16.3248C75.3671 17.6757 77.4213 20.9648 76.8931 24.7239C76.5996 26.9558 75.2497 28.9528 73.2542 30.1275C71.7283 31.0085 69.6154 31.2435 67.796 30.7736C66.27 30.3624 65.0375 29.4227 64.3919 28.1892C63.629 26.7796 63.5116 24.9001 64.0985 23.3142C64.568 22.0221 65.4484 21.0236 66.6222 20.5537C68.0308 19.9664 69.8502 20.26 71.024 21.1998C71.8457 21.9046 72.1978 22.8444 72.0217 23.7841C71.963 24.0191 71.7283 24.1953 71.4935 24.1365C71.2588 24.0778 71.0827 23.8429 71.1414 23.6079C71.3174 22.7269 70.7892 22.1395 70.4371 21.9046C69.498 21.1411 68.0308 20.9648 66.9743 21.376C66.094 21.7284 65.331 22.5507 64.9788 23.6079C64.5093 24.9588 64.568 26.5447 65.2136 27.7781C65.7418 28.8353 66.7396 29.5989 68.0895 29.9513C69.6741 30.4212 71.4935 30.1862 72.8434 29.4227C74.6041 28.3655 75.7779 26.6034 76.0127 24.6651C76.5409 20.6124 73.9585 18.1456 71.3761 17.2058C68.5003 16.1486 64.3333 16.5597 62.103 20.0838C60.8118 22.0808 60.6944 24.6064 60.6357 27.0733C60.577 28.3655 60.577 29.6576 60.3423 30.9498C59.3445 36.5883 56.0579 39.76 51.3626 39.76Z" fill="#B5B2A5"/>
<path d="M69.7914 36.2947C69.1458 36.2947 68.4415 36.236 67.8546 36.1185C63.6289 35.4724 59.814 30.8911 59.814 26.5447C59.814 26.3098 59.99 26.0748 60.2835 26.0748C60.5183 26.0748 60.753 26.251 60.753 26.5447C60.753 30.4212 64.3332 34.7089 68.0894 35.2962C71.5521 35.8248 75.7779 34.8263 77.2451 31.8309C77.3625 31.5959 77.5973 31.5372 77.832 31.6546C78.0668 31.7721 78.1255 32.0071 78.0081 32.242C76.4821 35.0613 73.0194 36.2947 69.7914 36.2947Z" fill="#B5B2A5"/>
<path d="M38.9789 27.4257C38.7441 27.4257 38.5094 27.2495 38.5094 26.9559C38.5094 21.1411 33.4033 19.3791 30.41 18.8504C29.2362 18.6155 28.0037 18.6155 26.7125 18.5568C24.1301 18.498 21.489 18.3806 19.2588 16.9122C15.3852 14.3866 14.857 9.80527 16.0308 6.57485C17.3807 2.93328 20.6674 0.877555 24.4236 1.40617C26.6538 1.69984 28.6493 3.05075 29.8231 5.04774C30.7035 6.57484 30.9382 8.6893 30.4687 10.5101C30.0579 12.0372 29.1188 13.2706 27.8863 13.9167C26.4777 14.6803 24.5996 14.7977 23.015 14.2104C21.7238 13.7405 20.7261 12.8595 20.2565 11.6848C19.6696 10.2751 19.9631 8.45436 20.9021 7.27966C21.6064 6.45738 22.5455 6.10497 23.4845 6.28117C23.7193 6.33991 23.8954 6.57484 23.8367 6.80978C23.778 7.04472 23.5432 7.22093 23.3084 7.16219C22.4281 6.98599 21.8412 7.5146 21.6064 7.86701C20.8434 8.80677 20.6674 10.2751 21.0782 11.3324C21.4303 12.2134 22.252 12.977 23.3084 13.3294C24.6583 13.7992 26.243 13.7405 27.4755 13.0944C28.5319 12.5658 29.2949 11.5673 29.647 10.2164C30.1166 8.63057 29.8818 6.80978 29.1188 5.45888C28.0624 3.69683 26.3017 2.52213 24.3649 2.28719C20.3152 1.75858 17.8502 4.34292 16.9112 6.92725C15.8547 9.80527 16.2656 13.9754 19.787 16.2074C21.7825 17.4995 24.3062 17.617 26.7712 17.6757C28.0624 17.7345 29.3536 17.7345 30.6448 17.9694C36.2791 18.9679 39.4484 22.2571 39.4484 26.9559C39.4484 27.2495 39.2136 27.4257 38.9789 27.4257Z" fill="#B5B2A5"/>
<path d="M26.1844 18.5568C25.9496 18.5568 25.7148 18.3806 25.7148 18.0869C25.7148 17.8519 25.8909 17.617 26.1844 17.617C30.058 17.617 34.3424 14.0342 34.9293 10.2751C35.4575 6.80978 34.4598 2.46339 31.4665 0.995019C31.2318 0.877549 31.1731 0.642609 31.2905 0.407669C31.4078 0.172729 31.6426 0.113995 31.8774 0.231464C35.2227 1.93478 36.3966 6.69231 35.751 10.5101C35.1054 14.6803 30.5275 18.5568 26.1844 18.5568Z" fill="#B5B2A5"/>
<path d="M26.6538 39.7601C21.9585 39.7601 18.6719 36.5296 17.6741 30.9498C17.4393 29.7164 17.3807 28.3655 17.3807 27.0733C17.322 24.6065 17.2046 22.0809 15.9134 20.0839C13.6244 16.6185 9.5161 16.1486 6.64025 17.2059C4.05786 18.1456 1.53415 20.6125 2.00368 24.6652C2.23844 26.6622 3.41226 28.4242 5.17298 29.4815C6.52287 30.245 8.34228 30.48 9.92693 30.0101C11.2181 29.6577 12.2159 28.8941 12.8028 27.8369C13.4484 26.6034 13.5071 25.0176 13.0375 23.6667C12.6267 22.6095 11.9224 21.7872 11.0421 21.4348C9.92693 20.9649 8.45966 21.1998 7.52061 21.9634C7.16847 22.2571 6.64025 22.8444 6.81632 23.6667C6.87501 23.9016 6.69894 24.1366 6.46418 24.1953C6.22941 24.254 5.99465 24.0778 5.93596 23.8429C5.75989 22.9031 6.11203 21.9634 6.9337 21.2586C8.10752 20.3188 9.92693 20.0251 11.3355 20.6125C12.4506 21.0824 13.331 22.0221 13.8592 23.373C14.4461 24.9589 14.3287 26.7797 13.5658 28.248C12.9202 29.4815 11.6877 30.4212 10.1617 30.8324C8.34228 31.361 6.28811 31.126 4.70345 30.1863C2.70797 29.0116 1.35808 27.0146 1.06463 24.7827C0.595103 21.0236 2.59059 17.7345 6.22941 16.3836C9.45741 15.2089 14.0353 15.6787 16.559 19.614C18.0263 21.8459 18.0849 24.489 18.2023 27.0733C18.261 28.3655 18.261 29.5989 18.4958 30.7736C19.024 33.8278 20.7847 38.879 26.5951 38.879C26.8299 38.879 27.0646 39.0553 27.0646 39.3489C27.0646 39.5839 26.8886 39.7601 26.6538 39.7601Z" fill="#B5B2A5"/>
<path d="M8.22504 36.2947C4.99705 36.2947 1.53429 35.12 0.067025 32.1833C-0.0503564 31.9483 0.067025 31.7134 0.243097 31.5959C0.47786 31.4785 0.712623 31.5959 0.830005 31.7721C2.29727 34.7676 6.5817 35.7661 9.98576 35.2375C13.742 34.6501 17.3221 30.4212 17.3221 26.486C17.3221 26.2511 17.4982 26.0161 17.7916 26.0161C18.0264 26.0161 18.2612 26.1923 18.2612 26.486C18.2612 30.8324 14.3876 35.4137 10.2205 36.0598C9.51624 36.236 8.87064 36.2947 8.22504 36.2947Z" fill="#B5B2A5"/>
<path d="M54.5906 77.3504C54.2385 77.3504 53.8863 77.3504 53.4755 77.2917C51.2453 76.998 49.2498 75.6471 48.076 73.6501C47.1956 72.123 46.9608 70.0085 47.4304 68.1878C47.8412 66.6606 48.7803 65.4272 50.0128 64.7811C51.4213 64.0176 53.2994 63.9001 54.8841 64.4875C56.1753 64.9573 57.173 65.8384 57.6426 67.0131C58.2295 68.4227 57.936 70.2435 56.997 71.4182C56.2927 72.2405 55.3536 72.5929 54.4146 72.4167C54.1798 72.3579 54.0037 72.123 54.0624 71.8881C54.1211 71.6531 54.3559 71.4769 54.5906 71.5356C55.471 71.7119 56.0579 71.1832 56.2927 70.8308C57.0556 69.8911 57.2317 68.4227 56.8209 67.3655C56.4687 66.4844 55.6471 65.7209 54.5906 65.3685C53.2407 64.8986 51.6561 64.9573 50.4236 65.6034C49.3672 66.132 48.6042 67.1305 48.252 68.4814C47.7825 70.0673 48.0173 71.8881 48.7803 73.239C49.8367 75.001 51.5974 76.1757 53.5342 76.4106C57.5839 76.9393 60.0489 74.3549 60.9879 71.7706C62.0444 68.8926 61.6335 64.7224 58.1121 62.4905C56.1166 61.1983 53.5929 61.0808 51.1279 61.0221C49.8367 60.9634 48.5455 60.9634 47.2543 60.7284C41.62 59.7299 38.4507 56.4408 38.4507 51.742C38.4507 51.507 38.6268 51.2721 38.9202 51.2721C39.155 51.2721 39.3897 51.4483 39.3897 51.742C39.3897 57.5567 44.4958 59.3188 47.4891 59.8474C48.6629 60.0823 49.8954 60.0823 51.1866 60.1411C53.769 60.1998 56.41 60.3173 58.6403 61.7856C62.5139 64.3113 63.0421 68.8926 61.8683 72.123C60.6945 75.3534 57.936 77.3504 54.5906 77.3504Z" fill="#B5B2A5"/>
<path d="M46.374 78.2315C46.3153 78.2315 46.2566 78.2315 46.1979 78.1727C42.6765 76.4107 41.6788 71.7706 42.2657 68.1878C42.9113 63.9589 47.4891 60.1411 51.8323 60.1411C52.067 60.1411 52.3018 60.3173 52.3018 60.611C52.3018 60.9047 52.1257 61.0809 51.8323 61.0809C47.9587 61.0809 43.6742 64.6637 43.0873 68.4227C42.5591 71.7119 43.4395 75.9408 46.5501 77.4679C46.7849 77.5854 46.8435 77.8203 46.7262 78.0553C46.6675 78.1727 46.5501 78.2315 46.374 78.2315Z" fill="#B5B2A5"/>
<path d="M68.5005 62.8429C65.9181 62.8429 63.1597 61.7857 61.399 59.0839C59.9317 56.8519 59.873 54.2089 59.7556 51.6245C59.6969 50.3323 59.6969 49.0989 59.4622 47.9242C58.9339 44.87 57.1732 39.8188 51.3628 39.8188C51.1281 39.8188 50.8933 39.6426 50.8933 39.3489C50.8933 39.114 51.0694 38.879 51.3628 38.879C56.0581 38.879 59.3448 42.1095 60.3425 47.6893C60.5773 48.9227 60.636 50.2736 60.636 51.5658C60.6947 54.0326 60.812 56.5583 62.1032 58.5552C64.3922 62.0206 68.5005 62.4905 71.3764 61.4332C73.9588 60.4935 76.4825 58.0266 76.013 53.9739C75.7782 52.0357 74.5457 50.2736 72.8437 49.2164C71.4938 48.4528 69.6744 48.2179 68.0897 48.6878C66.7985 49.0402 65.8008 49.8037 65.2139 50.861C64.5683 52.0944 64.5096 53.6802 64.9791 55.0311C65.3899 56.0884 66.0942 56.9107 66.9746 57.2631C68.0897 57.7329 69.557 57.498 70.4373 56.7345C70.7895 56.4408 71.3177 55.8534 71.1416 55.0311C71.0829 54.7962 71.259 54.5613 71.4938 54.5025C71.7285 54.4438 71.9633 54.62 72.022 54.8549C72.1981 55.7947 71.8459 56.7345 71.0242 57.4393C69.8504 58.379 68.031 58.6727 66.6224 58.0854C65.5073 57.6155 64.6269 56.6757 64.0987 55.3248C63.5118 53.739 63.6292 51.9182 64.3922 50.4498C65.0378 49.2164 66.2703 48.2766 67.7962 47.8655C69.6157 47.3369 71.7285 47.5718 73.2545 48.5116C75.25 49.6863 76.5999 51.6832 76.8933 53.9152C77.3628 57.6742 75.3674 60.9634 71.7285 62.3143C70.7308 62.6079 69.6157 62.8429 68.5005 62.8429Z" fill="#B5B2A5"/>
<path d="M60.2249 52.6231C59.9901 52.6231 59.7554 52.4469 59.7554 52.1532C59.7554 47.8068 63.629 43.2255 67.796 42.5794C71.4348 41.992 76.1888 42.9905 77.8908 46.5146C78.0082 46.7496 77.8908 46.9845 77.7147 47.102C77.48 47.2194 77.2452 47.102 77.1278 46.9258C75.6606 43.9303 71.3761 42.9318 67.9721 43.4604C64.2159 44.0478 60.6357 48.2767 60.6357 52.2119C60.6357 52.3881 60.4597 52.6231 60.2249 52.6231Z" fill="#B5B2A5"/>
<path d="M23.3671 77.3504C20.0804 77.3504 17.2633 75.3534 16.0894 72.123C14.9156 68.8926 15.3852 64.3113 19.3174 61.7856C21.5477 60.3173 24.1888 60.2585 26.7712 60.1411C28.0623 60.0823 29.2949 60.0823 30.4687 59.8474C33.5206 59.3188 38.568 57.5567 38.568 51.742C38.568 51.507 38.7441 51.2721 39.0375 51.2721C39.2723 51.2721 39.507 51.4483 39.507 51.742C39.507 56.4408 36.2791 59.7299 30.7034 60.7284C29.4709 60.9634 28.121 61.0221 26.8298 61.0221C24.3648 61.0808 21.8411 61.1983 19.8456 62.4905C16.3829 64.7811 15.9134 68.8926 16.9698 71.7706C17.9089 74.3549 20.3739 76.8805 24.4235 76.4106C26.3603 76.1757 28.121 74.9423 29.1775 73.239C29.9405 71.8881 30.1752 70.0673 29.7057 68.4814C29.3535 67.1893 28.5906 66.1908 27.5341 65.6034C26.3016 64.9573 24.717 64.8986 23.3671 65.3685C22.3107 65.7796 21.489 66.4844 21.1368 67.3655C20.6673 68.4814 20.9021 69.9498 21.6651 70.8308C21.9585 71.1832 22.5454 71.7119 23.3671 71.5356C23.6019 71.4769 23.8366 71.6531 23.8953 71.8881C23.954 72.123 23.7779 72.3579 23.5432 72.4167C22.6041 72.5929 21.6651 72.2405 20.9608 71.4182C20.0217 70.2435 19.7283 68.4227 20.3152 67.0131C20.7847 65.8971 21.7238 65.0161 23.0736 64.4875C24.6583 63.9001 26.4777 64.0176 27.945 64.7811C29.1775 65.4272 30.1165 66.6606 30.5274 68.1878C31.0556 70.0085 30.8208 72.123 29.8818 73.6501C28.7079 75.6471 26.7125 76.998 24.4822 77.2917C24.1301 77.2917 23.7192 77.3504 23.3671 77.3504Z" fill="#B5B2A5"/>
<path d="M31.6427 78.2315C31.4666 78.2315 31.3493 78.114 31.2319 77.9965C31.1145 77.7616 31.2319 77.5267 31.4079 77.4092C34.5186 75.8821 35.3989 71.6532 34.8707 68.364C34.2838 64.605 30.0581 61.0222 26.1258 61.0222C25.891 61.0222 25.6562 60.8459 25.6562 60.5523C25.6562 60.2586 25.8323 60.0824 26.1258 60.0824C30.4689 60.0824 35.0468 63.9589 35.6924 68.1291C36.2206 71.7119 35.2228 76.4107 31.7601 78.114C31.7601 78.2315 31.7014 78.2315 31.6427 78.2315Z" fill="#B5B2A5"/>
<path d="M9.51617 62.8429C8.40105 62.8429 7.28592 62.6667 6.28818 62.2556C2.64935 60.9046 0.595177 57.6155 1.12339 53.8565C1.41685 51.6245 2.76673 49.6275 4.76222 48.4528C6.28818 47.5718 8.40105 47.3369 10.2205 47.8068C11.7464 48.2179 12.9789 49.1577 13.6245 50.3911C14.3875 51.8007 14.5049 53.6803 13.918 55.2661C13.4485 56.5583 12.5681 57.5568 11.3943 58.0266C9.9857 58.614 8.16628 58.3203 6.99247 57.3806C6.1708 56.6757 5.81865 55.736 5.99473 54.7962C6.05342 54.5613 6.28818 54.3851 6.52294 54.4438C6.75771 54.5025 6.93378 54.7375 6.87509 54.9724C6.69901 55.8534 7.22723 56.4408 7.57938 56.6757C8.51843 57.4393 9.9857 57.6155 11.0421 57.2043C11.9225 56.8519 12.6855 56.0296 13.0376 54.9724C13.5071 53.6215 13.4485 52.0357 12.8029 50.8022C12.2746 49.745 11.2769 48.9815 9.92701 48.629C8.34236 48.1592 6.52294 48.3941 5.17306 49.1577C3.41233 50.2149 2.23852 51.9769 2.00375 53.9152C1.47554 57.9679 4.05793 60.4348 6.64032 61.3745C9.51617 62.4318 13.6832 62.0206 15.9135 58.4965C17.2047 56.4995 17.322 53.9739 17.3807 51.5071C17.4394 50.2149 17.4394 48.9227 17.6742 47.6306C18.6719 41.992 21.9586 38.8203 26.6539 38.8203C26.8886 38.8203 27.1234 38.9965 27.1234 39.2902C27.1234 39.5251 26.9473 39.7601 26.6539 39.7601C20.8435 39.7601 19.0828 44.87 18.5545 47.8655C18.3198 49.0402 18.3198 50.2736 18.2611 51.5658C18.2024 54.1501 18.085 56.7932 16.6178 59.0251C14.857 61.7857 12.0986 62.8429 9.51617 62.8429Z" fill="#B5B2A5"/>
<path d="M17.7916 52.6231C17.5568 52.6231 17.3221 52.4469 17.3221 52.1532C17.3221 48.2767 13.7419 43.989 9.98573 43.4017C6.52297 42.8731 2.29724 43.8716 0.829971 46.8671C0.71259 47.102 0.477827 47.1607 0.243064 47.0433C0.00830078 46.9258 -0.05039 46.6908 0.0669915 46.4559C1.82771 42.9318 6.52297 41.9333 10.1618 42.5207C14.3875 43.2255 18.2024 47.8068 18.2024 52.1532C18.2024 52.3881 18.0264 52.6231 17.7916 52.6231Z" fill="#B5B2A5"/>
<path d="M51.3627 52.1531H26.6539C26.4191 52.1531 26.1843 51.9769 26.1843 51.6833V26.9558C26.1843 26.7209 26.3604 26.486 26.6539 26.486H51.3627C51.5974 26.486 51.8322 26.6622 51.8322 26.9558V51.6833C51.7735 51.9182 51.5974 52.1531 51.3627 52.1531ZM27.0647 51.2721H50.8931V27.4257H27.0647V51.2721Z" fill="#B5B2A5"/>
<path d="M0.477827 15.8549C0.419136 15.8549 0.419136 15.8549 0.360445 15.8549C0.125682 15.7962 0.00830078 15.62 0.00830078 15.3851V0.701325C0.00830078 0.40765 0.184373 0.231445 0.477827 0.231445H15.2092C15.3853 0.231445 15.5613 0.348915 15.62 0.583855C15.6787 0.76006 15.5613 0.994999 15.3853 1.05373C13.0963 2.3459 11.8051 4.5191 11.5704 7.45584C11.3943 9.68777 11.9225 11.626 11.9225 11.626C11.9812 11.8022 11.9225 11.9197 11.8051 12.0372C11.6878 12.1546 11.5117 12.2134 11.3943 12.1546C11.3943 12.1546 9.5162 11.626 7.22726 11.8022C4.29273 12.0372 2.12117 13.3293 0.829971 15.62C0.771281 15.7375 0.595208 15.8549 0.477827 15.8549ZM0.888662 1.11247V13.9754C3.94058 10.2751 9.04668 10.8037 10.9248 11.1561C10.5726 9.27662 10.0444 4.16669 13.7419 1.11247H0.888662Z" fill="#B5B2A5"/>
<path d="M77.5388 15.8549C77.3627 15.8549 77.2453 15.7962 77.128 15.62C75.8368 13.3293 73.6652 12.0372 70.7307 11.8022C68.5004 11.626 66.6223 12.1546 66.5636 12.1546C66.3876 12.2134 66.2702 12.1546 66.1528 12.0372C66.0354 11.9197 65.9767 11.7435 66.0354 11.626C66.0354 11.626 66.5636 9.68777 66.3876 7.45584C66.1528 4.5191 64.8616 2.3459 62.5727 1.05373C62.3966 0.936264 62.3379 0.76006 62.3379 0.583855C62.3966 0.40765 62.5727 0.231445 62.7487 0.231445H77.4801C77.7149 0.231445 77.9496 0.40765 77.9496 0.701325V15.4438C77.9496 15.62 77.8322 15.7962 77.5975 15.8549C77.5975 15.8549 77.5975 15.8549 77.5388 15.8549ZM69.7916 10.9212C72.0806 10.9212 75.0738 11.5086 77.128 13.9754V1.11247H64.2747C67.9722 4.16669 67.444 9.27662 67.0918 11.1561C67.6788 11.0387 68.6178 10.9212 69.7916 10.9212Z" fill="#B5B2A5"/>
<path d="M15.1505 78.2315H0.477827C0.243064 78.2315 0.00830078 78.0553 0.00830078 77.7616V63.1953C0.00830078 63.0191 0.125682 62.8429 0.360445 62.7842C0.536518 62.7255 0.771281 62.8429 0.829971 63.0191C3.94058 68.4815 11.3356 66.4845 11.3943 66.4258C11.5704 66.367 11.6878 66.4258 11.8051 66.5432C11.9225 66.6607 11.9812 66.8369 11.9225 66.9544C11.9225 66.9544 11.3943 68.8339 11.5704 71.0658C11.8051 74.0026 13.0963 76.117 15.3853 77.4092C15.5613 77.5267 15.62 77.7029 15.62 77.8791C15.5613 78.114 15.3853 78.2315 15.1505 78.2315ZM0.888662 77.3505H13.7419C10.0444 74.355 10.5726 69.245 10.9248 67.4243C9.04668 67.7767 3.94058 68.3053 0.888662 64.6637V77.3505Z" fill="#B5B2A5"/>
<path d="M77.5388 78.2315H62.8074C62.6314 78.2315 62.4553 78.114 62.3966 77.8791C62.3379 77.7029 62.4553 77.4679 62.6314 77.4092C68.1483 74.2962 66.0941 67.0131 66.0941 66.9544C66.0354 66.7782 66.0941 66.6607 66.2115 66.5432C66.3289 66.4257 66.505 66.367 66.6223 66.4257C66.681 66.4257 74.0761 68.4815 77.1867 63.0191C77.3041 62.8429 77.4801 62.7842 77.6562 62.7842C77.8323 62.8429 78.0084 63.0191 78.0084 63.1953V77.7616C78.0084 78.0553 77.7736 78.2315 77.5388 78.2315ZM64.2747 77.3504H77.128V64.605C74.0761 68.3053 68.97 67.7179 67.0919 67.3655C67.3853 69.245 67.9722 74.355 64.2747 77.3504Z" fill="#B5B2A5"/>
</g>
<defs>
<clipPath id="clip0">
<rect width="78" height="78" fill="white" transform="translate(0.00830078 0.231445)"/>
</clipPath>
</defs>
</svg>
