<svg width="79" height="78" viewBox="0 0 79 78" fill="none" xmlns="http://www.w3.org/2000/svg">
<g opacity="0.15" clip-path="url(#clip0)">
<path d="M38.8511 69.5813C38.7338 69.5813 38.6164 69.5226 38.5577 69.4639L8.21457 39.0621C8.0385 38.886 8.0385 38.5926 8.21457 38.4165L38.5577 8.13205C38.7338 7.95598 39.0272 7.95598 39.2033 8.13205L69.6051 38.4165C69.6638 38.4752 69.7225 38.5926 69.7225 38.7099C69.7225 38.8273 69.6638 38.9447 69.6051 39.0034L39.2033 69.4052C39.0859 69.5226 38.9685 69.5813 38.8511 69.5813ZM9.15363 38.7099L38.8511 68.5248L68.6074 38.7099L38.8511 9.07111L9.15363 38.7099Z" fill="#B5B2A5"/>
<path d="M39.3616 32.4921C39.1269 32.4921 38.8921 32.316 38.8921 32.0226V30.2619C38.8921 29.7336 38.716 29.2641 38.3639 28.912C38.0118 28.5598 37.5422 28.3837 36.9553 28.3837C36.4271 28.3837 35.9576 28.5598 35.6641 28.912C35.3707 29.2641 35.1359 29.7923 35.0185 30.3792C35.0185 30.4966 34.9011 30.6727 34.7838 30.7314C34.6664 30.7901 34.4903 30.7901 34.3729 30.7314C34.0795 30.5553 33.7273 30.2032 33.4926 29.7923C31.6732 27.2099 31.6145 24.158 33.3165 21.8691C34.0208 20.93 35.0185 20.2844 35.9576 19.6975C37.3075 18.8172 38.5987 17.9955 39.0095 16.3521C39.0682 16.1761 39.2443 16 39.4203 16C39.5964 16 39.7725 16.1174 39.8312 16.3521C40.242 18.0542 41.5332 18.8758 42.8831 19.6975C43.8221 20.2844 44.8199 20.93 45.5242 21.8691C47.2262 24.158 47.1675 27.1512 45.3481 29.7923C45.0546 30.2032 44.7612 30.4966 44.4677 30.7314C44.3504 30.7901 44.1743 30.8488 44.0569 30.7314C43.9395 30.6727 43.8221 30.5553 43.8221 30.3792C43.7048 29.7923 43.47 29.2641 43.1765 28.9707C42.8831 28.6772 42.4136 28.5011 41.8853 28.4424C41.3571 28.4424 40.8289 28.6185 40.4768 28.9707C40.1246 29.3228 39.9486 29.7923 39.9486 30.3205V32.0813C39.7725 32.316 39.5964 32.4921 39.3616 32.4921ZM41.7093 27.5621C41.7093 27.5621 41.768 27.5621 41.7093 27.5621C42.4723 27.5621 43.1765 27.8555 43.6461 28.3251C43.9982 28.6772 44.233 29.088 44.3504 29.4989C44.409 29.4402 44.4677 29.3228 44.5264 29.2641C46.1111 26.9752 46.2285 24.3341 44.7612 22.3973C44.1743 21.5756 43.2939 21.0474 42.3549 20.4605C41.2397 19.7562 40.0659 18.9932 39.3616 17.702C38.6574 18.9932 37.4835 19.7562 36.3684 20.4605C35.4294 21.0474 34.6077 21.5756 33.9621 22.3973C32.4948 24.3341 32.5535 26.9752 34.1969 29.2641C34.2555 29.3228 34.3142 29.4402 34.3729 29.4989C34.4903 29.088 34.7251 28.6772 35.0772 28.3251C35.5467 27.8555 36.251 27.5621 36.9553 27.5621C37.7183 27.5621 38.4813 27.8555 39.0095 28.3837C39.1269 28.5011 39.2443 28.6772 39.3616 28.8533C39.479 28.6772 39.5964 28.5598 39.7138 28.3837C40.242 27.8555 40.9463 27.5621 41.7093 27.5621Z" fill="#B5B2A5"/>
<path d="M25.6491 46.6742C24.3579 46.6742 23.0667 46.2633 21.9516 45.4416C21.0125 44.7374 20.3669 43.7396 19.78 42.8006C18.8997 41.4507 18.078 40.1595 16.4347 39.7486C16.2586 39.69 16.0825 39.5139 16.0825 39.3378C16.0825 39.1617 16.1999 38.9857 16.4347 38.927C18.1367 38.5161 18.9584 37.2249 19.78 35.8751C20.3669 34.936 21.0125 33.9383 21.9516 33.234C24.2405 31.5319 27.2338 31.5906 29.8748 33.41C30.2857 33.7035 30.5791 33.997 30.8139 34.2904C30.8726 34.4078 30.9313 34.5839 30.8139 34.7012C30.7552 34.8186 30.6378 34.936 30.4618 34.936C29.8748 35.0534 29.3466 35.2882 29.0532 35.5816C28.7597 35.8751 28.5836 36.3446 28.525 36.8728C28.525 37.401 28.701 37.9292 29.0532 38.2814C29.4053 38.6335 29.8748 38.8096 30.4031 38.8096H32.1638C32.3985 38.8096 32.6333 38.9857 32.6333 39.2791C32.6333 39.5726 32.4572 39.7486 32.1638 39.7486H30.4031C29.8748 39.7486 29.4053 39.9247 29.0532 40.2769C28.701 40.629 28.525 41.1572 28.525 41.6854C28.525 42.2137 28.701 42.6832 29.0532 42.9766C29.3466 43.2701 29.8748 43.5049 30.4618 43.6222C30.5791 43.6222 30.7552 43.7396 30.8139 43.857C30.8726 43.9744 30.8726 44.1505 30.7552 44.2678C30.5791 44.5613 30.227 44.9134 29.8162 45.1482C28.525 46.2046 27.0577 46.6742 25.6491 46.6742ZM17.7846 39.3378C19.0757 40.0421 19.8387 41.2159 20.543 42.331C21.1299 43.2701 21.6581 44.0918 22.4798 44.7374C24.4166 46.2046 27.0577 46.1459 29.3466 44.5026C29.4053 44.4439 29.5227 44.3852 29.5814 44.3265C29.1706 44.2091 28.7597 43.9744 28.4076 43.6222C27.9381 43.1527 27.6446 42.4484 27.6446 41.7441C27.6446 40.9812 27.9381 40.2182 28.4663 39.69C28.5836 39.5726 28.7597 39.4552 28.9358 39.3378C28.7597 39.2204 28.6423 39.103 28.4663 38.9857C27.9381 38.4574 27.6446 37.7532 27.6446 36.9315C27.6446 36.2272 27.9381 35.5229 28.4076 35.0534C28.7597 34.7012 29.1706 34.4665 29.5814 34.3491C29.5227 34.2904 29.4053 34.2317 29.3466 34.173C27.0577 32.5884 24.4166 32.471 22.4798 33.9383C21.6581 34.5252 21.1299 35.4055 20.543 36.3446C19.8387 37.5184 19.0757 38.6922 17.7846 39.3378Z" fill="#B5B2A5"/>
<path d="M22.2158 78.316C21.9223 78.316 21.6876 78.316 21.3941 78.2574C20.2203 78.0226 19.1639 77.2009 18.6943 76.0858C18.3422 75.1467 18.4596 74.2077 19.1052 73.386C19.6921 72.623 20.8072 72.2122 21.8049 72.3883C22.6853 72.5643 23.3896 73.2099 23.6244 74.0903C23.6831 74.3251 23.5657 74.5598 23.3309 74.6185C23.0961 74.6772 22.8614 74.5598 22.8027 74.3251C22.6853 73.7968 22.2745 73.386 21.6876 73.2686C20.9833 73.1513 20.279 73.386 19.8682 73.9142C19.3399 74.6185 19.3986 75.3228 19.5747 75.7923C19.8682 76.614 20.6898 77.2596 21.5702 77.4357C22.744 77.6704 23.9178 77.2596 24.7395 76.4966C25.4438 75.7923 25.7372 74.7946 25.5612 73.7382C25.0916 71.2145 21.6876 70.8036 20.279 70.7449H19.9855C18.2248 70.6862 16.288 70.5689 14.8208 69.4537C13.4709 68.3973 12.8253 66.5779 13.1774 64.9932C13.5882 63.3499 15.1729 62 16.8162 62C18.577 62 20.2203 63.2912 20.4551 64.9932C20.5724 65.8149 20.3377 66.754 19.8095 67.5169C19.2812 68.2212 18.5183 68.6907 17.7553 68.8081C17.5205 68.8081 17.2858 68.6907 17.2271 68.456C17.1684 68.2212 17.3445 67.9865 17.5792 67.9278C18.1661 67.8691 18.6943 67.5169 19.0465 66.9887C19.4573 66.4605 19.6334 65.7562 19.516 65.1693C19.3399 63.9368 18.1074 62.9391 16.8162 62.9391H16.7575C15.4664 62.9977 14.2925 63.9955 13.9404 65.2867C13.6469 66.5779 14.1752 67.9865 15.2316 68.8081C16.4641 69.7472 18.2248 69.8646 19.9268 69.9233H20.279C23.7417 70.0406 25.972 71.4492 26.3828 73.6208C26.6176 74.912 26.2654 76.2032 25.3264 77.1422C24.5047 77.8465 23.3896 78.316 22.2158 78.316Z" fill="#B5B2A5"/>
<path d="M12.4716 64.5053C11.1217 64.5053 9.77183 63.8597 8.95016 62.7446C7.83503 61.2773 7.71765 59.2818 7.65896 57.5211V57.2277C7.60027 55.8191 7.18944 52.415 4.66573 51.9455C3.66799 51.7694 2.67025 52.0042 1.96596 52.7672C1.14429 53.5888 0.792144 54.7626 0.968216 55.9365C1.14429 56.8168 1.78989 57.6385 2.61156 57.9319C3.08108 58.108 3.72668 58.1667 4.43097 57.6385C4.95919 57.2277 5.19395 56.4647 5.07657 55.7604C5.01788 55.4082 4.78311 54.8213 4.02013 54.6453C3.78537 54.5866 3.66799 54.3518 3.72668 54.117C3.78537 53.8823 4.02013 53.7649 4.2549 53.8236C5.13526 54.0584 5.72217 54.704 5.95693 55.643C6.19169 56.6407 5.78086 57.7559 5.01788 58.3428C4.19621 58.9884 3.25716 59.1058 2.3181 58.7536C1.20298 58.3428 0.381309 57.2277 0.146546 56.0538C-0.0882172 54.5866 0.322618 53.1193 1.37905 52.1216C2.3181 51.2412 3.55061 50.8304 4.9005 51.0651C7.13074 51.476 8.48063 53.7062 8.59801 57.169V57.5211C8.6567 59.2231 8.71539 60.9839 9.71314 62.2164C10.5348 63.2728 12.0021 63.8597 13.2346 63.5076C14.5258 63.2141 15.5235 61.9816 15.5822 60.6904C15.6409 59.3992 14.5845 58.108 13.352 57.9319C12.7651 57.8146 12.0608 57.9906 11.5325 58.4015C11.0043 58.8123 10.6522 59.3405 10.5935 59.9274C10.5348 60.1622 10.3587 60.3383 10.0653 60.2796C9.83052 60.2209 9.65445 60.0448 9.71314 59.7514C9.83052 58.9297 10.3 58.1667 11.0043 57.6385C11.7673 57.1103 12.6477 56.8755 13.4693 56.9929C15.1714 57.2863 16.4626 58.9297 16.4039 60.6317C16.3452 62.2751 15.054 63.8597 13.4107 64.2705C13.1172 64.5053 12.8237 64.5053 12.4716 64.5053Z" fill="#B5B2A5"/>
<path d="M12.2902 78.2156H0.552046C0.317283 78.2156 0.0825195 78.0395 0.0825195 77.7461V66.0079C0.0825195 65.8318 0.14121 65.7145 0.317283 65.6558C0.434664 65.5971 0.610736 65.5971 0.728118 65.6558C1.02157 65.8318 8.18184 69.412 14.4618 63.1321C14.6378 62.956 14.9313 62.956 15.1074 63.1321C15.166 63.1907 15.2247 63.3081 15.2247 63.4255C15.2247 63.5429 15.166 63.6603 15.1074 63.719C8.82744 69.9989 12.525 77.2178 12.6423 77.5113C12.701 77.6287 12.701 77.8048 12.6423 77.9221C12.5836 78.1569 12.4076 78.2156 12.2902 78.2156ZM0.962881 77.3352H11.5859C10.8816 75.6332 9.47304 70.8205 12.2902 66.0079C7.47755 68.8251 2.66491 67.4165 1.02157 66.7122V77.3352H0.962881Z" fill="#B5B2A5"/>
<path d="M55.32 77.4334C54.1462 77.4334 53.0311 76.9639 52.2094 76.1422C51.2703 75.2032 50.9182 73.912 51.1529 72.6208C51.5638 70.3905 53.794 69.0406 57.2568 68.9232H57.6089C59.311 68.8646 61.013 68.8059 62.3042 67.8081C63.3606 66.9865 63.8888 65.5192 63.5954 64.2867C63.3019 62.9955 62.0694 61.9977 60.7782 61.9391C59.487 61.8804 58.1958 62.9368 58.0198 64.1693C57.9024 64.8149 58.0785 65.4605 58.4893 65.9887C58.9001 66.5169 59.4284 66.8691 59.9566 66.9278C60.1913 66.9865 60.3674 67.1625 60.3087 67.456C60.25 67.6907 60.0153 67.8668 59.7805 67.8081C58.9588 67.6907 58.2545 67.2212 57.7263 66.5169C57.1981 65.754 56.9633 64.8736 57.0807 63.9932C57.3742 62.2912 59.0175 61 60.7195 61C62.3629 61.0587 63.9475 62.3499 64.3584 63.9932C64.7692 65.5779 64.0649 67.3973 62.715 68.4537C61.2478 69.5688 59.2523 69.6862 57.5502 69.7449H57.2568C55.8482 69.8036 52.4441 70.2144 51.9746 72.7381C51.7985 73.7946 52.0333 74.7336 52.7963 75.4966C53.618 76.3183 54.7918 76.6704 55.9656 76.4357C56.846 76.2596 57.6676 75.614 57.9611 74.7923C58.1372 74.3228 58.2545 73.6772 57.6676 72.9142C57.2568 72.386 56.5525 72.1512 55.8482 72.2686C55.2613 72.386 54.8505 72.7381 54.7331 73.3251C54.6744 73.5598 54.4396 73.6772 54.2049 73.6185C53.9701 73.5598 53.8527 73.3251 53.9114 73.0903C54.1462 72.2099 54.7918 71.5643 55.7308 71.3883C56.7286 71.1535 57.8437 71.5643 58.4306 72.386C59.0762 73.2077 59.1936 74.1467 58.8414 75.0858C58.4306 76.2009 57.3742 77.0226 56.1417 77.2573C55.8482 77.4334 55.6134 77.4334 55.32 77.4334Z" fill="#B5B2A5"/>
<path d="M66.0166 64.3932C65.7232 64.3932 65.371 64.3345 65.0776 64.2758C63.4342 63.865 62.1431 62.2804 62.0844 60.637C62.0257 58.8763 63.3756 57.233 65.0189 56.9982C65.8406 56.8808 66.7796 57.1156 67.4839 57.6438C68.1882 58.172 68.6577 58.935 68.7751 59.7567C68.8338 59.9914 68.6577 60.2262 68.423 60.2849C68.1882 60.3436 67.9534 60.1675 67.8947 59.9327C67.8361 59.3458 67.4839 58.8176 66.9557 58.4068C66.4275 57.9959 65.7232 57.8199 65.1363 57.9372C63.9038 58.1133 62.906 59.4045 62.906 60.6957C62.9647 61.9869 63.9625 63.2194 65.2537 63.5129C66.4862 63.8063 67.9534 63.2781 68.7751 62.2217C69.7142 60.9305 69.8315 59.2284 69.8902 57.5264V57.1743C70.0076 53.7115 71.3575 51.4813 73.5877 51.0704C74.8789 50.8357 76.1701 51.1878 77.1092 52.1269C78.1069 53.1246 78.5765 54.5919 78.3417 56.0591C78.1069 57.233 77.2853 58.3481 76.1701 58.7589C75.2311 59.1111 74.292 58.9937 73.4704 58.3481C72.7074 57.7612 72.2966 56.646 72.5313 55.6483C72.7074 54.7679 73.353 54.0637 74.2333 53.8289C74.4681 53.7702 74.7029 53.8876 74.7616 54.1223C74.8203 54.3571 74.7029 54.5919 74.4681 54.6506C73.7051 54.8266 73.5291 55.4135 73.4117 55.7657C73.2943 56.47 73.5291 57.233 74.0573 57.6438C74.7616 58.172 75.4659 58.1133 75.8767 57.9372C76.6984 57.6438 77.344 56.8221 77.52 55.9418C77.7548 54.7679 77.344 53.5354 76.5223 52.7725C75.818 52.0682 74.8203 51.7747 73.8225 51.9508C71.2988 52.4203 70.888 55.8244 70.8293 57.233V57.5264C70.7706 59.2871 70.6532 61.2239 69.5381 62.7499C68.6577 63.7476 67.3078 64.3932 66.0166 64.3932Z" fill="#B5B2A5"/>
<path d="M77.7552 78.1569H66.0171C65.841 78.1569 65.7236 78.0982 65.6649 77.9221C65.6062 77.8047 65.6062 77.6287 65.6649 77.5113C65.841 77.2178 69.4798 69.9989 63.1999 63.719C63.1412 63.6603 63.0825 63.5429 63.0825 63.4255C63.0825 63.3081 63.1412 63.1907 63.1999 63.1321C63.376 62.956 63.6694 62.956 63.8455 63.1321C70.1254 69.412 77.5205 65.6558 77.5791 65.6558C77.6965 65.5971 77.8726 65.5971 77.99 65.6558C78.1074 65.7144 78.2247 65.8905 78.2247 66.0079V77.746C78.2247 77.9808 77.99 78.1569 77.7552 78.1569ZM66.7213 77.2765H77.3444V66.6535C75.6423 67.2991 70.8297 68.7664 66.0757 65.9492C68.8342 70.7618 67.3669 75.5745 66.7213 77.2765Z" fill="#B5B2A5"/>
<path d="M16.9554 16.3214C16.8967 16.3214 16.8967 16.3214 16.838 16.3214C15.1946 16.2627 13.61 14.9715 13.1992 13.3281C12.7883 11.7435 13.4926 9.92407 14.8425 8.86764C16.3098 7.75251 18.3053 7.63513 20.0073 7.57644H20.3007C21.7093 7.51775 25.1134 7.10692 25.5829 4.58321C25.759 3.52678 25.5242 2.58773 24.7612 1.82475C23.9396 1.00308 22.7658 0.650934 21.5919 0.885697C20.7116 1.06177 19.8899 1.70737 19.5965 2.52904C19.4204 2.99856 19.303 3.64416 19.8899 4.40714C20.3007 4.93536 21.005 5.17012 21.7093 5.05274C22.2962 4.93536 22.7071 4.58321 22.8244 3.99631C22.8831 3.76154 23.1179 3.64416 23.3527 3.70285C23.5874 3.76154 23.7048 3.99631 23.6461 4.23107C23.4114 5.11143 22.7658 5.75703 21.8267 5.9331C20.829 6.16786 19.7138 5.75703 19.1269 4.93536C18.4813 4.11369 18.3639 3.17464 18.7161 2.23558C19.1269 1.12046 20.1834 0.298789 21.4159 0.0640263C22.8831 -0.170737 24.3504 0.240099 25.3481 1.29653C26.2872 2.23558 26.6393 3.52678 26.4046 4.81798C25.9937 7.04823 23.7635 8.39811 20.3007 8.51549H19.9486C18.2466 8.57418 16.5445 8.63288 15.2533 9.63062C14.1969 10.4523 13.6687 11.9196 13.9621 13.1521C14.2556 14.4433 15.4881 15.441 16.7793 15.4997C18.0705 15.5584 19.3617 14.502 19.5378 13.2694C19.6551 12.6238 19.4791 11.9782 19.0682 11.45C18.6574 10.9218 18.1292 10.5697 17.601 10.511C17.3662 10.4523 17.1901 10.2762 17.2488 9.98276C17.3075 9.748 17.5423 9.57193 17.777 9.63062C18.5987 9.748 19.303 10.2175 19.8312 10.9218C20.3594 11.6848 20.5942 12.5652 20.4768 13.4455C20.2421 14.9715 18.6574 16.3214 16.9554 16.3214Z" fill="#B5B2A5"/>
<path d="M4.07433 26.4764C3.07659 26.4764 2.07885 26.0655 1.37456 25.3613C0.376815 24.3635 -0.092711 22.8962 0.142052 21.429C0.376815 20.2552 1.19849 19.14 2.31361 18.7292C3.25266 18.3771 4.19171 18.4944 5.01338 19.14C5.77636 19.7269 6.1872 20.8421 5.95244 21.8398C5.77636 22.7202 5.13077 23.4245 4.2504 23.6592C4.01564 23.7179 3.78088 23.6005 3.72219 23.3658C3.6635 23.131 3.78088 22.8962 4.01564 22.8376C4.77862 22.6615 4.95469 22.0746 5.07207 21.7224C5.18946 21.0181 4.95469 20.2552 4.42648 19.8443C3.72219 19.3161 3.0179 19.3748 2.60706 19.5509C1.84408 19.8443 1.19849 20.666 1.02241 21.5464C0.78765 22.7202 1.19849 23.9527 2.02016 24.7157C2.72444 25.42 3.72219 25.7134 4.71993 25.5373C7.24363 25.0678 7.65447 21.6637 7.71316 20.2552V19.9617C7.77185 18.201 7.88923 16.2642 9.00435 14.7382C10.0021 13.3883 11.8802 12.7427 13.4649 13.0949C15.1082 13.5057 16.3994 15.0904 16.4581 16.7337C16.5168 18.4944 15.1669 20.1378 13.5235 20.3725C12.7019 20.4899 11.7628 20.2552 11.0585 19.7269C10.3542 19.1987 9.88472 18.4358 9.76733 17.6141C9.70864 17.3793 9.88472 17.1446 10.1195 17.0859C10.3542 17.0859 10.589 17.2032 10.6477 17.438C10.7064 18.0249 11.0585 18.5531 11.5867 18.964C12.115 19.3748 12.8193 19.5509 13.4062 19.4335C14.6387 19.2574 15.6364 17.9662 15.6364 16.675C15.5777 15.3838 14.58 14.1513 13.2888 13.8579C11.9976 13.5644 10.589 14.0926 9.76733 15.1491C8.82828 16.4403 8.7109 18.1423 8.65221 19.8443V20.1965C8.53483 23.6592 7.18494 25.8895 4.95469 26.3003C4.60255 26.4764 4.36779 26.4764 4.07433 26.4764Z" fill="#B5B2A5"/>
<path d="M14.8139 15.2009C14.6965 15.2009 14.5791 15.1422 14.5204 15.0835C8.18184 8.80361 1.02157 12.3837 0.728118 12.5598C0.610736 12.6185 0.434664 12.6185 0.317283 12.5598C0.199901 12.4424 0.0825195 12.3251 0.0825195 12.149V0.410835C0.0825195 0.176072 0.317283 0 0.552046 0H12.2902C12.4663 0 12.5836 0.0586907 12.6423 0.234763C12.701 0.352145 12.701 0.528217 12.6423 0.645598C12.4663 0.939052 8.82744 8.15801 15.1074 14.4379C15.166 14.4966 15.2247 14.614 15.2247 14.7314C15.2247 14.8488 15.166 14.9661 15.1074 15.0248C15.0487 15.0835 14.8726 15.2009 14.8139 15.2009ZM6.01029 10.5643C7.88839 10.5643 10.0599 10.9752 12.2315 12.2664C9.47304 7.39503 10.9403 2.58239 11.5859 0.880361H0.962881V11.5034C1.90193 11.1512 3.78004 10.5643 6.01029 10.5643Z" fill="#B5B2A5"/>
<path d="M60.7195 16.4343C59.0175 16.4343 57.4329 15.1431 57.1981 13.441C57.0807 12.6194 57.3155 11.6803 57.8437 10.9173C58.3719 10.213 59.1349 9.74351 59.8979 9.62612C60.1326 9.56743 60.3674 9.74351 60.4261 9.97827C60.4848 10.213 60.3087 10.4478 60.0739 10.5065C59.487 10.5652 58.9588 10.9173 58.6067 11.4455C58.1958 11.9738 58.0198 12.678 58.1371 13.265C58.3132 14.4975 59.6044 15.5539 60.8956 15.4952C62.1868 15.4365 63.3606 14.4388 63.7128 13.1476C64.0062 11.8564 63.478 10.4478 62.4216 9.62612C61.1891 8.68707 59.4283 8.56969 57.7263 8.511H57.3742C53.794 8.39362 51.5638 7.04373 51.1529 4.81348C50.9182 3.52229 51.2703 2.23109 52.2094 1.29204C53.2071 0.294295 54.6744 -0.175231 56.1417 0.0595325C57.3155 0.294295 58.3719 1.11597 58.8414 2.23109C59.1936 3.17014 59.0762 4.10919 58.4306 4.93086C57.8437 5.69384 56.7286 6.10468 55.7308 5.92861C54.8505 5.75254 54.1462 5.10694 53.9114 4.22658C53.8527 3.99181 53.9701 3.75705 54.2049 3.69836C54.4396 3.63967 54.6744 3.75705 54.7331 3.99181C54.8505 4.52003 55.2613 4.93087 55.8482 5.04825C56.5525 5.16563 57.2568 4.93086 57.6676 4.40265C58.1958 3.69836 58.1371 2.99407 57.9611 2.52454C57.6676 1.76156 56.8459 1.11597 55.9656 0.939894C54.7918 0.705131 53.618 1.11597 52.7963 1.87895C52.092 2.58323 51.7985 3.58098 51.9746 4.63741C52.4441 7.16111 55.8482 7.57195 57.2568 7.63064H57.5502C59.311 7.68933 61.2478 7.80671 62.715 8.92184C64.0649 9.97827 64.7105 11.7977 64.3584 13.3823C63.9475 15.0257 62.3629 16.3756 60.7195 16.3756C60.7782 16.4343 60.7195 16.4343 60.7195 16.4343Z" fill="#B5B2A5"/>
<path d="M74.3508 27.3808C74.116 27.3808 73.8226 27.3808 73.5878 27.3221C71.3576 26.9112 70.0077 24.681 69.8903 21.2182V20.8661C69.8316 19.164 69.7729 17.4033 68.7752 16.1708C67.9535 15.1144 66.4862 14.5275 65.2537 14.8796C63.9625 15.1731 62.9648 16.4056 62.9061 17.6968C62.8474 18.988 63.9039 20.2792 65.1364 20.4552C65.7233 20.5726 66.4276 20.3966 66.9558 19.9857C67.484 19.5749 67.8361 19.0467 67.8948 18.4598C67.9535 18.225 68.1296 18.0489 68.423 18.1076C68.6578 18.1663 68.8339 18.3424 68.7752 18.6358C68.6578 19.4575 68.1883 20.2205 67.484 20.7487C66.721 21.2769 65.8406 21.5117 65.019 21.3943C63.3169 21.1008 62.0258 19.4575 62.0844 17.7555C62.1431 16.1121 63.4343 14.5275 65.0777 14.1166C66.6623 13.7058 68.4817 14.4101 69.5382 15.76C70.6533 17.2273 70.7707 19.2227 70.8294 20.9835V21.2769C70.8881 22.6855 71.2989 26.0896 73.8226 26.5591C74.8203 26.7352 75.8181 26.5004 76.5224 25.7374C77.344 24.9157 77.6962 23.7419 77.5201 22.5681C77.344 21.6877 76.6984 20.8661 75.8768 20.5726C75.4072 20.3966 74.7616 20.3379 74.0573 20.8661C73.5291 21.2769 73.2944 22.0399 73.4118 22.7442C73.4704 23.0963 73.7052 23.6832 74.4682 23.8593C74.7029 23.918 74.8203 24.1528 74.7616 24.3875C74.7029 24.6223 74.4682 24.7397 74.2334 24.681C73.3531 24.4462 72.7662 23.8006 72.5314 22.8616C72.2966 21.8638 72.7075 20.7487 73.4704 20.1618C74.2921 19.5162 75.2312 19.3988 76.1702 19.751C77.2853 20.1618 78.107 21.2769 78.3418 22.4507C78.5765 23.918 78.1657 25.3853 77.1093 26.383C76.2876 27.0286 75.3485 27.3808 74.3508 27.3808Z" fill="#B5B2A5"/>
<path d="M63.4934 15.1422C63.376 15.1422 63.2586 15.0835 63.1999 15.0248C63.1412 14.9661 63.0825 14.8488 63.0825 14.7314C63.0825 14.614 63.1412 14.4966 63.1999 14.4379C69.4798 8.15801 65.7823 0.939052 65.6649 0.645598C65.6062 0.528217 65.6062 0.352145 65.6649 0.234763C65.7236 0.117382 65.8997 0 66.0171 0H77.7552C77.99 0 78.2247 0.176072 78.2247 0.469526V12.2077C78.2247 12.3837 78.166 12.5011 77.99 12.5598C77.8726 12.6185 77.6965 12.6185 77.5791 12.5598C77.2857 12.3837 70.1254 8.80361 63.8455 15.0835C63.7281 15.0835 63.6107 15.1422 63.4934 15.1422ZM66.7213 0.82167C67.4256 2.5237 68.8342 7.33634 66.0171 12.149C70.8297 9.33183 75.6423 10.7404 77.2857 11.4447V0.82167H66.7213Z" fill="#B5B2A5"/>
<path d="M39.0678 78.0147C38.9505 78.0147 38.8331 77.956 38.7744 77.8973L0.214574 39.2788C0.0385015 39.1027 0.0385015 38.8093 0.214574 38.6332L38.7744 0.132054C38.9505 -0.0440181 39.2439 -0.0440181 39.42 0.132054L78.0385 38.6332C78.0972 38.6919 78.1559 38.8093 78.1559 38.9266C78.1559 39.044 78.0972 39.1614 78.0385 39.2201L39.42 77.8386C39.3026 77.956 39.1852 78.0147 39.0678 78.0147ZM1.15363 38.9266L39.0678 76.9582L77.0408 38.9266L39.0678 1.07111L1.15363 38.9266Z" fill="#B5B2A5"/>
<path d="M39.552 17.0203C39.3173 17.0203 39.0825 16.8442 39.0825 16.5508V0.469526C39.0825 0.176072 39.3173 0 39.552 0C39.7868 0 40.0216 0.176072 40.0216 0.469526V16.6095C39.9629 16.7856 39.7868 17.0203 39.552 17.0203Z" fill="#B5B2A5"/>
<path d="M39.4203 61.5508C39.2443 61.5508 39.0682 61.4334 39.0095 61.1986C38.5987 59.4966 37.3075 58.6749 35.9576 57.8533C35.0185 57.2664 34.0208 56.6208 33.3165 55.6817C31.6145 53.3928 31.6732 50.3995 33.4926 47.7585C33.786 47.3476 34.0795 47.0542 34.3729 46.8194C34.4903 46.7607 34.6664 46.702 34.7838 46.8194C34.9011 46.8781 35.0185 46.9955 35.0185 47.1716C35.1359 47.7585 35.3707 48.2867 35.6641 48.5801C35.9576 48.8736 36.4271 49.0497 36.9553 49.1084C37.4835 49.1084 38.0118 48.9323 38.3639 48.5801C38.716 48.228 38.8921 47.7585 38.8921 47.2302V45.4695C38.8921 45.2348 39.0682 45 39.3616 45C39.5964 45 39.8312 45.1761 39.8312 45.4695V47.2302C39.8312 47.7585 40.0072 48.228 40.3594 48.5801C40.7115 48.9323 41.2397 49.1084 41.768 49.1084C42.2962 49.1084 42.7657 48.9323 43.0592 48.5801C43.3526 48.2867 43.5874 47.7585 43.7048 47.1716C43.7048 47.0542 43.8221 46.8781 43.9395 46.8194C44.0569 46.7607 44.233 46.7607 44.3504 46.8194C44.6438 46.9955 44.996 47.3476 45.2307 47.7585C47.0501 50.3409 47.1088 53.3928 45.4068 55.6817C44.7025 56.6208 43.7048 57.2664 42.7657 57.8533C41.4158 58.7336 40.1246 59.5553 39.7138 61.1986C39.7725 61.4334 39.5964 61.5508 39.4203 61.5508ZM34.4316 48.0519C34.3729 48.1106 34.3142 48.228 34.2555 48.2867C32.6709 50.5756 32.5535 53.2167 34.0208 55.1535C34.6077 55.9752 35.4881 56.5034 36.4271 57.0903C37.5422 57.7946 38.716 58.5576 39.4203 59.8488C40.1246 58.5576 41.2984 57.7946 42.4136 57.0903C43.3526 56.5034 44.1743 55.9752 44.8199 55.1535C46.2872 53.2167 46.2285 50.5756 44.5851 48.2867C44.5264 48.228 44.4677 48.1106 44.4091 48.0519C44.2917 48.4628 44.0569 48.8736 43.7048 49.2257C43.2352 49.6953 42.5309 49.9887 41.8267 49.9887C41.0637 49.9887 40.3007 49.6953 39.7725 49.167C39.6551 49.0497 39.5377 48.8736 39.4203 48.6975C39.303 48.8736 39.1856 48.991 39.0682 49.167C38.54 49.6953 37.777 49.93 37.014 49.9887C36.3097 49.9887 35.6054 49.6953 35.1359 49.2257C34.7838 48.8736 34.549 48.4628 34.4316 48.0519Z" fill="#B5B2A5"/>
<path d="M39.552 78.079C39.3173 78.079 39.0825 77.9029 39.0825 77.6095V61.4695C39.0825 61.2348 39.2586 61 39.552 61C39.7868 61 40.0216 61.1761 40.0216 61.4695V77.6095C39.9629 77.9029 39.7868 78.079 39.552 78.079Z" fill="#B5B2A5"/>
<path d="M16.6333 38.939H0.552046C0.317283 38.939 0.0825195 38.763 0.0825195 38.4695C0.0825195 38.1761 0.258592 38 0.552046 38H16.692C16.9268 38 17.1615 38.1761 17.1615 38.4695C17.1615 38.763 16.8681 38.939 16.6333 38.939Z" fill="#B5B2A5"/>
<path d="M52.1841 46.5568C50.7755 46.5568 49.3083 46.0873 47.9584 45.1482C47.5475 44.8547 47.2541 44.5613 47.0193 44.2678C46.9606 44.1505 46.9019 43.9744 46.9606 43.857C47.0193 43.7396 47.1367 43.6222 47.3128 43.6222C47.8997 43.5049 48.4279 43.2701 48.7213 42.9766C49.0148 42.6832 49.1909 42.2137 49.2496 41.6854C49.2496 41.1572 49.0735 40.629 48.7213 40.2769C48.3692 39.9247 47.8997 39.7486 47.3715 39.7486H45.552C45.3173 39.7486 45.0825 39.5726 45.0825 39.2791C45.0825 39.0444 45.2586 38.8096 45.552 38.8096H47.3715C47.8997 38.8096 48.3692 38.6335 48.7213 38.2814C49.0735 37.9292 49.2496 37.401 49.2496 36.8728C49.2496 36.3446 49.0735 35.8751 48.7213 35.5816C48.4279 35.2881 47.8997 35.0534 47.3128 34.936C47.1954 34.936 47.0193 34.8186 46.9606 34.7012C46.9019 34.5839 46.9019 34.4078 46.9606 34.2904C47.1367 33.997 47.4888 33.6448 47.8997 33.41C50.4821 31.5906 53.534 31.5319 55.8229 33.234C56.762 33.9383 57.4076 34.936 57.9945 35.8751C58.8748 37.2249 59.6965 38.5161 61.3399 38.927C61.5159 38.9857 61.692 39.1617 61.692 39.3378C61.692 39.5139 61.5746 39.69 61.3399 39.7486C59.6378 40.1595 58.8162 41.4507 57.9945 42.8006C57.4076 43.7396 56.762 44.7374 55.8229 45.4417C54.7665 46.1459 53.4753 46.5568 52.1841 46.5568ZM48.1931 44.2678C48.2518 44.3265 48.3692 44.3852 48.4279 44.4439C50.7168 46.0286 53.3579 46.1459 55.2947 44.6787C56.1164 44.0918 56.6446 43.2114 57.2315 42.2724C57.9358 41.1572 58.6988 39.9834 59.99 39.2791C58.6988 38.5748 57.9358 37.401 57.2315 36.2859C56.6446 35.3468 56.1164 34.5252 55.2947 33.8796C53.3579 32.4123 50.7168 32.471 48.4279 34.1143C48.3692 34.173 48.2518 34.2317 48.1931 34.2904C48.604 34.4078 49.0148 34.6426 49.3669 34.9947C49.8365 35.4642 50.1299 36.1685 50.1299 36.8728C50.1299 37.6358 49.8365 38.3988 49.3083 38.927C49.1909 39.0444 49.0148 39.1617 48.8387 39.2791C49.0148 39.3965 49.1322 39.5139 49.3083 39.6313C49.8365 40.1595 50.1299 40.8638 50.1299 41.6854C50.1299 42.3897 49.8365 43.094 49.3669 43.5635C49.0148 43.857 48.604 44.0918 48.1931 44.2678Z" fill="#B5B2A5"/>
<path d="M77.692 38.939H61.552C61.3173 38.939 61.0825 38.763 61.0825 38.4695C61.0825 38.1761 61.2586 38 61.552 38H77.692C77.9268 38 78.1615 38.1761 78.1615 38.4695C78.1615 38.763 77.9855 38.939 77.692 38.939Z" fill="#B5B2A5"/>
<path d="M39.3602 46.5553C39.1254 46.5553 38.9493 46.3792 38.8906 46.1445C38.8906 45.9684 38.832 43.2099 37.0125 41.3905C35.9561 40.3341 34.4301 39.7472 32.552 39.7472C32.3173 39.7472 32.0825 39.5711 32.0825 39.2777C32.0825 39.0429 32.2586 38.8081 32.552 38.8081C34.4301 38.8081 35.9561 38.2799 37.0125 37.1648C38.832 35.3454 38.8906 32.6456 38.8906 32.4108C38.8906 32.1761 39.0667 32 39.3602 32C39.6536 32 39.771 32.1761 39.8297 32.4108C39.8297 32.5869 39.8884 35.3454 41.7078 37.1648C42.7642 38.2212 44.2902 38.8081 46.1683 38.8081C46.4031 38.8081 46.6378 38.9842 46.6378 39.2777C46.6378 39.5124 46.4618 39.7472 46.1683 39.7472C44.2902 39.7472 42.7642 40.2754 41.7078 41.3905C39.8884 43.2099 39.8297 45.9097 39.8297 46.1445C39.771 46.3792 39.5949 46.5553 39.3602 46.5553ZM35.3692 39.2777C36.2496 39.5711 37.0125 40.0993 37.7168 40.7449C38.5972 41.6253 39.0667 42.623 39.3602 43.5621C39.6536 42.623 40.1818 41.6253 41.0035 40.7449C41.6491 40.0993 42.4121 39.6298 43.3511 39.2777C42.4708 38.9842 41.7078 38.456 41.0035 37.8104C40.1231 36.93 39.6536 35.9323 39.3602 34.9932C39.0667 35.9323 38.5385 36.93 37.7168 37.8104C37.0125 38.5147 36.2496 38.9842 35.3692 39.2777Z" fill="#B5B2A5"/>
</g>
<defs>
<clipPath id="clip0">
<rect width="78" height="78" fill="white" transform="translate(0.0825195)"/>
</clipPath>
</defs>
</svg>
