<svg width="80" height="78" viewBox="0 0 80 78" fill="none" xmlns="http://www.w3.org/2000/svg">
<g opacity="0.5" clip-path="url(#clip0)">
<path d="M1.42775 78C1.19264 78 0.95752 77.8237 0.95752 77.5298V0.470234C0.95752 0.176338 1.13386 0 1.42775 0H78.6048C78.84 0 79.0751 0.176338 79.0751 0.470234C79.0751 0.76413 78.8987 0.940467 78.6048 0.940467H1.83921V77.5885C1.83921 77.7649 1.66287 78 1.42775 78Z" fill="#B5B2A5"/>
<path d="M58.1498 12.2849H12.7722C12.5371 12.2849 12.302 12.1086 12.302 11.8147C12.302 11.5795 12.4783 11.3444 12.7722 11.3444H58.1498C58.3849 11.3444 58.62 11.5208 58.62 11.8147C58.62 12.0498 58.4437 12.2849 58.1498 12.2849Z" fill="#B5B2A5"/>
<path d="M64.3805 18.7506C64.3217 18.7506 64.3217 18.7506 64.263 18.7506C64.0866 18.6918 63.9691 18.5154 63.9103 18.3391C63.7927 14.5185 61.6179 12.2848 58.1499 12.2848C57.9148 12.2848 57.6797 12.1085 57.6797 11.8146C57.6797 11.5795 57.856 11.3444 58.1499 11.3444C61.6179 11.3444 63.7927 9.05199 63.9103 5.29012C63.9103 5.11379 64.0278 4.93745 64.263 4.87867C64.4393 4.81989 64.6744 4.87867 64.7332 5.05501C66.908 8.4642 73.1386 11.3444 78.4287 11.3444H78.4875C78.7226 11.3444 78.899 11.5207 78.899 11.8146C78.899 12.0497 78.7226 12.2848 78.4287 12.2848C73.1974 12.2848 66.9668 15.165 64.7332 18.5742C64.6744 18.6918 64.5569 18.7506 64.3805 18.7506ZM60.7362 11.8146C62.6759 12.52 64.3217 14.1658 64.7332 17.1047C66.7905 14.6948 70.6699 12.6375 74.6081 11.8146C70.6699 10.9329 66.7905 8.93444 64.7332 6.52449C64.3217 9.46345 62.6759 11.1093 60.7362 11.8146Z" fill="#B5B2A5"/>
<path d="M52.6832 20.1613C51.9191 20.1613 51.2137 19.9849 50.6259 19.5735C49.9206 19.1032 49.4504 18.2803 49.3328 17.3986C49.2152 16.5757 49.5091 15.8116 49.9794 15.2238C50.1557 15.0475 50.4496 15.0475 50.6259 15.165C50.8023 15.3414 50.8023 15.6353 50.6847 15.8116C50.3321 16.2231 50.1557 16.7521 50.2145 17.2811C50.2733 17.9277 50.6259 18.5154 51.0962 18.8681C52.0954 19.5735 53.6237 19.4559 54.6229 18.633C55.5634 17.8689 55.9749 16.4582 55.6222 15.2238C55.3283 14.0482 54.4466 12.9902 53.1535 12.2848C51.684 11.4619 50.6259 10.1688 50.2733 8.75809C49.8618 7.17105 50.3908 5.46646 51.5664 4.46721C52.8596 3.3504 54.858 3.23285 56.21 4.17331C56.9153 4.64355 57.3856 5.46646 57.5031 6.34814C57.6207 7.17105 57.3268 7.99396 56.8565 8.52298C56.6802 8.69931 56.3863 8.69931 56.21 8.58176C56.0336 8.40542 56.0336 8.11152 56.1512 7.93518C56.5039 7.52373 56.6802 6.99472 56.6214 6.4657C56.5626 5.81913 56.21 5.23134 55.7397 4.87866C54.7405 4.17331 53.2122 4.29087 52.213 5.11378C51.2725 5.87791 50.8611 7.28861 51.2137 8.52298C51.5076 9.69856 52.3893 10.7566 53.6825 11.4619C55.1519 12.2848 56.21 13.578 56.5626 14.9887C56.9741 16.5757 56.4451 18.2803 55.2695 19.2796C54.5642 19.8674 53.6237 20.1613 52.6832 20.1613Z" fill="#B5B2A5"/>
<path d="M12.7722 57.6624C12.5371 57.6624 12.302 57.486 12.302 57.1921V11.8146C12.302 11.5795 12.4783 11.3444 12.7722 11.3444C13.0074 11.3444 13.2425 11.5207 13.2425 11.8146V57.1921C13.2425 57.486 13.0074 57.6624 12.7722 57.6624Z" fill="#B5B2A5"/>
<path d="M12.7722 78C12.5371 78 12.3607 77.8237 12.302 77.5885V77.5298C12.302 72.2984 9.42178 66.0678 6.01259 63.8342C5.83625 63.7166 5.77747 63.5403 5.83625 63.364C5.89503 63.1876 6.07137 63.0701 6.24771 63.0113C10.0684 62.8937 12.302 60.7189 12.302 57.2509C12.302 57.0158 12.4783 56.7807 12.7722 56.7807C13.0073 56.7807 13.2424 56.957 13.2424 57.2509C13.2424 60.7189 15.5348 62.8937 19.2967 63.0113C19.473 63.0113 19.6494 63.1289 19.7081 63.364C19.7669 63.5403 19.7081 63.7754 19.5318 63.8342C16.1226 66.009 13.2424 72.2396 13.2424 77.5298V77.5885C13.2424 77.7649 13.0073 78 12.7722 78ZM7.48207 63.7754C9.89202 65.8327 11.9493 69.7121 12.7722 73.6503C13.6539 69.7121 15.6524 65.8327 18.0623 63.7754C15.1234 63.364 13.4775 61.7182 12.7722 59.7784C12.0668 61.7182 10.421 63.364 7.48207 63.7754Z" fill="#B5B2A5"/>
<path d="M7.59955 56.6044C7.48199 56.6044 7.36443 56.6044 7.24687 56.6044C6.36518 56.4868 5.54227 56.0166 5.07204 55.3112C4.13157 54.0181 4.30791 51.9608 5.36594 50.6677C6.36518 49.4921 8.12856 48.9631 9.65682 49.3746C11.0675 49.7272 12.3607 50.7853 13.1836 52.2547C13.8889 53.4891 14.9469 54.3708 16.1225 54.7235C17.3569 55.0761 18.7676 54.6647 19.5317 53.7242C20.3546 52.725 20.4722 51.1967 19.7668 50.1975C19.4142 49.7272 18.8264 49.3746 18.1798 49.3158C17.592 49.257 17.063 49.4333 16.7103 49.786C16.534 49.9623 16.2401 49.9623 16.0638 49.7272C15.8874 49.5509 15.8874 49.257 16.1225 49.0807C16.7103 48.5516 17.4745 48.3165 18.2974 48.4341C19.179 48.5516 20.002 49.0219 20.4722 49.7272C21.4127 51.0204 21.2363 53.0776 20.1783 54.3708C19.1791 55.5464 17.4745 56.0754 15.8874 55.6639C14.4767 55.3112 13.1836 54.2532 12.3607 52.7837C11.6553 51.5494 10.5973 50.6677 9.4217 50.315C8.18734 49.9623 6.77664 50.3738 6.01251 51.3143C5.1896 52.3135 5.07204 53.8418 5.77739 54.841C6.13007 55.3113 6.71786 55.6639 7.36443 55.7227C7.95222 55.7815 8.48123 55.6051 8.83391 55.2525C9.01025 55.0761 9.30414 55.0761 9.48048 55.3112C9.65682 55.4876 9.65682 55.7815 9.4217 55.9578C8.95147 56.3693 8.3049 56.6044 7.59955 56.6044Z" fill="#B5B2A5"/>
<path d="M19.0029 44.5546C18.4739 44.5546 17.9449 44.4958 17.4159 44.3783C14.0067 43.4966 12.3608 40.9103 12.3608 36.5606C12.3608 36.3255 12.5372 36.0904 12.8311 36.0904C13.0662 36.0904 13.3013 36.2667 13.3013 36.5606C13.3013 40.4988 14.712 42.7324 17.7097 43.5554C21.2953 44.4958 24.2342 41.792 25.2335 38.6179C25.2923 38.4416 25.4686 38.324 25.6449 38.324C25.8213 38.324 25.9976 38.3828 26.0564 38.5591C26.7617 40.0286 28.0549 40.9103 29.348 40.8515C30.6412 40.734 31.8755 39.6759 32.4633 38.0889C32.5221 37.9126 32.6985 37.795 32.8748 37.795C33.0511 37.795 33.2275 37.9125 33.2862 38.0301C34.8145 41.4981 37.2832 41.3217 39.6344 41.1454C40.5161 41.0866 41.3978 41.0278 42.1619 41.2042C41.9856 40.4401 42.0443 39.5584 42.1031 38.6767C42.2795 36.3255 42.397 33.8568 38.9878 32.3285C38.8115 32.2697 38.6939 32.0934 38.7527 31.9171C38.7527 31.7407 38.8703 31.5644 39.0466 31.5056C40.6336 30.9178 41.7504 29.6835 41.8092 28.3903C41.9268 27.0972 40.9863 25.804 39.5168 25.0987C39.3405 25.0399 39.2817 24.8636 39.2817 24.6872C39.2817 24.5109 39.3993 24.3346 39.5756 24.2758C42.7497 23.2178 45.5123 20.2788 44.5131 16.752C43.6902 13.7543 41.5153 12.3436 37.5183 12.3436C37.2832 12.3436 37.0481 12.1673 37.0481 11.8734C37.0481 11.6383 37.2244 11.4031 37.5183 11.4031C41.868 11.4031 44.4543 13.049 45.336 16.4581C46.1001 19.3383 44.7482 22.9826 40.6924 24.746C41.9856 25.6865 42.7497 27.0384 42.6321 28.3903C42.5146 29.7422 41.5741 31.0354 40.1046 31.8583C43.2787 33.6805 43.1024 36.4431 42.926 38.6767C42.8673 40.0286 42.7497 41.2042 43.3963 41.8508C43.455 41.9095 43.5138 42.0271 43.5138 42.1447C43.5138 42.2622 43.455 42.3798 43.3963 42.4385C43.2199 42.6149 42.926 42.6149 42.7497 42.4385C42.1031 41.792 40.9275 41.8508 39.5756 41.9683C37.342 42.0859 34.5794 42.2622 32.7572 39.1469C31.9343 40.6164 30.6412 41.5569 29.2893 41.6744C27.9373 41.792 26.5854 41.0278 25.6449 39.7347C24.2342 43.0263 21.5304 44.5546 19.0029 44.5546Z" fill="#B5B2A5"/>
<path d="M28.2311 30.5064C27.996 30.5064 27.7609 30.5064 27.5258 30.4476C25.2334 29.9774 23.3524 27.6262 22.4707 25.5101C22.0005 24.3346 21.7066 22.9826 21.6478 21.6307C19.5906 21.6307 17.4745 22.1597 15.7699 23.2765C14.0653 24.4521 13.1836 26.0392 13.1836 28.0377C13.1836 28.2728 13.0073 28.5079 12.7134 28.5079C12.4783 28.5079 12.2432 28.3316 12.2432 28.0377C12.2432 25.7453 13.2424 23.8643 15.1821 22.5124C16.8867 21.3956 19.1791 20.749 21.5303 20.749C21.5891 18.3979 22.1768 16.1055 23.2937 14.4009C24.5868 12.4612 26.5265 11.4619 28.8189 11.4619C29.054 11.4619 29.2891 11.6383 29.2891 11.9321C29.2891 12.1673 29.1128 12.4024 28.8189 12.4024C26.8204 12.4024 25.2334 13.2841 24.0578 14.9887C22.941 16.6933 22.412 18.8093 22.412 20.8666C23.7639 20.9254 25.1158 21.2193 26.2914 21.6895C28.4074 22.5712 30.7586 24.4521 31.2288 26.7445C31.464 27.8613 31.1113 28.9781 30.3472 29.7423C29.8769 30.1537 29.054 30.5064 28.2311 30.5064ZM22.5295 21.5719C22.5883 22.8651 22.8822 24.0994 23.2349 25.0987C24.1753 27.3911 25.9387 29.1545 27.6433 29.5071C28.4662 29.6835 29.2304 29.4484 29.8181 28.8606C30.4059 28.2728 30.6411 27.5086 30.4647 26.6857C30.112 24.9811 28.3487 23.2178 26.0563 22.2773C25.1158 21.9246 23.8814 21.6895 22.5295 21.5719Z" fill="#B5B2A5"/>
</g>
<defs>
<clipPath id="clip0">
<rect width="78.0588" height="78" fill="white" transform="translate(0.95752)"/>
</clipPath>
</defs>
</svg>
