<svg width="30" height="39" viewBox="0 0 30 39" fill="none" xmlns="http://www.w3.org/2000/svg">
<path d="M12.0806 38.9365V27.9365L25.3306 26.1865L12.0806 38.9365Z" fill="#1A305E"/>
<rect y="0.311523" width="30" height="30" rx="15" fill="#1F3A70"/>
<g clip-path="url(#clip0)">
<path d="M19.3046 14.9078C19.4818 14.7351 19.5443 14.4818 19.4679 14.2462C19.3913 14.0107 19.1918 13.8425 18.9467 13.8069L16.7676 13.4902C16.6747 13.4767 16.5946 13.4185 16.5531 13.3343L15.5789 11.3599C15.4695 11.138 15.2474 11.0002 15 11.0002C14.7527 11.0002 14.5307 11.138 14.4213 11.3599L13.4469 13.3345C13.4054 13.4187 13.3251 13.4769 13.2323 13.4904L11.0531 13.807C10.8082 13.8425 10.6085 14.0109 10.5319 14.2464C10.4555 14.4819 10.518 14.7353 10.6952 14.908L12.2719 16.4449C12.3391 16.5105 12.3699 16.6049 12.3541 16.6972L11.9821 18.8673C11.9491 19.0584 11.9992 19.2442 12.1228 19.3907C12.315 19.619 12.6503 19.6886 12.9185 19.5476L14.8674 18.5229C14.9488 18.4802 15.0514 18.4806 15.1326 18.5229L17.0817 19.5476C17.1765 19.5976 17.2776 19.6228 17.3819 19.6228C17.5724 19.6228 17.753 19.5381 17.8772 19.3907C18.001 19.2442 18.0509 19.058 18.0179 18.8673L17.6458 16.6972C17.6299 16.6047 17.6607 16.5105 17.7279 16.4449L19.3046 14.9078Z" fill="white"/>
</g>
<defs>
<clipPath id="clip0">
<rect width="9" height="9" fill="white" transform="translate(10.5 10.8115)"/>
</clipPath>
</defs>
</svg>
