<svg width="165" height="84" viewBox="0 0 165 84" fill="none" xmlns="http://www.w3.org/2000/svg">
<g opacity="0.1">
<mask id="mask0" mask-type="alpha" maskUnits="userSpaceOnUse" x="0" y="0" width="165" height="85">
<rect x="164.93" y="84" width="164.859" height="84" transform="rotate(-180 164.93 84)" fill="#C4C4C4"/>
</mask>
<g mask="url(#mask0)">
<path d="M81.9175 -42.2957C82.0924 -42.2957 82.2672 -42.209 82.3546 -42.1223L124.666 -0.183929C124.928 0.0760193 124.928 0.509266 124.666 0.769215L82.3546 42.7076C82.0924 42.9676 81.6553 42.9676 81.393 42.7076L39.1691 0.769207C39.0817 0.68256 38.9943 0.509258 38.9943 0.335961C38.9943 0.162663 39.0817 -0.010639 39.1691 -0.097286L81.4804 -42.0357C81.5679 -42.209 81.7427 -42.2957 81.9175 -42.2957ZM123.267 0.249321L81.9175 -40.736L40.5678 0.249314L81.9175 41.3212L123.267 0.249321Z" fill="#B5B2A5"/>
<path d="M111.815 11.947C111.903 11.947 111.99 11.947 112.077 12.0337C112.34 12.1203 112.515 12.3803 112.515 12.6402L112.515 29.9701C112.515 30.3167 112.252 30.6633 111.815 30.6633L94.2437 30.6633C93.9814 30.6633 93.7192 30.49 93.6318 30.2301C93.5443 29.9701 93.5443 29.7102 93.8066 29.5369L111.378 12.1203C111.465 11.947 111.64 11.947 111.815 11.947ZM111.203 29.2769L111.203 14.1133L95.9047 29.2769L111.203 29.2769Z" fill="#B5B2A5"/>
<path d="M52.0199 11.9468C52.1947 11.9468 52.3696 12.0334 52.457 12.1201L70.0284 29.5369C70.2032 29.7102 70.2906 29.9701 70.2032 30.2301C70.1158 30.49 69.8535 30.6633 69.5913 30.6633L52.0199 30.6633C51.6702 30.6633 51.3205 30.4034 51.3205 29.9701L51.3205 12.5533C51.3205 12.2934 51.4954 12.0334 51.7576 11.9468C51.845 11.9468 51.9325 11.9468 52.0199 11.9468ZM67.9303 29.2769L52.6318 14.113L52.6318 29.2769L67.9303 29.2769Z" fill="#B5B2A5"/>
<path d="M7.43565 -3.47632C10.4079 -3.47632 13.5551 -2.43652 16.0902 -0.790187C21.1606 2.32918 22.909 6.31504 22.909 9.52106C24.0454 9.86766 25.0071 10.3876 26.0561 11.1674C26.4932 11.514 27.1926 12.1205 27.8919 12.7271C33.0497 17.2328 43.8024 26.591 51.2331 19.1391C51.4953 18.8792 51.9324 18.8792 52.1947 19.1391C52.4569 19.3991 52.4569 19.8323 52.1947 20.0923C43.8898 28.3239 32.0881 18.0993 27.0177 13.7669C26.3184 13.1603 25.7064 12.6404 25.2693 12.2938C24.4825 11.6873 23.6958 11.254 22.8216 10.9075C22.7341 11.4273 22.6467 11.8606 22.4719 12.2938C21.7725 14.4601 20.0241 15.8464 18.1009 16.0197C17.0518 16.1064 16.0902 15.8465 15.4783 15.2399C14.6915 14.5467 14.3418 13.5936 14.4292 12.5538C14.5167 11.514 15.1286 10.5608 16.0028 9.9543C17.5764 9.00116 19.6744 9.08782 21.1606 9.26111C21.3354 9.26111 21.4228 9.26111 21.5977 9.34776C21.4228 5.79515 18.6254 2.41583 15.3034 0.422894C10.9324 -2.26323 4.90048 -3.38967 1.22883 0.336246C0.966574 0.596193 0.529471 0.596193 0.26721 0.336246C0.0049497 0.0762989 0.00494974 -0.356946 0.26721 -0.616894C2.36529 -2.69647 4.81305 -3.47632 7.43565 -3.47632ZM21.5977 10.5609C21.4228 10.5609 21.248 10.4742 21.0732 10.4742C19.7619 10.3009 17.926 10.2143 16.7022 10.9941C16.1777 11.3407 15.7405 11.9472 15.7405 12.6404C15.6531 13.247 15.9154 13.8535 16.3525 14.2001C16.7022 14.5467 17.3141 14.72 18.0135 14.6334C19.7619 14.4601 20.8109 13.0737 21.248 11.7739C21.4228 11.3407 21.5103 10.9941 21.5977 10.5609Z" fill="#B5B2A5"/>
<path d="M44.8514 -22.6265C47.3866 -22.6265 49.9218 -21.76 52.1947 -19.5071C52.4569 -19.2471 52.4569 -18.8139 52.1947 -18.5539C51.9324 -18.2939 51.4953 -18.2939 51.2331 -18.5539C43.7149 -26.0058 33.0497 -16.6476 27.8919 -12.1418C27.1926 -11.5352 26.5806 -11.0153 26.0561 -10.5821C25.0071 -9.80224 24.0454 -9.28234 22.909 -8.93573C22.909 -5.46973 20.6361 -2.00373 16.7022 0.422479C11.8941 3.36858 4.81303 4.58169 0.354611 0.162531C0.0923503 -0.09742 0.0923503 -0.53067 0.354611 -0.79062C0.616871 -1.05057 1.05396 -1.05057 1.31622 -0.79062C5.25012 3.10864 11.7192 1.98218 16.0028 -0.70397C18.8877 -2.43697 21.5102 -5.38308 21.5977 -8.76244C21.4228 -8.76244 21.3354 -8.76244 21.1606 -8.67579C19.6744 -8.50249 17.5763 -8.41583 16.0028 -9.36899C15.1286 -9.97554 14.5166 -10.9287 14.4292 -11.9685C14.3418 -13.0083 14.6915 -13.9614 15.4783 -14.6546C16.0902 -15.2612 17.0518 -15.5211 18.1009 -15.4345C20.0241 -15.2612 21.7725 -13.8748 22.4719 -11.7085C22.6467 -11.2753 22.7341 -10.7554 22.8216 -10.3221C23.6958 -10.5821 24.4825 -11.0153 25.2693 -11.7085C25.7064 -12.0551 26.3184 -12.575 27.0177 -13.1816C30.6894 -16.301 37.9452 -22.6265 44.8514 -22.6265ZM21.5977 -9.97554C21.5102 -10.4088 21.4228 -10.842 21.248 -11.2753C20.8109 -12.575 19.6744 -13.9614 18.0135 -14.1347C17.3141 -14.2214 16.7896 -14.0481 16.3525 -13.7015C15.9154 -13.2682 15.6531 -12.7483 15.7405 -12.1418C15.8279 -11.5352 16.1776 -10.842 16.7022 -10.4954C17.926 -9.71559 19.7619 -9.80224 21.0732 -9.97554C21.248 -9.97554 21.4228 -9.97554 21.5977 -9.97554Z" fill="#B5B2A5"/>
<path d="M37.4207 -0.270508C38.9068 -0.270508 40.393 0.249389 41.5294 1.37583C44.4143 3.88867 44.5891 7.96119 41.9665 10.9073C40.0433 13.0735 37.7704 13.3335 35.4975 13.68C33.9239 13.8533 32.3504 14.1133 30.9516 14.8931C29.99 15.413 29.2032 16.4528 28.7661 17.2327C27.4548 19.2256 27.1926 21.4785 27.8045 23.5581C28.8535 26.7641 31.651 29.5369 35.2352 33.0029C35.6723 33.4361 36.1968 33.956 36.7213 34.4759C36.9836 34.7359 36.9836 35.1691 36.7213 35.4291C36.4591 35.689 36.022 35.689 35.7597 35.4291C35.2352 34.9092 34.7981 34.4759 34.2736 33.956C30.6019 30.4034 27.7171 27.544 26.4932 23.9913C25.7064 21.5652 26.0561 18.879 27.5422 16.5395C28.1542 15.673 29.0284 14.4599 30.1648 13.7667C31.8258 12.8136 33.4868 12.5536 35.1478 12.3803C37.2459 12.1204 39.2565 11.8604 40.8301 10.0408C43.0156 7.61459 42.8407 4.40856 40.4804 2.32898C39.1691 1.20253 37.3333 0.769279 35.9346 1.28918C34.973 1.63578 34.2736 2.41562 33.9239 3.28212C33.7491 3.80201 33.6617 4.58186 34.1862 5.44835C34.5359 5.96825 35.1478 6.40149 35.8471 6.48814C36.4591 6.57479 36.9836 6.48815 37.3333 6.14155C37.5955 5.8816 38.0326 5.96825 38.2949 6.2282C38.5572 6.48815 38.4697 6.92139 38.2075 7.18134C37.5081 7.70124 36.6339 7.96118 35.6723 7.78788C34.6233 7.61459 33.6617 7.00805 33.1371 6.14155C32.5252 5.18841 32.3503 3.97531 32.7874 2.93552C33.2245 1.63578 34.2736 0.595985 35.5849 0.0760911C36.2842 -0.183858 36.8088 -0.270508 37.4207 -0.270508Z" fill="#B5B2A5"/>
<path d="M35.7597 -35.5369C35.9346 -35.5369 36.1094 -35.4502 36.1968 -35.3636C36.4591 -35.1036 36.4591 -34.6704 36.1968 -34.4104C35.6723 -33.8905 35.2352 -33.4573 34.7107 -32.9374C31.2139 -29.4714 28.4164 -26.6986 27.28 -23.4926C26.5806 -21.413 27.0177 -19.0735 28.329 -17.0806C28.8535 -16.3007 29.6403 -15.2609 30.6019 -14.6544C32.0881 -13.7879 33.5742 -13.6146 35.2352 -13.3547C37.5081 -13.0081 39.8685 -12.6615 41.7917 -10.4952C44.5017 -7.46253 44.4143 -3.39001 41.442 -0.790536C39.781 0.6825 37.4207 1.20239 35.4975 0.422547C34.1862 -0.0973483 33.0497 -1.22378 32.6126 -2.52352C32.2629 -3.64996 32.3503 -4.7764 32.9623 -5.72954C33.4868 -6.59604 34.4484 -7.20258 35.4975 -7.37588C36.4591 -7.54918 37.4207 -7.28923 38.1201 -6.76933C38.3823 -6.50938 38.4697 -6.16279 38.2075 -5.81619C37.9452 -5.55624 37.5955 -5.4696 37.2459 -5.72954C36.8088 -6.07614 36.2842 -6.16279 35.6723 -6.07614C34.9729 -5.98949 34.361 -5.55624 34.0987 -5.03635C33.5742 -4.25651 33.6616 -3.47666 33.8365 -2.95677C34.1861 -2.00363 34.9729 -1.22378 35.9346 -0.790536C37.4207 -0.270641 39.2565 -0.617242 40.5678 -1.83033C42.9282 -3.90991 43.0156 -7.11593 40.7427 -9.62876C39.0817 -11.4484 37.071 -11.795 34.9729 -12.0549C33.312 -12.3149 31.5636 -12.5748 29.9026 -13.528C28.7661 -14.2212 27.8045 -15.4342 27.1926 -16.3874C25.619 -18.7269 25.1819 -21.4997 25.9687 -23.9259C27.1051 -27.4785 29.99 -30.3379 33.6616 -33.8905C34.0987 -34.3238 34.6233 -34.8437 35.1478 -35.3636C35.41 -35.4502 35.5849 -35.5369 35.7597 -35.5369Z" fill="#B5B2A5"/>
<path d="M35.7597 -35.5371C35.9346 -35.5371 36.1094 -35.4505 36.1968 -35.3638L52.4569 -19.2469C52.7192 -18.987 52.7192 -18.5537 52.4569 -18.2938C52.1947 -18.0339 51.7576 -18.0339 51.4953 -18.2938L35.7597 -33.8907L1.75333 -0.184006L36.2842 34.0426L51.4953 18.8789C51.7576 18.619 52.1947 18.619 52.4569 18.8789C52.7192 19.1389 52.7192 19.5721 52.4569 19.8321L36.8088 35.3424C36.5465 35.6023 36.1094 35.6023 35.8471 35.3424L0.354621 0.162593C0.2672 0.0759423 0.179771 -0.0973556 0.179771 -0.270657C0.179771 -0.443955 0.2672 -0.617253 0.354621 -0.703904L35.2352 -35.2772C35.41 -35.4504 35.5849 -35.5371 35.7597 -35.5371Z" fill="#B5B2A5"/>
<path d="M62.4228 29.5369C62.5977 29.5369 62.7725 29.6235 62.8599 29.7102C63.1222 29.9701 63.1222 30.4034 62.8599 30.6633C55.3418 38.1152 64.7832 48.6865 69.329 53.7989C69.941 54.4921 70.4655 55.0986 70.9026 55.6185C71.6894 56.6583 72.2139 57.6115 72.5635 58.7379C75.7981 58.7379 79.8194 60.4709 82.9665 65.4966C85.9388 70.2624 87.0753 76.9344 82.8791 81.0936C82.6168 81.3536 82.1798 81.3536 81.9175 81.0936C81.6552 80.8337 81.6552 80.4004 81.9175 80.1405C85.5891 76.5012 84.5401 70.5223 81.8301 66.1898C79.8194 62.9838 76.41 60.1243 72.8258 59.951C72.8258 60.1243 72.8258 60.211 72.9132 60.3843C73.0881 61.8573 73.1755 63.9369 72.2139 65.4966C71.6894 66.3631 70.6403 66.9697 69.5913 67.0563C68.5422 67.143 67.5806 66.7964 66.8812 66.0165C66.2693 65.41 66.0071 64.4568 66.0945 63.417C66.2693 61.5107 67.668 59.7777 69.8535 59.0845C70.2906 58.9112 70.7277 58.8246 71.2522 58.7379C70.99 57.8714 70.5529 57.0916 69.8535 56.3117C69.5038 55.8785 68.9793 55.2719 68.3674 54.5787C63.909 49.553 53.5934 37.9419 61.9857 29.6235C62.0732 29.6235 62.248 29.5369 62.4228 29.5369ZM69.2416 65.8432C69.329 65.8432 69.329 65.8432 69.4164 65.8432C70.0284 65.7566 70.7277 65.41 71.0774 64.8901C71.8642 63.677 71.7768 61.8573 71.6019 60.5576C71.6019 60.3843 71.6019 60.211 71.5145 60.0377C71.0774 60.1243 70.6403 60.211 70.2032 60.3843C68.8919 60.8175 67.4932 61.944 67.3183 63.5903C67.2309 64.2835 67.4058 64.8034 67.7554 65.2367C68.28 65.6699 68.7171 65.8432 69.2416 65.8432Z" fill="#B5B2A5"/>
<path d="M101.412 29.5369C101.587 29.5369 101.762 29.6235 101.849 29.7102C110.154 37.9419 99.8386 49.6397 95.4676 54.6654C94.8557 55.3586 94.3311 55.9651 93.9815 56.3984C93.3695 57.1782 92.9324 57.9581 92.5827 58.8246C93.0198 58.9112 93.5444 58.9979 93.9815 59.1712C96.167 59.8644 97.5657 61.5974 97.7405 63.5037C97.8279 64.5435 97.5657 65.4966 96.9537 66.1032C96.2544 66.883 95.2928 67.2296 94.2437 67.143C93.1947 67.0563 92.2331 66.4498 91.6211 65.5833C90.6595 64.0236 90.7469 61.944 90.9218 60.4709C90.9218 60.2976 90.9218 60.211 91.0092 60.0377C87.5998 60.211 84.715 62.8105 82.8791 65.5833C80.1691 69.9158 79.0327 76.2412 82.9666 80.1405C83.2288 80.4004 83.2288 80.8337 82.9666 81.0936C82.7043 81.3536 82.2672 81.3536 82.0049 81.0936C77.5465 76.6745 78.7704 69.6558 81.7427 64.8901C84.1904 60.9908 87.7747 58.7379 91.184 58.7379C91.5337 57.6115 92.0582 56.6583 92.845 55.6185C93.1947 55.1853 93.8066 54.4921 94.4186 53.7989C98.9644 48.6865 108.406 38.0286 100.888 30.6633C100.625 30.4034 100.625 29.9701 100.888 29.7102C101.062 29.6235 101.237 29.5369 101.412 29.5369ZM94.506 65.8432C95.0305 65.8432 95.555 65.5833 95.9047 65.2367C96.2544 64.8901 96.4292 64.2835 96.3418 63.5903C96.167 61.8573 94.7682 60.8175 93.4569 60.3843C93.0198 60.211 92.5827 60.1243 92.1456 60.0377C92.1456 60.211 92.0582 60.3843 92.0582 60.5576C91.8834 61.8573 91.796 63.677 92.5827 64.8901C92.9324 65.41 93.5444 65.8432 94.2437 65.8432C94.4186 65.8432 94.506 65.8432 94.506 65.8432Z" fill="#B5B2A5"/>
<path d="M75.8855 37.9419C77.7214 37.9419 79.4698 38.7217 80.7811 40.1948C82.2672 41.8411 82.7917 44.1807 82.0924 46.0003C81.6553 47.3001 80.5188 48.3399 79.2075 48.7731C78.0711 49.1197 76.9346 49.0331 75.973 48.4265C75.0988 47.9066 74.4868 46.9535 74.312 45.9137C74.1371 44.9605 74.312 44.094 74.9239 43.4008C75.1862 43.1409 75.5359 43.0542 75.8855 43.3142C76.1478 43.5741 76.2352 43.9207 75.973 44.2673C75.6233 44.7006 75.5359 45.2205 75.6233 45.7404C75.7107 46.4336 76.1478 47.0401 76.6723 47.3867C77.4591 47.9066 78.3333 47.82 78.8578 47.6467C79.732 47.3001 80.5188 46.6069 80.8685 45.6537C81.393 44.2673 80.9559 42.4477 79.8195 41.1479C77.7214 38.8084 74.4868 38.7217 72.0391 40.8013C70.2907 42.361 70.0284 44.354 69.6787 46.4336C69.4165 48.0799 69.2416 49.8129 68.28 51.3726C67.5806 52.4991 66.3568 53.4522 65.4826 53.9721C63.1222 55.4452 60.4122 55.8784 57.9644 55.0119C54.3802 53.7988 51.5828 50.9394 47.9111 47.3001C47.474 46.8668 46.9495 46.3469 46.425 45.827C46.1627 45.5671 46.1627 45.1338 46.425 44.8739C46.6872 44.6139 47.1243 44.6139 47.3866 44.8739C47.9111 45.3938 48.3482 45.827 48.8727 46.3469C52.3695 49.8129 55.167 52.5857 58.4015 53.7122C60.4996 54.4054 62.7725 54.0588 64.7832 52.759C65.57 52.2391 66.619 51.4593 67.1435 50.5061C67.9303 49.1197 68.1926 47.6467 68.3674 46.0003C68.6297 43.7474 68.9794 41.4945 71.1649 39.5882C72.651 38.6351 74.312 37.9419 75.8855 37.9419Z" fill="#B5B2A5"/>
<path d="M87.8621 38.0286C89.5231 38.0286 91.2715 38.6351 92.7576 39.9349C94.9431 41.8411 95.2928 44.1807 95.6425 46.4335C95.9047 48.0799 96.0796 49.5529 96.9538 51.026C97.5657 51.9791 98.6147 52.7589 99.4015 53.2788C101.412 54.5786 103.773 55.0118 105.871 54.3186C109.193 53.2788 111.903 50.5061 115.399 46.9534C115.836 46.5202 116.361 46.0003 116.886 45.4804C117.148 45.2205 117.585 45.2205 117.847 45.4804C118.109 45.7404 118.109 46.1736 117.847 46.4335C117.323 46.9534 116.886 47.3867 116.361 47.9066C112.777 51.5459 109.892 54.4053 106.308 55.5317C103.86 56.3116 101.063 55.8783 98.7022 54.3186C97.828 53.7121 96.5167 52.7589 95.8173 51.6325C94.8557 49.9862 94.5934 48.2532 94.3312 46.6068C93.9815 44.5273 93.7192 42.5343 91.8834 40.888C89.3482 38.6351 86.1137 38.7218 84.0156 41.0613C82.8792 42.361 82.442 44.1807 82.9666 45.6537C83.3162 46.6068 84.1904 47.3867 85.1521 47.7333C85.6766 47.9066 86.4634 47.9932 87.2501 47.4733C87.7747 47.1267 88.1243 46.5202 88.2992 45.9136C88.3866 45.3071 88.2992 44.7006 87.9495 44.354C87.6872 44.094 87.7747 43.6608 88.0369 43.4008C88.2992 43.1409 88.7363 43.2275 88.9985 43.4875C89.5231 44.1807 89.7853 45.1338 89.6105 46.0869C89.4356 47.1267 88.8237 48.0799 87.9495 48.5998C86.9879 49.2063 85.8514 49.293 84.715 48.9464C83.4037 48.5131 82.2672 47.3867 81.7427 46.0869C81.0433 44.1807 81.4804 41.8411 82.9666 40.1948C84.2779 38.8084 86.0263 38.0286 87.8621 38.0286Z" fill="#B5B2A5"/>
<path d="M119.421 -22.9727C126.327 -22.9727 133.495 -16.7339 137.167 -13.5278C137.866 -12.9213 138.478 -12.4014 138.915 -12.0548C139.702 -11.4482 140.489 -11.015 141.363 -10.6684C141.451 -11.1016 141.538 -11.6215 141.713 -12.0548C142.5 -14.221 144.161 -15.6074 146.171 -15.7807C147.22 -15.8674 148.182 -15.6074 148.794 -15.0009C149.581 -14.3077 149.93 -13.3545 149.843 -12.3147C149.755 -11.2749 149.144 -10.2351 148.182 -9.71524C146.608 -8.67544 144.423 -8.76209 142.937 -8.93539C142.762 -8.93539 142.674 -8.93539 142.5 -9.02204C142.587 -5.2961 145.647 -2.00341 148.619 -0.0971178C152.99 2.67567 159.109 3.71547 162.868 -0.0104681C163.131 -0.270417 163.568 -0.270417 163.83 -0.010468C164.092 0.249481 164.092 0.682735 163.83 0.942685C159.547 5.18852 152.728 4.06207 147.92 1.02933C143.549 -1.65681 141.101 -5.4694 141.188 -9.28199C140.052 -9.62859 139.09 -10.1485 138.041 -10.9283C137.604 -11.2749 136.905 -11.8815 136.205 -12.488C131.048 -16.9938 120.295 -26.2653 112.689 -18.7268C112.427 -18.4669 111.99 -18.4669 111.728 -18.7268C111.466 -18.9868 111.466 -19.42 111.728 -19.68C114.263 -22.1062 116.798 -22.9727 119.421 -22.9727ZM144.685 -10.3218C145.647 -10.3218 146.783 -10.4951 147.57 -11.015C148.095 -11.3616 148.532 -11.9681 148.619 -12.6613C148.619 -13.0946 148.619 -13.7011 148.007 -14.221C147.657 -14.5676 147.045 -14.7409 146.346 -14.6543C144.598 -14.481 143.461 -13.0079 143.024 -11.7082C142.849 -11.2749 142.762 -10.8417 142.674 -10.4084C142.849 -10.4084 143.024 -10.3218 143.199 -10.3218C143.636 -10.3218 144.161 -10.3218 144.685 -10.3218Z" fill="#B5B2A5"/>
<path d="M156.574 -3.04345C159.284 -3.04345 161.994 -2.26359 164.005 -0.183975C164.267 0.0759754 164.267 0.509228 164.005 0.76918C163.743 1.02913 163.306 1.02913 163.043 0.76918C159.197 -3.04345 152.64 -1.91699 148.269 0.769179C145.472 2.50219 142.674 5.53497 142.412 9.001C142.587 9.001 142.674 9.001 142.849 8.91435C144.335 8.74105 146.521 8.56775 148.094 9.60756C148.969 10.1275 149.581 11.0806 149.668 12.2071C149.755 13.2469 149.406 14.2 148.619 14.8933C148.007 15.4998 147.045 15.7598 145.996 15.6731C143.986 15.4998 142.325 14.1134 141.625 11.9471C141.451 11.5139 141.363 10.994 141.276 10.5607C140.401 10.8207 139.615 11.2539 138.828 11.9471C138.391 12.2937 137.779 12.8136 137.08 13.5068C132.009 17.926 120.033 28.4108 111.728 20.0923C111.465 19.8323 111.465 19.3991 111.728 19.1391C111.99 18.8792 112.427 18.8792 112.689 19.1391C120.207 26.5044 131.048 17.0595 136.293 12.467C136.992 11.8605 137.604 11.2539 138.129 10.9073C139.178 10.0408 140.139 9.52091 141.363 9.1743C141.451 5.62162 143.723 2.06894 147.832 -0.443933C150.193 -1.917 153.427 -3.04345 156.574 -3.04345ZM146.346 14.3733C146.958 14.3733 147.395 14.2 147.745 13.8534C148.182 13.4202 148.444 12.8136 148.357 12.2071C148.269 11.6005 147.92 10.994 147.395 10.6474C146.171 9.86751 144.335 10.0408 143.024 10.1275C142.849 10.1275 142.674 10.2141 142.5 10.2141C142.587 10.6474 142.674 11.0806 142.849 11.5139C143.286 12.8136 144.335 14.2 146.084 14.3733C146.171 14.3733 146.259 14.3733 146.346 14.3733Z" fill="#B5B2A5"/>
<path d="M128.075 -35.5369C128.25 -35.5369 128.425 -35.4502 128.512 -35.3636C129.037 -34.8437 129.474 -34.4104 129.999 -33.8905C133.67 -30.3379 136.555 -27.4784 137.691 -23.9258C138.478 -21.4996 138.129 -18.7268 136.555 -16.3872C135.943 -15.5207 134.981 -14.3076 133.845 -13.6144C132.184 -12.6613 130.436 -12.4014 128.775 -12.1414C126.677 -11.8815 124.666 -11.5348 123.092 -9.80185C120.907 -7.28901 120.994 -4.08296 123.355 -2.00336C124.666 -0.876915 126.502 -0.443668 127.988 -0.963567C128.949 -1.31017 129.736 -2.09002 130.086 -3.04316C130.261 -3.56306 130.348 -4.34291 129.824 -5.12276C129.474 -5.64266 128.862 -6.07591 128.163 -6.16256C127.551 -6.24921 127.026 -6.16256 126.589 -5.81596C126.327 -5.55601 125.89 -5.64266 125.628 -5.90261C125.365 -6.16256 125.453 -6.5958 125.715 -6.85575C126.414 -7.37565 127.376 -7.63561 128.338 -7.46231C129.387 -7.28901 130.348 -6.68246 130.873 -5.81596C131.485 -4.86281 131.659 -3.73636 131.222 -2.60992C130.785 -1.31017 129.649 -0.183717 128.338 0.249533C126.414 0.942731 124.054 0.422832 122.393 -1.05022C119.508 -3.56306 119.333 -7.63561 122.043 -10.6684C123.967 -12.8346 126.327 -13.1812 128.6 -13.4411C130.173 -13.7011 131.747 -13.8744 133.146 -14.7409C134.107 -15.2608 134.894 -16.3872 135.419 -17.1671C136.73 -19.16 137.08 -21.4996 136.38 -23.5792C135.331 -26.7852 132.534 -29.558 128.949 -33.024C128.512 -33.4573 127.988 -33.9772 127.463 -34.4971C127.201 -34.757 127.201 -35.1903 127.463 -35.4502C127.726 -35.4502 127.9 -35.5369 128.075 -35.5369Z" fill="#B5B2A5"/>
<path d="M126.589 -0.530519C127.201 -0.530519 127.813 -0.443868 128.425 -0.183919C129.736 0.335975 130.873 1.37577 131.31 2.76216C131.66 3.8886 131.572 5.10169 130.96 6.05483C130.436 6.92132 129.474 7.52787 128.425 7.70117C127.463 7.87447 126.502 7.61452 125.802 7.09463C125.54 6.83468 125.453 6.48808 125.715 6.14148C125.977 5.88154 126.327 5.79488 126.677 6.05483C127.114 6.40143 127.638 6.48808 128.25 6.40143C128.949 6.31478 129.561 5.88154 129.911 5.36164C130.436 4.5818 130.348 3.7153 130.173 3.19541C129.824 2.24226 129.037 1.46242 128.075 1.11582C126.589 0.595923 124.753 1.02917 123.442 2.15561C120.994 4.32184 120.907 7.52787 123.18 10.0407C124.841 11.8603 126.851 12.1203 128.949 12.4669C130.61 12.7268 132.359 12.9001 134.107 13.9399C135.244 14.6331 136.205 15.8462 136.817 16.7994C138.391 19.1389 138.741 21.9117 137.954 24.4245C136.73 27.9771 133.845 30.9232 130.086 34.5625C129.561 34.9957 129.124 35.5156 128.6 36.0355C128.338 36.2955 127.9 36.2955 127.638 36.0355C127.376 35.7756 127.376 35.3423 127.638 35.0824C128.163 34.5625 128.687 34.1292 129.124 33.6093C132.709 30.0567 135.593 27.2839 136.642 23.9912C137.342 21.9117 136.992 19.4855 135.681 17.4925C135.156 16.7127 134.37 15.6729 133.408 15.0664C131.922 14.1999 130.436 14.0266 128.775 13.7666C126.502 13.42 124.141 13.1601 122.131 10.9072C119.421 7.87447 119.596 3.80195 122.48 1.20247C123.617 0.0760256 125.19 -0.530519 126.589 -0.530519Z" fill="#B5B2A5"/>
<path d="M128.075 -35.5369C128.25 -35.5369 128.425 -35.4502 128.512 -35.3636L164.005 -0.183819C164.267 0.0761299 164.267 0.509377 164.005 0.769325L128.6 35.8624C128.338 36.1224 127.9 36.1224 127.638 35.8624L111.378 19.8322C111.116 19.5723 111.116 19.139 111.378 18.8791C111.64 18.6191 112.077 18.6191 112.34 18.8791L128.075 34.476L162.606 0.249431L128.075 -33.9772L112.34 -18.3802C112.077 -18.1203 111.64 -18.1203 111.378 -18.3802C111.116 -18.6402 111.116 -19.0734 111.378 -19.3334L127.638 -35.4502C127.726 -35.4502 127.9 -35.5369 128.075 -35.5369Z" fill="#B5B2A5"/>
<path d="M101.15 29.2768C101.325 29.2768 101.5 29.3634 101.587 29.4501L117.847 45.567C117.935 45.6537 118.022 45.827 118.022 46.0003C118.022 46.1736 117.935 46.3469 117.847 46.4335L82.9665 81.0936C82.7043 81.3536 82.2672 81.3536 82.0049 81.0936L46.5124 45.9136C46.2501 45.6537 46.2501 45.2204 46.5124 44.9605L62.1606 29.4501C62.4228 29.1901 62.8599 29.1901 63.1222 29.4501C63.3845 29.71 63.3845 30.1433 63.1222 30.4032L47.9111 45.4804L82.442 79.7072L116.448 46.0003L100.713 30.4032C100.451 30.1433 100.451 29.71 100.713 29.4501C100.8 29.3634 100.975 29.2768 101.15 29.2768Z" fill="#B5B2A5"/>
</g>
</g>
</svg>
