<svg width="103" height="102" viewBox="0 0 103 102" fill="none" xmlns="http://www.w3.org/2000/svg">
<path d="M79.2196 27.9963C80.1146 27.9963 81.3822 27.5115 81.3822 26.3555C81.3822 21.9183 81.9043 15.5421 81.9043 11.1049C81.9043 9.65062 80.6737 8.83044 79.2194 8.83044C77.6907 8.83044 76.4976 9.65062 76.4976 11.1049C76.4976 15.5421 77.0194 21.9183 77.0194 26.3555C77.0196 27.5115 78.0265 27.9963 79.2196 27.9963Z" fill="#C1BDB0"/>
<path d="M79.2569 36.3113C80.7858 36.3113 82.0908 34.9689 82.0908 33.4402C82.0908 31.8741 80.7858 30.5691 79.2569 30.5691C77.6163 30.5691 76.3857 31.8741 76.3857 33.4402C76.3857 34.9689 77.6163 36.3113 79.2569 36.3113Z" fill="#C1BDB0"/>
<path d="M97.446 10.8782C96.7353 11.3131 96.5116 12.2417 96.9465 12.9527C98.9325 16.1988 99.9824 19.9367 99.9824 23.762C99.9824 28.9508 98.057 33.917 94.5606 37.7453C91.3697 41.2392 86.934 43.6155 82.2113 44.2936C81.5496 44.3886 80.8111 44.3453 80.3122 44.867L73.4116 52.0798L73.1533 44.633C73.132 44.0176 72.7389 43.4771 72.1601 43.267C70.9026 42.8106 69.6892 42.2306 68.5437 41.5394C68.538 41.536 68.5324 41.5325 68.5268 41.5291C62.4001 37.8227 58.4939 31.0986 58.4939 23.762C58.4939 12.3236 67.7997 3.01778 79.238 3.01778C84.4982 3.01778 89.5157 4.99107 93.3657 8.57415C93.9756 9.14185 94.9304 9.10765 95.4981 8.4975C96.0658 7.88755 96.0314 6.93279 95.4215 6.36508C91.0112 2.26057 85.2637 0 79.238 0C66.1359 0 55.4764 10.6595 55.4764 23.7618C55.4764 25.2304 55.6148 26.6772 55.8777 28.0882H7.78917C3.49415 28.0884 0 31.5826 0 35.8776V67.4282C0 68.2614 0.675535 68.937 1.50879 68.937C2.34204 68.937 3.01758 68.2614 3.01758 67.4282V38.8871L33.3911 61.5654L3.01758 90.0536V73.4633C3.01758 72.6301 2.34204 71.9546 1.50879 71.9546C0.675535 71.9546 0 72.6301 0 73.4633V93.5375C0 97.8325 3.49415 101.327 7.78917 101.327H83.0536C87.3486 101.327 90.8428 97.8325 90.8428 93.5375V44.5004C93.0424 43.2678 95.0525 41.6814 96.7888 39.7801C100.794 35.3946 103 29.7058 103 23.762C103 19.3807 101.797 15.0982 99.5205 11.3777C99.0856 10.6667 98.1568 10.4428 97.446 10.8782ZM7.78917 31.106H56.6371C58.5951 37.1391 62.8962 42.1294 68.522 44.974C69.0619 45.2472 69.6127 45.5011 70.172 45.732L70.2589 48.2366C70.2589 48.2366 50.0409 63.3319 50.0292 63.3406C47.2335 65.4279 43.4322 65.2952 40.6697 63.2334L5.51754 36.9877L3.07109 35.161C3.41791 32.8687 5.40146 31.106 7.78917 31.106ZM83.0536 98.3089H7.78917C5.36686 98.3089 3.36037 96.4947 3.05721 94.1537L35.8472 63.3991C35.8472 63.3991 39.0066 65.7575 39.0076 65.7583C42.7683 68.5654 48.0744 68.5674 51.8348 65.7585L54.9956 63.3991L87.7856 94.1537C87.4822 96.4947 85.4759 98.3089 83.0536 98.3089ZM87.825 45.9237V90.0536L57.4515 61.5654L70.386 51.9078C70.386 51.9078 70.5194 55.7544 70.5196 55.7614C70.5647 57.0602 72.2145 57.6967 73.1177 56.7522L82.1121 47.3506C82.119 47.3498 82.1258 47.3486 82.1328 47.3478C84.0581 47.1141 85.9628 46.6415 87.7723 45.9434C87.7898 45.9366 87.8075 45.9306 87.825 45.9237Z" fill="#C1BDB0"/>
</svg>
