<svg width="9" height="9" viewBox="0 0 9 9" fill="none" xmlns="http://www.w3.org/2000/svg">
<path d="M8.80455 4.09623C8.9817 3.92358 9.04423 3.6702 8.96782 3.43465C8.89123 3.19911 8.69173 3.03097 8.44664 2.99529L6.26746 2.67865C6.17465 2.66513 6.09445 2.60692 6.053 2.52276L5.07875 0.54831C4.96936 0.326464 4.74734 0.188599 4.4999 0.188599C4.25264 0.188599 4.03062 0.326464 3.92122 0.54831L2.94679 2.52294C2.90535 2.6071 2.82497 2.66531 2.73216 2.67883L0.552982 2.99547C0.308069 3.03097 0.108389 3.19929 0.031797 3.43483C-0.0446147 3.67038 0.0179203 3.92376 0.195073 4.09641L1.77179 5.63329C1.83901 5.69889 1.86982 5.79332 1.85396 5.8856L1.482 8.05576C1.44902 8.24679 1.49912 8.43259 1.62275 8.57911C1.81486 8.80744 2.15024 8.87701 2.4184 8.73608L4.36726 7.71137C4.44872 7.66866 4.55126 7.66902 4.63254 7.71137L6.58158 8.73608C6.67637 8.786 6.77747 8.81123 6.88182 8.81123C7.07231 8.81123 7.25288 8.72653 7.37705 8.57911C7.50086 8.43259 7.55078 8.24643 7.5178 8.05576L7.14565 5.8856C7.1298 5.79314 7.16061 5.69889 7.22783 5.63329L8.80455 4.09623Z" fill="#33445E"/>
</svg>
