<svg width="26" height="26" viewBox="0 0 26 26" fill="none" xmlns="http://www.w3.org/2000/svg">
<g clip-path="url(#clip0)">
<path d="M12.866 25.862C19.7589 25.862 25.3468 20.2741 25.3468 13.3812C25.3468 6.48821 19.7589 0.90036 12.866 0.90036C5.97299 0.90036 0.385132 6.48821 0.385132 13.3812C0.385132 20.2741 5.97299 25.862 12.866 25.862Z" fill="#41B4E6"/>
<path d="M25.3469 13.381C25.3469 13.0769 25.3354 12.7755 25.3141 12.4768L20.1414 7.3042L5.59052 13.0278L11.1578 18.5951L11.2308 18.858L11.3253 18.7627L11.3257 18.7631L11.2308 18.858L17.3892 25.0164C22.0462 23.2048 25.3469 18.6786 25.3469 13.381Z" fill="#0091C8"/>
<path d="M11.6537 15.1994L17.2941 19.4579L20.1413 7.3042L5.59036 13.0278L10.018 14.4944L18.0986 9.07416L11.6537 15.1994Z" fill="white"/>
<path d="M10.0184 14.4944L11.231 18.8581L11.6541 15.1994L18.099 9.07417L10.0184 14.4944Z" fill="#D2D2D7"/>
<path d="M13.4872 16.5833L11.231 18.858L11.654 15.1993L13.4872 16.5833Z" fill="#B9B9BE"/>
</g>
<defs>
<clipPath id="clip0">
<rect width="24.9619" height="24.9619" fill="white" transform="translate(0.385132 0.899902)"/>
</clipPath>
</defs>
</svg>
