<svg width="26" height="26" viewBox="0 0 26 26" fill="none" xmlns="http://www.w3.org/2000/svg">
<g clip-path="url(#clip0)">
<path d="M0.549927 13.3809C0.549927 20.2739 6.13785 25.8618 13.0309 25.8618C19.9239 25.8618 25.5119 20.2739 25.5119 13.3809C25.5119 6.48782 19.9239 0.899902 13.0309 0.899902C6.13785 0.899902 0.549927 6.48782 0.549927 13.3809Z" fill="#7D3DAF"/>
<path d="M20.9252 8.94619L20.9203 8.92647C20.5215 7.31449 18.7239 5.58474 17.073 5.22488L17.0544 5.22105C14.3842 4.71166 11.6767 4.71166 9.00707 5.22105L8.9879 5.22488C7.33757 5.58474 5.53991 7.31449 5.14061 8.92647L5.13623 8.94619C4.64327 11.1974 4.64327 13.4803 5.13623 15.7315L5.14061 15.7512C5.39329 16.7713 6.20593 17.8382 7.18685 18.5753C8.03829 19.2152 8.77592 20.1329 8.77592 21.198C8.77592 21.8492 9.56959 22.1691 10.0209 21.6991L11.0209 20.6597C11.5435 20.1165 12.277 19.8385 13.0307 19.8385C14.3749 19.8385 15.7195 19.7114 17.0544 19.4567L17.073 19.4529C18.7239 19.093 20.5215 17.3633 20.9203 15.7513L20.9252 15.7316C21.4182 13.4803 21.4182 11.1974 20.9252 8.94619ZM19.4825 15.4051C19.2163 16.4567 17.8513 17.7642 16.7668 18.0057C15.347 18.2757 13.916 18.3911 12.4864 18.3515C12.458 18.3507 12.4307 18.3617 12.4109 18.3821C12.2121 18.5861 11.1256 19.7015 11.0811 19.7472C11.0797 19.7486 11.079 19.7493 11.0776 19.7508L9.6638 21.2017C9.56028 21.3096 9.37843 21.2362 9.37843 21.0873V18.1064C9.37843 18.0571 9.34327 18.0153 9.2949 18.0058C9.29463 18.0058 9.29435 18.0057 9.29408 18.0057C8.20957 17.7641 6.84516 16.4567 6.57841 15.405C6.13475 13.3702 6.13475 11.3074 6.57841 9.27258C6.84516 8.22093 8.20957 6.91349 9.29408 6.67194C11.7737 6.20034 14.2878 6.20034 16.7668 6.67194C17.8519 6.91349 19.2163 8.22093 19.4825 9.27258C19.9266 11.3075 19.9266 13.3702 19.4825 15.4051Z" fill="white"/>
<path d="M15.3898 16.781C15.223 16.7304 15.0641 16.6964 14.9166 16.6351C13.3875 16.0008 11.9803 15.1823 10.8656 13.9278C10.2317 13.2143 9.73556 12.4089 9.31616 11.5565C9.11728 11.1523 8.94967 10.7322 8.77883 10.3149C8.62306 9.93434 8.8525 9.54118 9.09411 9.25444C9.32082 8.98534 9.61254 8.77939 9.92847 8.62761C10.1751 8.50914 10.4183 8.57744 10.5984 8.78645C10.9877 9.23834 11.3454 9.71333 11.6349 10.2371C11.813 10.5593 11.7641 10.9531 11.4414 11.1724C11.363 11.2257 11.2915 11.2882 11.2184 11.3484C11.1544 11.4012 11.0941 11.4545 11.0501 11.5259C10.9698 11.6566 10.966 11.8107 11.0177 11.9528C11.4157 13.0465 12.0865 13.897 13.1873 14.355C13.3635 14.4283 13.5404 14.5137 13.7433 14.49C14.0832 14.4503 14.1932 14.0775 14.4314 13.8827C14.6642 13.6924 14.9617 13.6899 15.2124 13.8486C15.4632 14.0073 15.7064 14.1777 15.948 14.3499C16.1852 14.5189 16.4214 14.6843 16.6402 14.877C16.8506 15.0623 16.9231 15.3054 16.8046 15.5568C16.5877 16.0174 16.2721 16.4005 15.8168 16.6451C15.6883 16.714 15.5348 16.7364 15.3898 16.781C15.223 16.7303 15.5348 16.7364 15.3898 16.781Z" fill="white"/>
<path d="M13.0347 8.10107C15.0348 8.1571 16.6775 9.48443 17.0295 11.4617C17.0895 11.7987 17.1109 12.1431 17.1375 12.4851C17.1488 12.6289 17.0673 12.7656 16.9121 12.7674C16.7518 12.7694 16.6796 12.6352 16.6692 12.4914C16.6486 12.2068 16.6343 11.921 16.5951 11.6387C16.3881 10.1488 15.2 8.91621 13.7171 8.65171C13.4939 8.61188 13.2655 8.60142 13.0395 8.57771C12.8966 8.5627 12.7094 8.55404 12.6777 8.37641C12.6512 8.22748 12.7769 8.1089 12.9187 8.10129C12.9572 8.09915 12.996 8.1009 13.0347 8.10107C15.0348 8.1571 12.996 8.1009 13.0347 8.10107Z" fill="white"/>
<path d="M16.0742 12.0412C16.0709 12.0662 16.0691 12.1249 16.0545 12.1802C16.0014 12.381 15.697 12.4062 15.6269 12.2035C15.6061 12.1434 15.603 12.0749 15.6029 12.0102C15.6022 11.5866 15.5101 11.1634 15.2965 10.7948C15.0769 10.416 14.7414 10.0976 14.3479 9.90488C14.11 9.78838 13.8527 9.71596 13.5919 9.6728C13.4779 9.65396 13.3627 9.64251 13.2482 9.62657C13.1094 9.60729 13.0353 9.51883 13.0419 9.38206C13.048 9.25389 13.1417 9.16171 13.2813 9.1696C13.7403 9.19567 14.1837 9.29487 14.5917 9.51095C15.4216 9.9504 15.8956 10.644 16.0339 11.5703C16.0402 11.6122 16.0502 11.6538 16.0534 11.6959C16.0613 11.7999 16.0662 11.9041 16.0742 12.0412C16.0709 12.0662 16.0662 11.9041 16.0742 12.0412Z" fill="white"/>
<path d="M14.8303 11.9928C14.6629 11.9959 14.5734 11.9032 14.5561 11.7498C14.5441 11.6428 14.5347 11.5344 14.5091 11.4304C14.4589 11.2254 14.3499 11.0355 14.1775 10.9099C14.0961 10.8505 14.0038 10.8073 13.9072 10.7794C13.7845 10.744 13.657 10.7538 13.5345 10.7237C13.4016 10.6911 13.328 10.5835 13.3489 10.4587C13.3679 10.3451 13.4784 10.2565 13.6025 10.2655C14.3779 10.3215 14.9321 10.7224 15.0112 11.6352C15.0168 11.6996 15.0234 11.7677 15.0091 11.8293C14.9846 11.9348 14.9065 11.9877 14.8303 11.9928C14.6629 11.9959 14.9065 11.9877 14.8303 11.9928Z" fill="white"/>
</g>
<defs>
<clipPath id="clip0">
<rect width="24.9619" height="24.9619" fill="white" transform="translate(0.549927 0.899902)"/>
</clipPath>
</defs>
</svg>
