<svg width="26" height="25" viewBox="0 0 26 25" fill="none" xmlns="http://www.w3.org/2000/svg">
<g clip-path="url(#clip0)">
<path d="M12.683 25C19.5865 25 25.183 19.4036 25.183 12.5C25.183 5.59644 19.5865 0 12.683 0C5.77942 0 0.182983 5.59644 0.182983 12.5C0.182983 19.4036 5.77942 25 12.683 25Z" fill="#4D76A1"/>
<path fill-rule="evenodd" clip-rule="evenodd" d="M12.2375 16.7937H13.069C13.069 16.7937 13.3202 16.7661 13.4484 16.6279C13.5664 16.501 13.5627 16.2626 13.5627 16.2626C13.5627 16.2626 13.5464 15.1469 14.0642 14.9826C14.5747 14.8208 15.2302 16.061 15.925 16.5378C16.4503 16.8987 16.8496 16.8196 16.8496 16.8196L18.7072 16.7937C18.7072 16.7937 19.6791 16.7338 19.2183 15.9697C19.1805 15.9072 18.9499 15.4045 17.837 14.3715C16.6722 13.2904 16.8282 13.4652 18.2314 11.5951C19.0859 10.4562 19.4275 9.76081 19.3208 9.463C19.219 9.17935 18.5905 9.25433 18.5905 9.25433L16.4989 9.26736C16.4989 9.26736 16.3438 9.2462 16.2288 9.31495C16.1164 9.38236 16.0441 9.53949 16.0441 9.53949C16.0441 9.53949 15.7131 10.4208 15.2715 11.1704C14.3401 12.752 13.9677 12.8354 13.8155 12.7372C13.4614 12.5084 13.5498 11.8177 13.5498 11.3271C13.5498 9.79443 13.7823 9.15537 13.0971 8.98994C12.8698 8.93498 12.7025 8.89873 12.121 8.89287C11.3747 8.88513 10.743 8.89514 10.3853 9.07039C10.1474 9.18691 9.96379 9.44657 10.0756 9.46149C10.2138 9.48 10.5269 9.54591 10.6929 9.77196C10.9073 10.0635 10.8997 10.7185 10.8997 10.7185C10.8997 10.7185 11.0228 12.5227 10.6121 12.7469C10.3302 12.9006 9.94339 12.5867 9.11303 11.1519C8.68756 10.4169 8.36633 9.60445 8.36633 9.60445C8.36633 9.60445 8.30439 9.45261 8.19391 9.37141C8.05983 9.27302 7.87249 9.24167 7.87249 9.24167L5.88487 9.2547C5.88487 9.2547 5.58649 9.26301 5.47696 9.39275C5.37952 9.50814 5.46922 9.74684 5.46922 9.74684C5.46922 9.74684 7.02532 13.3874 8.78727 15.2221C10.4029 16.9042 12.2375 16.7937 12.2375 16.7937Z" fill="white"/>
</g>
<defs>
<clipPath id="clip0">
<rect width="25" height="25" fill="white" transform="translate(0.182983)"/>
</clipPath>
</defs>
</svg>
