<svg width="25" height="26" viewBox="0 0 25 26" fill="none" xmlns="http://www.w3.org/2000/svg">
<g clip-path="url(#clip0)">
<path d="M12.2999 0.899902H12.2938C5.61455 0.899902 0.182983 6.49762 0.182983 13.3809C0.182983 16.1111 1.03701 18.6416 2.48916 20.6963L0.979471 25.333L5.63574 23.7994C7.55125 25.1067 9.83623 25.8618 12.2999 25.8618C18.9792 25.8618 24.4107 20.2626 24.4107 13.3809C24.4107 6.49918 18.9792 0.899902 12.2999 0.899902Z" fill="#4CAF50"/>
<path d="M19.3487 18.5246C19.0565 19.3748 17.8966 20.08 16.9714 20.286C16.3384 20.4248 15.5117 20.5356 12.7285 19.3468C9.16854 17.8272 6.87599 14.1001 6.69731 13.8583C6.5262 13.6164 5.25879 11.8847 5.25879 10.0937C5.25879 8.30266 6.14159 7.43055 6.49743 7.05612C6.78968 6.74878 7.27272 6.60837 7.73608 6.60837C7.88599 6.60837 8.02075 6.61617 8.14189 6.62241C8.49774 6.63801 8.67642 6.65985 8.91112 7.23866C9.20337 7.96411 9.91506 9.75513 9.99986 9.93923C10.0862 10.1233 10.1725 10.3729 10.0513 10.6148C9.93778 10.8644 9.83784 10.9751 9.65916 11.1873C9.48048 11.3995 9.31088 11.5618 9.1322 11.7895C8.96866 11.9877 8.78393 12.1998 8.98986 12.5665C9.1958 12.9253 9.90749 14.1219 10.9553 15.0829C12.3076 16.3232 13.4039 16.7195 13.796 16.888C14.0883 17.0128 14.4366 16.9832 14.6501 16.7492C14.9211 16.4481 15.2558 15.9488 15.5965 15.4574C15.8387 15.1048 16.1446 15.0611 16.4656 15.1859C16.7927 15.3029 18.5235 16.1844 18.8793 16.3669C19.2352 16.551 19.4699 16.6384 19.5562 16.7928C19.641 16.9473 19.641 17.6727 19.3487 18.5246Z" fill="#FAFAFA"/>
</g>
<defs>
<clipPath id="clip0">
<rect width="24.2278" height="24.9619" fill="white" transform="translate(0.182983 0.899902)"/>
</clipPath>
</defs>
</svg>
